<?xml version="1.0" encoding="utf-8"?>
<!-- Generator: Adobe Illustrator 16.0.0, SVG Export Plug-In . SVG Version: 6.00 Build 0)  -->
<!DOCTYPE svg PUBLIC "-//W3C//DTD SVG 1.1//EN" "http://www.w3.org/Graphics/SVG/1.1/DTD/svg11.dtd">
<svg version="1.1" id="Layer_1" xmlns="http://www.w3.org/2000/svg" xmlns:xlink="http://www.w3.org/1999/xlink" x="0px" y="0px"
	 width="46.275px" height="38.018px" viewBox="0 0 46.275 38.018" enable-background="new 0 0 46.275 38.018" xml:space="preserve">
<g>
	<path fill-rule="evenodd" clip-rule="evenodd" fill="#C7EAFB" d="M7.736,19.057v18.961h19.246l0,0h0.005h0.003h0.004h0.004h0.004
		h0.004l0.192-0.002h0.004h0.011h0.005h0.003h0.004h0.004h0.002h0.004h0.004h0.004h0.004c0.065,0,0.131-0.002,0.197-0.002
		l0.004-0.002h0.004h0.003h0.004h0.004h0.004h0.004h0.004h0.003c0.079-0.002,0.159-0.004,0.237-0.006h0.009
		c0.076-0.004,0.152-0.006,0.228-0.01h0.016c0.074-0.004,0.147-0.008,0.221-0.012h0.008l0.085-0.004l0.171-0.012h0.007
		c0.074-0.006,0.148-0.012,0.222-0.018l0.077-0.006l0.158-0.014l0.093-0.008l0.139-0.014l0.1-0.01l0.143-0.016l0.067-0.008
		l0.168-0.02l0.083-0.012l0.138-0.018l0.103-0.016l0.141-0.02l0.077-0.012l0.145-0.023l0.1-0.016l0.136-0.023l0.078-0.014
		l0.149-0.027l0.088-0.016l0.14-0.027l0.084-0.018l0.135-0.027l0.099-0.021l0.131-0.029l0.092-0.02l0.122-0.029l0.103-0.023
		l0.141-0.035l0.067-0.016l0.161-0.043l0.066-0.018l0.129-0.035l0.102-0.027l0.138-0.039l0.066-0.02l0.167-0.051l0.053-0.016
		l0.188-0.059l0.022-0.008l0.154-0.051l0.082-0.027l0.103-0.035l0.112-0.037l0.142-0.051l0.062-0.021l0.191-0.072l0.021-0.006
		c0.283-0.107,0.564-0.221,0.842-0.344l0.007-0.002c0.065-0.029,0.131-0.059,0.196-0.088l0.014-0.006l0.044-0.02l0.159-0.074
		l0.048-0.021c0.053-0.025,0.105-0.051,0.158-0.076l0.062-0.029l0.138-0.068l0.074-0.037l0.136-0.068l0.051-0.027l0.148-0.076
		l0.068-0.037l0.129-0.07l0.082-0.045l0.115-0.063l0.083-0.049l0.121-0.068l0.077-0.045l0.114-0.066l0.085-0.051l0.113-0.07
		l0.083-0.049l0.116-0.072l0.077-0.049l0.109-0.07l0.093-0.061l0.104-0.068l0.086-0.057l0.103-0.068l0.088-0.061l0.121-0.084
		l0.056-0.039l0.128-0.092l0.075-0.053l0.107-0.078l0.079-0.059l0.109-0.082l0.077-0.059l0.111-0.084l0.078-0.061l0.12-0.094
		l0.056-0.045l0.121-0.096l0.071-0.059l0.11-0.09l0.071-0.061l0.117-0.098l0.063-0.053l0.141-0.123l0.036-0.031l0.107-0.094
		l0.088-0.078l0.005-0.004c0.053-0.047,0.105-0.096,0.158-0.143l0.017-0.016l0.164-0.15l0.011-0.012l0.168-0.158l0.006-0.006
		l0.172-0.166c3.786-3.689,5.679-8.166,5.679-13.424v-0.061v-0.035c0-5.259-1.893-9.734-5.679-13.425
		c-3.668-3.576-8.041-5.419-13.121-5.531h-0.003h-0.004h-0.004h-0.004l-0.209-0.004h-0.004h-0.007h-0.005h-0.003h-0.004h-0.002
		h-0.004H27.22h-0.003h-0.004l-0.012,0h-0.004L27.005,0h-0.003h-0.005h-0.004h-0.004h-0.003h-0.005l0,0H7.735v18.961l0,0.084V19.057
		L7.736,19.057z M16.48,19.857v9.607h9.753l0,0h0.002h0.002h0.002h0.002h0.002h0.002h0.097h0.002h0.007h0.001h0.002h0.002h0.002
		h0.001h0.002h0.002h0.002h0.002c0.033,0,0.067-0.002,0.1-0.002h0.003h0.002h0.001h0.002h0.002h0.002h0.002h0.002h0.002
		c0.04-0.002,0.08-0.002,0.12-0.004h0.004c0.039,0,0.077-0.002,0.116-0.004h0.008c0.037-0.002,0.074-0.004,0.111-0.006h0.004
		l0.043-0.004l0.087-0.004h0.004c0.037-0.004,0.074-0.006,0.112-0.01l0.039-0.002l0.08-0.008l0.047-0.004l0.07-0.008l0.05-0.004
		l0.073-0.008l0.033-0.004l0.086-0.01l0.042-0.006l0.069-0.01l0.052-0.008l0.071-0.01l0.039-0.006l0.073-0.012l0.051-0.008
		l0.068-0.012l0.04-0.008l0.076-0.014l0.044-0.008l0.07-0.014l0.043-0.008l0.068-0.016l0.05-0.01l0.066-0.016l0.047-0.01
		l0.062-0.014l0.052-0.012l0.071-0.018l0.034-0.01l0.082-0.021l0.033-0.008l0.065-0.018l0.052-0.016l0.069-0.02l0.034-0.01
		l0.084-0.025l0.027-0.008l0.095-0.029l0.012-0.004l0.078-0.025l0.041-0.014l0.052-0.018l0.057-0.02l0.072-0.027l0.031-0.01
		l0.097-0.037l0.011-0.002c0.144-0.055,0.286-0.113,0.427-0.174l0.003-0.002c0.033-0.016,0.066-0.029,0.1-0.045l0.007-0.002
		l0.022-0.012l0.081-0.037l0.024-0.01c0.026-0.014,0.053-0.025,0.079-0.039l0.031-0.016l0.07-0.033l0.037-0.02l0.069-0.035
		l0.025-0.014l0.075-0.039l0.035-0.018l0.065-0.035l0.041-0.023l0.059-0.031l0.042-0.025l0.062-0.035l0.039-0.021l0.059-0.035
		l0.043-0.025l0.057-0.035l0.042-0.025l0.06-0.037l0.039-0.023l0.056-0.035l0.046-0.031l0.053-0.035l0.043-0.027l0.053-0.035
		l0.044-0.031l0.062-0.043l0.028-0.02l0.065-0.045l0.038-0.027l0.055-0.041l0.04-0.029l0.055-0.041l0.039-0.029l0.057-0.043
		l0.04-0.031l0.06-0.047l0.029-0.023l0.062-0.049l0.036-0.029l0.056-0.045l0.036-0.031l0.06-0.049l0.032-0.027l0.071-0.063
		l0.018-0.016l0.055-0.047l0.044-0.039l0.003-0.002c0.027-0.025,0.054-0.049,0.08-0.072l0.009-0.008l0.083-0.078l0.005-0.004
		l0.086-0.082l0.003-0.002l0.087-0.084c1.919-1.871,2.878-4.139,2.878-6.803l-0.001-0.029l0.001-0.02
		c0-2.664-0.96-4.931-2.878-6.802c-1.858-1.812-4.074-2.746-6.648-2.803h-0.002h-0.002h-0.002h-0.001l-0.106-0.001h-0.002h-0.004
		h-0.002l-0.002,0h-0.002h-0.001h-0.001h-0.003h-0.001h-0.002h-0.006h-0.003l-0.097,0h-0.002h-0.002h-0.002h-0.002h-0.002h-0.002
		l0,0H16.48v9.607v0.043V19.857L16.48,19.857z"/>
	<path fill-rule="evenodd" clip-rule="evenodd" fill="#00C0F3" d="M15.652,38.018h11.329l0,0h0.004h0.004h0.004h0.004h0.004h0.004
		l0.192-0.002h0.004h0.011h0.005h0.003h0.004h0.004h0.002h0.004h0.004h0.004h0.004c0.066,0,0.132-0.002,0.197-0.002l0.004-0.002
		h0.004h0.004h0.004h0.003h0.004h0.004h0.004h0.003c0.079-0.002,0.159-0.004,0.238-0.006h0.007c0.077-0.004,0.153-0.006,0.229-0.01
		h0.015c0.074-0.004,0.147-0.008,0.221-0.012h0.008l0.085-0.006l0.171-0.01h0.007c0.074-0.006,0.148-0.012,0.222-0.018l0.077-0.006
		l0.158-0.014l0.093-0.008l0.139-0.014l0.1-0.01l0.144-0.016l0.066-0.008l0.168-0.021l0.083-0.01l0.137-0.018l0.104-0.016l0.14-0.02
		l0.078-0.012l0.145-0.023l0.1-0.016l0.136-0.023l0.078-0.014l0.149-0.027l0.088-0.016l0.14-0.027l0.084-0.018l0.135-0.027
		l0.099-0.021l0.131-0.029l0.092-0.02l0.122-0.029l0.103-0.023l0.141-0.035l0.067-0.016l0.161-0.043l0.066-0.018l0.129-0.035
		l0.102-0.027l0.138-0.039l0.066-0.02l0.167-0.051l0.053-0.016l0.188-0.059l0.021-0.008l0.155-0.051l0.082-0.025l0.103-0.035
		l0.111-0.039l0.142-0.051l0.063-0.021l0.191-0.072l0.021-0.006c0.283-0.107,0.563-0.223,0.842-0.344l0.007-0.002
		c0.065-0.029,0.131-0.059,0.196-0.088l0.014-0.006l0.044-0.02l0.159-0.074l0.048-0.021c0.053-0.025,0.105-0.051,0.158-0.076
		l0.062-0.029l0.138-0.068l0.074-0.037l0.136-0.068l0.051-0.027l0.148-0.076l0.068-0.037l0.13-0.07l0.081-0.045l0.115-0.063
		l0.083-0.049l0.121-0.068l0.077-0.045l0.114-0.066l0.085-0.051l0.113-0.068l0.083-0.051l0.116-0.072l0.077-0.049l0.109-0.07
		l0.093-0.061l0.104-0.068l0.086-0.057l0.103-0.068l0.087-0.061l0.122-0.084l0.056-0.039l0.129-0.092l0.074-0.053l0.107-0.078
		l0.079-0.059l0.109-0.082l0.078-0.059l0.11-0.084l0.078-0.061l0.12-0.094l0.056-0.045l0.121-0.098l0.071-0.057l0.11-0.09
		l0.072-0.061l0.117-0.098l0.063-0.055l0.141-0.121l0.036-0.031l0.107-0.094l0.088-0.078l0.005-0.004
		c0.053-0.047,0.105-0.096,0.158-0.143l0.017-0.016l0.164-0.15l0.011-0.012l0.168-0.158l0.006-0.006l0.172-0.166
		c3.786-3.689,5.679-8.166,5.679-13.424v-0.061v-0.035c0-5.259-1.893-9.734-5.679-13.425c-0.675-0.658-1.374-1.257-2.097-1.797
		l-5.871,8.808l0.009,0.007l0.008,0.007l0.008,0.007l0.008,0.007l0.008,0.007l0.009,0.007l0.008,0.007l0.004,0.003l0.004,0.003
		l0.008,0.007l0.008,0.007l0.008,0.007l0.008,0.007l0.008,0.007l0.008,0.007l0.008,0.006l0.009,0.007l0.008,0.007l0.008,0.007
		l0.006,0.006l0.002,0.001l0.008,0.007l0.008,0.007l0.008,0.007l0.008,0.007l0.008,0.007l0.008,0.007l0.009,0.007l0.007,0.007
		l0.008,0.007l0.009,0.007l0.008,0.007l0.001,0.001l0.007,0.006l0.008,0.007l0.008,0.007l0.008,0.007l0.008,0.007l0.016,0.015
		l0.008,0.007l0.008,0.007l0.008,0.008l0.008,0.007l0.003,0.003l0.005,0.004l0.008,0.007l0.008,0.008l0.031,0.029l0.008,0.007
		l0.008,0.008l0.008,0.007l0.008,0.008l0.005,0.005l0.002,0.002l0.008,0.007l0.008,0.008l0.008,0.007l0.008,0.007l0.016,0.015
		l0.008,0.008l0.008,0.007l0.008,0.007L33.124,13l0.008,0.007c1.918,1.871,2.878,4.138,2.878,6.802l-0.001,0.02l0.001,0.029
		c0,2.664-0.959,4.932-2.878,6.803l-0.087,0.084l-0.003,0.002l-0.086,0.082l-0.005,0.004l-0.083,0.078l-0.009,0.008
		c-0.026,0.023-0.053,0.047-0.08,0.072l-0.003,0.002l-0.044,0.039l-0.055,0.047l-0.018,0.016l-0.071,0.063l-0.032,0.027l-0.06,0.049
		l-0.036,0.031l-0.056,0.045l-0.036,0.029l-0.062,0.049l-0.029,0.023l-0.06,0.047l-0.04,0.031l-0.057,0.043l-0.039,0.029
		l-0.055,0.041l-0.04,0.029l-0.055,0.041l-0.038,0.027l-0.065,0.045l-0.028,0.02l-0.062,0.043l-0.044,0.031l-0.053,0.035
		L31.601,27.9l-0.053,0.035l-0.046,0.031l-0.056,0.035l-0.039,0.023l-0.06,0.037l-0.042,0.025l-0.057,0.035l-0.043,0.025
		l-0.059,0.035l-0.039,0.021l-0.062,0.035l-0.042,0.025l-0.059,0.031l-0.041,0.023l-0.065,0.035l-0.035,0.018l-0.075,0.039
		l-0.025,0.014l-0.069,0.035l-0.037,0.02l-0.07,0.033l-0.031,0.016c-0.026,0.014-0.053,0.025-0.079,0.039l-0.024,0.01l-0.081,0.037
		l-0.022,0.012l-0.007,0.002c-0.033,0.016-0.066,0.029-0.1,0.045l-0.003,0.002c-0.141,0.061-0.283,0.119-0.427,0.174l-0.011,0.002
		l-0.097,0.037l-0.031,0.01l-0.072,0.027l-0.057,0.02l-0.052,0.018l-0.041,0.014l-0.078,0.025l-0.012,0.004l-0.095,0.029
		l-0.027,0.008l-0.084,0.025l-0.034,0.01l-0.069,0.02l-0.052,0.016l-0.065,0.018l-0.033,0.008l-0.082,0.021l-0.034,0.01
		l-0.071,0.018l-0.052,0.012l-0.062,0.014l-0.047,0.01l-0.066,0.016l-0.05,0.01l-0.068,0.016l-0.043,0.008l-0.07,0.014l-0.044,0.008
		l-0.076,0.014l-0.04,0.008l-0.068,0.012l-0.051,0.008l-0.073,0.012l-0.039,0.006l-0.071,0.01l-0.052,0.008l-0.069,0.01
		l-0.042,0.006l-0.086,0.01l-0.033,0.004l-0.073,0.008l-0.05,0.004l-0.07,0.008l-0.047,0.004l-0.08,0.008l-0.039,0.002
		c-0.038,0.004-0.075,0.006-0.112,0.01h-0.004l-0.087,0.004l-0.043,0.004h-0.004c-0.037,0.002-0.074,0.004-0.111,0.006h-0.008
		c-0.039,0.002-0.077,0.004-0.116,0.004h-0.004c-0.04,0.002-0.08,0.002-0.12,0.004h-0.002h-0.002h-0.002h-0.002h-0.002h-0.002
		h-0.001h-0.002h-0.003c-0.032,0-0.066,0.002-0.1,0.002h-0.002h-0.002H26.36h-0.002h-0.001h-0.002h-0.002h-0.002h-0.001h-0.007
		h-0.002h-0.097h-0.002h-0.002h-0.002h-0.002h-0.002h-0.002h-4.881L15.652,38.018L15.652,38.018z M26.233,29.465L26.233,29.465
		L26.233,29.465z"/>
	<path fill-rule="evenodd" clip-rule="evenodd" fill="#6DCFF6" d="M7.736,19.057v18.961h19.246l0,0h0.005h0.003h0.004h0.004h0.004
		h0.004l0.192-0.002h0.004h0.011h0.005h0.003h0.004h0.004h0.002h0.004h0.004h0.004h0.004c0.065,0,0.131-0.002,0.197-0.002
		l0.004-0.002h0.004h0.003h0.004h0.004h0.004h0.004h0.004h0.003c0.079-0.002,0.159-0.004,0.237-0.006h0.009
		c0.076-0.004,0.151-0.006,0.228-0.01h0.016c0.074-0.004,0.147-0.008,0.221-0.012h0.008l0.085-0.004l0.171-0.012h0.007
		c0.074-0.006,0.148-0.012,0.222-0.018l0.077-0.006l0.158-0.014l0.093-0.008l0.139-0.014l0.1-0.01l0.144-0.016l0.066-0.008
		l0.168-0.02l0.083-0.012l0.138-0.018l0.103-0.016l0.14-0.02l0.078-0.012l0.145-0.023l0.1-0.016l0.136-0.023l0.078-0.014
		l0.149-0.027l0.088-0.016l0.14-0.027l0.084-0.018l0.135-0.027l0.099-0.021l0.131-0.029l0.092-0.02l0.122-0.029l0.103-0.023
		l0.141-0.035l0.067-0.016l0.161-0.043l0.066-0.018l0.129-0.035l0.102-0.027l0.138-0.039l0.066-0.02l0.167-0.051l0.053-0.016
		l0.188-0.059l0.022-0.008l0.154-0.051l0.082-0.027l0.103-0.035l0.112-0.037l0.142-0.051l0.062-0.021l0.191-0.072l0.021-0.006
		c0.283-0.107,0.564-0.221,0.842-0.344l0.007-0.002c0.065-0.029,0.131-0.059,0.196-0.088l0.014-0.006l0.044-0.02l0.159-0.074
		l0.048-0.021c0.053-0.025,0.105-0.051,0.158-0.076l0.062-0.029l0.138-0.068l0.074-0.037l0.136-0.068l0.051-0.027l0.148-0.076
		l0.068-0.037l0.129-0.07l0.082-0.045l0.115-0.063l0.083-0.049l0.121-0.068l0.077-0.045l0.114-0.066l0.085-0.051l0.113-0.07
		l0.083-0.049l0.116-0.072l0.077-0.049l0.109-0.07l0.093-0.061l0.104-0.068l0.086-0.057l0.049-0.033l-6.021-6.998l-0.046,0.031
		L31.601,27.9l-0.053,0.035l-0.046,0.031l-0.056,0.035l-0.039,0.023l-0.06,0.037l-0.042,0.025l-0.057,0.035l-0.043,0.025
		l-0.059,0.035l-0.039,0.021l-0.062,0.035l-0.042,0.025l-0.059,0.031l-0.041,0.023l-0.065,0.035l-0.035,0.018l-0.075,0.039
		l-0.025,0.014l-0.069,0.035l-0.037,0.02l-0.07,0.033l-0.031,0.016c-0.026,0.014-0.053,0.025-0.079,0.039l-0.024,0.01l-0.081,0.037
		l-0.022,0.012l-0.007,0.002c-0.033,0.016-0.066,0.029-0.1,0.045l-0.003,0.002c-0.141,0.061-0.283,0.119-0.427,0.174l-0.011,0.002
		l-0.097,0.037l-0.031,0.01l-0.072,0.027l-0.057,0.02l-0.052,0.018l-0.041,0.014l-0.078,0.025l-0.012,0.004l-0.095,0.029
		l-0.027,0.008l-0.084,0.025l-0.034,0.01l-0.069,0.02l-0.052,0.016l-0.065,0.018l-0.033,0.008l-0.082,0.021l-0.034,0.01
		l-0.071,0.018l-0.052,0.012l-0.062,0.014l-0.047,0.01l-0.066,0.016l-0.05,0.01l-0.068,0.016l-0.043,0.008l-0.07,0.014l-0.044,0.008
		l-0.076,0.014l-0.04,0.008l-0.068,0.012l-0.051,0.008l-0.073,0.012l-0.039,0.006l-0.071,0.01l-0.052,0.008l-0.069,0.01
		l-0.042,0.006l-0.086,0.01l-0.033,0.004l-0.073,0.008l-0.05,0.004l-0.07,0.008l-0.047,0.004l-0.08,0.008l-0.039,0.002
		c-0.038,0.004-0.075,0.006-0.112,0.01h-0.004l-0.087,0.004l-0.043,0.004h-0.004c-0.037,0.002-0.074,0.004-0.111,0.006h-0.008
		c-0.039,0.002-0.077,0.004-0.116,0.004h-0.004c-0.04,0.002-0.08,0.002-0.12,0.004h-0.002h-0.002h-0.002h-0.002h-0.002h-0.002
		h-0.001h-0.002h-0.003c-0.032,0-0.066,0.002-0.1,0.002h-0.002h-0.002H26.36h-0.002h-0.001h-0.002h-0.002h-0.002h-0.001h-0.007
		h-0.002h-0.097h-0.002h-0.002h-0.002h-0.002h-0.002h-0.002l0,0H16.48v-9.607v-0.006v-0.043v-9.607h0.032L7.735,0v18.961l0,0.084
		V19.057L7.736,19.057z"/>
	<path fill-rule="evenodd" clip-rule="evenodd" fill="#C7EAFB" d="M19.528,29.465v0.088H9.776l0,0H9.774H9.772H9.771H9.769H9.767
		H9.765H9.667H9.666H9.659H9.658H9.655H9.654H9.652H9.651H9.648H9.647H9.645H9.643c-0.033-0.002-0.067-0.002-0.1-0.002H9.541H9.539
		H9.538H9.535H9.534H9.532H9.53H9.528H9.526c-0.041-0.002-0.081-0.002-0.121-0.004H9.402c-0.039-0.002-0.078-0.004-0.116-0.004
		H9.278c-0.037-0.002-0.075-0.004-0.112-0.006l-0.004-0.002L9.12,29.533l-0.087-0.006H9.029c-0.038-0.002-0.075-0.004-0.112-0.008
		l-0.039-0.004l-0.08-0.006l-0.047-0.004l-0.07-0.008L8.63,29.494l-0.072-0.008l-0.034-0.004l-0.085-0.012l-0.042-0.004l-0.069-0.01
		l-0.053-0.008l-0.07-0.01l-0.04-0.006l-0.073-0.012l-0.051-0.008l-0.068-0.012l-0.04-0.008l-0.076-0.014l-0.044-0.008l-0.071-0.014
		l-0.042-0.01L7.63,29.336l-0.049-0.01l-0.066-0.016l-0.046-0.01l-0.062-0.016l-0.052-0.012l-0.071-0.018l-0.035-0.008l-0.081-0.021
		l-0.034-0.01l-0.065-0.018l-0.051-0.014l-0.07-0.02l-0.034-0.01l-0.084-0.025l-0.027-0.008l-0.095-0.031L6.695,29.09l-0.078-0.027
		l-0.042-0.012l-0.052-0.02l-0.057-0.02l-0.072-0.025l-0.031-0.01l-0.098-0.037l-0.009-0.004c-0.144-0.053-0.287-0.111-0.427-0.172
		l-0.003-0.002c-0.033-0.016-0.066-0.029-0.099-0.045L5.72,28.713l-0.022-0.01l-0.081-0.037l-0.024-0.012
		c-0.026-0.012-0.053-0.025-0.08-0.037l-0.031-0.016l-0.07-0.035l-0.038-0.018l-0.069-0.035L5.28,28.5l-0.076-0.039l-0.035-0.018
		l-0.065-0.035l-0.042-0.023l-0.058-0.033l-0.042-0.023l-0.062-0.035L4.862,28.27l-0.058-0.033l-0.043-0.025l-0.058-0.035
		L4.662,28.15l-0.059-0.037l-0.039-0.025l-0.056-0.035l-0.046-0.029l-0.053-0.035l-0.044-0.029l-0.052-0.033l-0.044-0.031
		l-0.062-0.043l-0.027-0.02l-0.065-0.047l-0.038-0.027l-0.055-0.039l-0.04-0.029l-0.055-0.041l-0.04-0.029l-0.056-0.043l-0.04-0.031
		L3.73,27.498l-0.029-0.023L3.64,27.426l-0.036-0.029l-0.056-0.045L3.512,27.32l-0.059-0.049l-0.032-0.027L3.35,27.182l-0.018-0.016
		l-0.055-0.047L3.232,27.08L3.23,27.076c-0.027-0.023-0.054-0.047-0.081-0.072l-0.008-0.008L3.059,26.92l-0.006-0.006l-0.085-0.08
		l-0.003-0.002l-0.087-0.084C0.959,24.877,0,22.609,0,19.945l0-0.031l0-0.018c0-2.665,0.959-4.932,2.877-6.802
		c1.859-1.812,4.075-2.746,6.649-2.802h0.001H9.53h0.002h0.001L9.64,10.29h0.001h0.004h0.001l0.002,0h0.001h0.001h0.001h0.002h0.002
		h0.002h0.006h0.002l0.097,0h0.002h0.002h0.002h0.002h0.002h0.002l0,0h6.704v9.52v0.043v0.006v9.607H19.528L19.528,29.465z"/>
	<path fill="#003476" d="M12.364,20.553H7.402c0.007,0.576,0.124,1.084,0.349,1.525c0.225,0.439,0.526,0.77,0.9,0.992
		c0.374,0.225,0.79,0.336,1.239,0.336c0.305,0,0.581-0.035,0.831-0.109c0.254-0.068,0.495-0.18,0.729-0.332
		c0.238-0.152,0.453-0.314,0.65-0.488c0.2-0.174,0.457-0.408,0.774-0.707c0.129-0.111,0.313-0.168,0.555-0.168
		c0.26,0,0.472,0.072,0.634,0.215c0.159,0.141,0.241,0.344,0.241,0.604c0,0.229-0.092,0.494-0.27,0.801
		c-0.181,0.305-0.45,0.6-0.815,0.879c-0.361,0.283-0.815,0.518-1.363,0.701c-0.548,0.188-1.179,0.279-1.889,0.279
		c-1.63,0-2.895-0.467-3.799-1.396c-0.903-0.928-1.354-2.188-1.354-3.777c0-0.748,0.111-1.447,0.333-2.087
		c0.222-0.64,0.548-1.189,0.973-1.649c0.428-0.457,0.955-0.808,1.579-1.052S9.02,14.75,9.78,14.75c0.992,0,1.842,0.209,2.549,0.627
		c0.71,0.418,1.24,0.958,1.595,1.624c0.352,0.663,0.529,1.338,0.529,2.026c0,0.637-0.184,1.053-0.548,1.242
		C13.541,20.457,13.027,20.553,12.364,20.553L12.364,20.553z M7.402,19.107H12c-0.06-0.867-0.294-1.513-0.701-1.944
		c-0.406-0.428-0.938-0.644-1.601-0.644c-0.634,0-1.151,0.219-1.557,0.653C7.735,17.61,7.488,18.254,7.402,19.107L7.402,19.107z"/>
</g>
</svg>
