<?xml version="1.0" encoding="UTF-8"?>
<svg xmlns="http://www.w3.org/2000/svg" id="Layer_1" data-name="Layer 1" viewBox="0 0 24 24">
  <path d="m23.854,23.146l-3.274-3.274c.886-1.046,1.421-2.398,1.421-3.872,0-3.309-2.691-6-6-6s-6,2.691-6,6,2.691,6,6,6c1.475,0,2.827-.535,3.872-1.421l3.274,3.274c.098.098.226.146.354.146s.256-.049.354-.146c.195-.195.195-.512,0-.707Zm-7.854-2.146c-2.757,0-5-2.243-5-5s2.243-5,5-5,5,2.243,5,5-2.243,5-5,5Zm-4.5,2h-7c-1.93,0-3.5-1.57-3.5-3.5V4.5c0-1.93,1.57-3.5,3.5-3.5h5.515c.334,0,.664.03.985.087v5.413c0,1.378,1.122,2.5,2.5,2.5h5.813c.154,0,.3-.071.395-.193s.127-.281.089-.431c-.289-1.13-.877-2.163-1.702-2.987l-3.485-3.485c-1.228-1.228-2.86-1.904-4.596-1.904h-5.515C2.019,0,0,2.019,0,4.5v15c0,2.481,2.019,4.5,4.5,4.5h7c.276,0,.5-.224.5-.5s-.224-.5-.5-.5Zm.5-21.632c.706.272,1.353.692,1.904,1.243l3.485,3.485c.542.542.964,1.192,1.24,1.904h-5.129c-.827,0-1.5-.673-1.5-1.5V1.368Zm-2.5,9.632h-5c-.276,0-.5-.224-.5-.5s.224-.5.5-.5h5c.276,0,.5.224.5.5s-.224.5-.5.5Zm-5.5,3.5c0-.276.224-.5.5-.5h3c.276,0,.5.224.5.5s-.224.5-.5.5h-3c-.276,0-.5-.224-.5-.5Zm0,4c0-.276.224-.5.5-.5h3.5c.276,0,.5.224.5.5s-.224.5-.5.5h-3.5c-.276,0-.5-.224-.5-.5Zm15.35-3.857c.192.199.187.515-.012.707l-2.703,2.614c-.36.355-.835.534-1.311.534s-.949-.177-1.312-.532l-1.364-1.345c-.197-.194-.199-.51-.005-.707.194-.197.512-.198.707-.005l1.363,1.344c.337.33.885.329,1.223-.004l2.706-2.617c.199-.192.516-.186.707.012Z"/>
</svg>
