<?xml version="1.0" standalone="no"?>
<!DOCTYPE svg PUBLIC "-//W3C//DTD SVG 20010904//EN"
 "http://www.w3.org/TR/2001/REC-SVG-20010904/DTD/svg10.dtd">
<svg version="1.0" xmlns="http://www.w3.org/2000/svg"
 width="512.000000pt" height="512.000000pt" viewBox="0 0 512.000000 512.000000"
 preserveAspectRatio="xMidYMid meet">

<g transform="translate(0.000000,512.000000) scale(0.100000,-0.100000)"
fill="#000000" stroke="none">
<path d="M910 4034 c-178 -47 -335 -175 -415 -339 -48 -97 -65 -173 -65 -287
l0 -98 2131 0 2131 0 -4 123 c-4 98 -10 135 -30 189 -70 188 -205 322 -396
397 l-67 26 -1615 2 c-1384 2 -1623 0 -1670 -13z"/>
<path d="M432 2328 l3 -763 26 -67 c74 -190 207 -323 397 -397 l67 -26 1625 0
1625 0 70 22 c192 61 351 218 418 413 22 65 22 69 25 823 l2 757 -2130 0
-2131 0 3 -762z m962 -228 c20 -14 49 -43 64 -64 24 -35 27 -49 27 -116 0 -67
-3 -81 -27 -116 -15 -21 -44 -50 -65 -64 -31 -21 -48 -25 -113 -25 -65 0 -82
4 -113 25 -21 14 -50 43 -65 64 -24 35 -27 49 -27 117 0 70 3 81 30 120 45 64
104 91 186 87 50 -3 75 -10 103 -28z"/>
</g>
</svg>
