<svg width="550" height="150" viewBox="0 0 550 150" fill="none" xmlns="http://www.w3.org/2000/svg">
<path d="M25 67.161C20.6706 67.161 17.161 70.6706 17.161 75C17.161 79.3294 20.6706 82.839 25 82.839L25 67.161ZM530.543 80.543C533.604 77.4817 533.604 72.5183 530.543 69.457L480.656 19.57C477.595 16.5087 472.631 16.5087 469.57 19.57C466.509 22.6313 466.509 27.5947 469.57 30.656L513.914 75L469.57 119.344C466.509 122.405 466.509 127.369 469.57 130.43C472.631 133.491 477.595 133.491 480.656 130.43L530.543 80.543ZM25 75L25 82.839L525 82.839V75V67.161L25 67.161L25 75Z" fill="white"/>
</svg>
