<svg width="4800" height="1600" viewBox="0 0 4800 1600" fill="none" xmlns="http://www.w3.org/2000/svg">
<mask id="mask0_8524_58" style="mask-type:alpha" maskUnits="userSpaceOnUse" x="0" y="225" width="4800" height="1150">
<rect y="225" width="4800" height="1150" fill="#D9D9D9"/>
</mask>
<g mask="url(#mask0_8524_58)">
<path d="M3252.34 296.875C3532.01 296.875 3758.73 522.132 3758.73 800C3758.73 840.753 3753.85 880.373 3744.64 918.318C3689.78 908.617 3624.93 890.841 3593.24 858.898C3532.37 797.565 3523.34 613.086 3523.34 613.086C3523.34 613.152 3514.3 797.576 3453.44 858.898C3392.58 920.232 3209.52 929.336 3209.52 929.336C3209.52 929.336 3392.58 938.44 3453.44 999.773C3502.16 1048.86 3517.67 1176.84 3521.92 1225.98C3443.86 1274.85 3351.42 1303.12 3252.34 1303.12C2972.67 1303.12 2745.95 1077.87 2745.95 800C2745.95 522.132 2972.67 296.875 3252.34 296.875ZM3738.43 941.479C3703.73 1059.37 3626.76 1159.33 3524.93 1224.08C3529.41 1173.62 3545.14 1048.24 3593.24 999.773C3623.74 969.029 3684.96 951.407 3738.43 941.479ZM3131.08 473.34C3131.08 473.34 3125.44 588.454 3087.46 626.727C3049.49 664.993 2935.29 670.678 2935.25 670.68C2935.25 670.68 3049.48 676.361 3087.46 714.633C3125.41 752.87 3131.07 867.81 3131.08 868.02C3131.09 867.798 3136.75 752.868 3174.69 714.633C3212.64 676.393 3326.71 670.689 3326.9 670.68C3326.7 670.67 3212.64 664.966 3174.69 626.727C3136.72 588.463 3131.08 473.392 3131.08 473.34Z" fill="white"/>
<path d="M602.98 641.371C596.818 581.6 575.25 538.518 538.277 512.126C502.073 484.957 455.471 471.373 398.47 471.373C375.362 471.373 352.638 473.701 330.3 478.359C307.962 483.016 287.935 490.779 270.218 501.646C253.272 512.514 239.407 527.263 228.623 545.893C218.609 563.746 213.603 586.258 213.603 613.426C213.603 639.043 220.92 660.001 235.556 676.303C250.961 691.828 270.989 704.636 295.638 714.727C321.057 724.818 349.557 733.357 381.139 740.343C412.721 746.553 444.687 753.54 477.039 761.302C510.161 769.065 542.513 778.38 574.095 789.247C605.676 799.338 633.792 813.311 658.441 831.165C683.86 849.018 703.887 871.53 718.523 898.698C733.928 925.867 741.631 960.022 741.631 1001.16C741.631 1045.41 731.617 1083.45 711.59 1115.27C692.333 1146.32 667.299 1171.94 636.488 1192.12C605.676 1211.53 571.014 1225.5 532.499 1234.04C494.756 1243.35 457.012 1248.01 419.268 1248.01C373.051 1248.01 329.145 1242.19 287.55 1230.55C246.725 1218.9 210.521 1201.44 178.94 1178.15C148.129 1154.08 123.479 1123.81 104.993 1087.33C87.2762 1050.07 78.418 1006.21 78.418 955.753H182.406C182.406 990.684 188.953 1020.96 202.048 1046.57C215.913 1071.41 233.63 1091.98 255.198 1108.29C277.536 1124.59 303.34 1136.62 332.611 1144.38C361.882 1152.14 391.923 1156.03 422.734 1156.03C447.383 1156.03 472.032 1153.7 496.681 1149.04C522.101 1144.38 544.824 1136.62 564.851 1125.75C584.879 1114.11 601.055 1098.58 613.379 1079.18C625.704 1059.77 631.866 1034.93 631.866 1004.66C631.866 975.935 624.163 952.648 608.757 934.794C594.122 916.94 574.095 902.579 548.675 891.712C524.026 880.068 495.911 870.753 464.329 863.767C432.748 856.781 400.396 849.795 367.274 842.808C334.922 835.046 302.955 826.507 271.374 817.192C239.792 807.101 211.292 794.293 185.872 778.768C161.223 762.466 141.196 741.896 125.79 717.056C111.155 691.44 103.837 659.613 103.837 621.577C103.837 579.66 112.31 543.564 129.257 513.29C146.203 482.24 168.541 457.012 196.271 437.606C224.772 417.423 256.738 402.674 292.171 393.359C328.375 383.268 365.348 378.223 403.092 378.223C445.458 378.223 484.742 383.268 520.945 393.359C557.148 403.451 588.73 419.364 615.69 441.099C643.42 462.834 664.988 490.391 680.394 523.77C696.57 556.372 705.428 595.573 706.968 641.371H602.98Z" fill="white"/>
<path d="M1191.6 398.017H1301.36V1229.38H1191.6V398.017Z" fill="white"/>
<path d="M1797.95 398.017H2186.17C2264.74 398.017 2325.98 417.423 2369.88 456.236C2414.56 495.048 2436.9 548.221 2436.9 615.755C2436.9 666.211 2425.34 710.458 2402.24 748.494C2379.9 786.53 2343.69 812.534 2293.63 826.507V828.836C2317.51 833.493 2336.76 841.256 2351.4 852.123C2366.8 862.991 2378.74 876.187 2387.22 891.712C2396.46 906.461 2403.01 923.15 2406.86 941.78C2411.48 960.41 2414.95 979.816 2417.26 999.999C2418.8 1020.18 2419.95 1040.75 2420.72 1061.71C2421.49 1082.67 2423.42 1103.24 2426.5 1123.42C2429.58 1143.61 2433.82 1163.01 2439.21 1181.64C2445.37 1199.5 2454.23 1215.41 2465.78 1229.38H2343.31C2335.61 1220.84 2330.22 1209.2 2327.13 1194.45C2324.82 1179.7 2323.28 1163.4 2322.51 1145.55C2321.74 1126.92 2320.97 1107.12 2320.2 1086.16C2319.43 1065.2 2317.12 1044.63 2313.27 1024.45C2310.19 1004.27 2306.34 985.25 2301.71 967.396C2297.09 948.766 2289.78 932.853 2279.76 919.657C2269.75 905.685 2256.65 894.817 2240.48 887.055C2224.3 878.516 2202.73 874.246 2175.77 874.246H1907.72V1229.38H1797.95V398.017ZM2136.49 781.096C2161.91 781.096 2186.17 779.156 2209.28 775.275C2232.39 771.393 2252.42 764.019 2269.36 753.151C2287.08 741.508 2300.94 726.371 2310.96 707.741C2321.74 688.335 2327.13 663.495 2327.13 633.221C2327.13 591.303 2315.58 557.148 2292.47 530.756C2269.36 504.363 2232 491.167 2180.4 491.167H1907.72V781.096H2136.49Z" fill="white"/>
<path d="M4582.77 641.371C4576.6 581.6 4555.04 538.518 4518.06 512.126C4481.86 484.957 4435.26 471.373 4378.26 471.373C4355.15 471.373 4332.42 473.701 4310.09 478.359C4287.75 483.016 4267.72 490.779 4250 501.646C4233.06 512.514 4219.19 527.263 4208.41 545.893C4198.39 563.746 4193.39 586.258 4193.39 613.426C4193.39 639.043 4200.71 660.001 4215.34 676.303C4230.75 691.828 4250.77 704.636 4275.42 714.727C4300.84 724.818 4329.34 733.357 4360.92 740.343C4392.51 746.553 4424.47 753.54 4456.82 761.302C4489.95 769.065 4522.3 778.38 4553.88 789.247C4585.46 799.338 4613.58 813.311 4638.23 831.165C4663.65 849.018 4683.67 871.53 4698.31 898.698C4713.71 925.867 4721.42 960.022 4721.42 1001.16C4721.42 1045.41 4711.4 1083.45 4691.38 1115.27C4672.12 1146.32 4647.08 1171.94 4616.27 1192.12C4585.46 1211.53 4550.8 1225.5 4512.28 1234.04C4474.54 1243.35 4436.8 1248.01 4399.05 1248.01C4352.84 1248.01 4308.93 1242.19 4267.33 1230.55C4226.51 1218.9 4190.31 1201.44 4158.72 1178.15C4127.91 1154.08 4103.26 1123.81 4084.78 1087.33C4067.06 1050.07 4058.2 1006.21 4058.2 955.753H4162.19C4162.19 990.684 4168.74 1020.96 4181.83 1046.57C4195.7 1071.41 4213.42 1091.98 4234.98 1108.29C4257.32 1124.59 4283.13 1136.62 4312.4 1144.38C4341.67 1152.14 4371.71 1156.03 4402.52 1156.03C4427.17 1156.03 4451.82 1153.7 4476.47 1149.04C4501.89 1144.38 4524.61 1136.62 4544.64 1125.75C4564.66 1114.11 4580.84 1098.58 4593.16 1079.18C4605.49 1059.77 4611.65 1034.93 4611.65 1004.66C4611.65 975.935 4603.95 952.648 4588.54 934.794C4573.91 916.94 4553.88 902.579 4528.46 891.712C4503.81 880.068 4475.7 870.753 4444.11 863.767C4412.53 856.781 4380.18 849.795 4347.06 842.808C4314.71 835.046 4282.74 826.507 4251.16 817.192C4219.58 807.101 4191.08 794.293 4165.66 778.768C4141.01 762.466 4120.98 741.896 4105.58 717.056C4090.94 691.44 4083.62 659.613 4083.62 621.577C4083.62 579.66 4092.1 543.564 4109.04 513.29C4125.99 482.24 4148.33 457.012 4176.06 437.606C4204.56 417.423 4236.52 402.674 4271.96 393.359C4308.16 383.268 4345.13 378.223 4382.88 378.223C4425.24 378.223 4464.53 383.268 4500.73 393.359C4536.93 403.451 4568.52 419.364 4595.48 441.099C4623.21 462.834 4644.77 490.391 4660.18 523.77C4676.35 556.372 4685.21 595.573 4686.75 641.371H4582.77Z" fill="white"/>
<path d="M5804.92 398.017H5914.69V1229.38H5804.92V398.017Z" fill="white"/>
<path d="M6521.04 1136.23H6703.6C6715.92 1136.23 6731.33 1135.45 6749.82 1133.9C6768.3 1131.57 6787.95 1126.92 6808.74 1119.93C6829.54 1112.17 6849.95 1101.3 6869.98 1087.33C6890.78 1073.35 6909.26 1054.34 6925.44 1030.27C6941.62 1006.21 6954.71 976.323 6964.72 940.616C6975.51 904.132 6980.9 860.274 6980.9 809.041C6980.9 759.361 6975.89 715.115 6965.88 676.303C6956.64 636.714 6940.85 603.335 6918.51 576.166C6896.94 548.221 6868.82 527.263 6834.16 513.29C6799.5 498.541 6756.75 491.167 6705.91 491.167H6521.04V1136.23ZM6411.28 398.017H6694.36C6821.45 398.017 6919.28 430.619 6987.83 495.824C7056.39 561.03 7090.67 660.39 7090.67 793.905C7090.67 863.767 7082.96 925.867 7067.56 980.205C7052.15 1033.77 7028.27 1079.18 6995.92 1116.44C6963.57 1152.92 6922.36 1180.87 6872.29 1200.27C6822.22 1219.68 6762.91 1229.38 6694.36 1229.38H6411.28V398.017Z" fill="white"/>
</g>
</svg>
