<svg xmlns="http://www.w3.org/2000/svg" xmlns:xlink="http://www.w3.org/1999/xlink" version="1.1" width="1000" height="1000" viewBox="0 0 1000 1000" xml:space="preserve">
<desc>Created with Fabric.js 3.5.0</desc>
<defs>
</defs>
<rect x="0" y="0" width="100%" height="100%" fill="transparent"/>
<g transform="matrix(3.3407 0 0 0.6048 361.2516 316.4235)" id="876022" clip-path="url(#CLIPPATH_15)">
<clipPath id="CLIPPATH_15">
	<rect transform="matrix(1 0 0 1 0.0001 0.0002)" id="clip0_302_100" x="-79" y="-79" rx="0" ry="0" width="158" height="158"/>
</clipPath>
<path style="stroke: none; stroke-width: 0; stroke-dasharray: none; stroke-linecap: butt; stroke-dashoffset: 0; stroke-linejoin: miter; stroke-miterlimit: 4; is-custom-font: none; font-file-url: none; fill: currentColor; fill-rule: nonzero; opacity: 1;" vector-effect="non-scaling-stroke" transform=" translate(-78.9999, -78.9998)" d="M 154.685 0.000367219 H 3.31409 C 1.48378 0.000367219 0 1.48415 0 3.31478 V 154.686 C 0 156.516 1.48378 158 3.31409 158 H 154.685 C 156.515 158 157.999 156.516 157.999 154.686 V 3.31478 C 158 3.26912 158 3.22347 157.999 3.17813 C 157.962 1.38523 156.478 -0.0373614 154.685 0.000367219 Z" stroke-linecap="round"/>
</g>
<g transform="matrix(3.3538 0 0 2.0906 360.2055 688.0314)" id="314920" clip-path="url(#CLIPPATH_16)">
<clipPath id="CLIPPATH_16">
	<rect transform="matrix(1 0 0 1 0.0001 0.0002)" id="clip0_302_100" x="-79" y="-79" rx="0" ry="0" width="158" height="158"/>
</clipPath>
<path style="stroke: none; stroke-width: 0; stroke-dasharray: none; stroke-linecap: butt; stroke-dashoffset: 0; stroke-linejoin: miter; stroke-miterlimit: 4; is-custom-font: none; font-file-url: none; fill: currentColor; fill-rule: nonzero; opacity: 1;" vector-effect="non-scaling-stroke" transform=" translate(-78.9999, -78.9998)" d="M 154.685 0.000367219 H 3.31409 C 1.48378 0.000367219 0 1.48415 0 3.31478 V 154.686 C 0 156.516 1.48378 158 3.31409 158 H 154.685 C 156.515 158 157.999 156.516 157.999 154.686 V 3.31478 C 158 3.26912 158 3.22347 157.999 3.17813 C 157.962 1.38523 156.478 -0.0373614 154.685 0.000367219 Z" stroke-linecap="round"/>
</g>
<g transform="matrix(3.3407 0 0 0.6048 358.7987 441.6932)" id="31170" clip-path="url(#CLIPPATH_17)">
<clipPath id="CLIPPATH_17">
	<rect transform="matrix(1 0 0 1 0.0001 0.0002)" id="clip0_302_100" x="-79" y="-79" rx="0" ry="0" width="158" height="158"/>
</clipPath>
<path style="stroke: none; stroke-width: 0; stroke-dasharray: none; stroke-linecap: butt; stroke-dashoffset: 0; stroke-linejoin: miter; stroke-miterlimit: 4; is-custom-font: none; font-file-url: none; fill: currentColor; fill-rule: nonzero; opacity: 1;" vector-effect="non-scaling-stroke" transform=" translate(-78.9999, -78.9998)" d="M 154.685 0.000367219 H 3.31409 C 1.48378 0.000367219 0 1.48415 0 3.31478 V 154.686 C 0 156.516 1.48378 158 3.31409 158 H 154.685 C 156.515 158 157.999 156.516 157.999 154.686 V 3.31478 C 158 3.26912 158 3.22347 157.999 3.17813 C 157.962 1.38523 156.478 -0.0373614 154.685 0.000367219 Z" stroke-linecap="round"/>
</g>
<g transform="matrix(3.3407 0 0 0.6048 358.7987 194.5976)" id="522683" clip-path="url(#CLIPPATH_18)">
<clipPath id="CLIPPATH_18">
	<rect transform="matrix(1 0 0 1 0.0001 0.0002)" id="clip0_302_100" x="-79" y="-79" rx="0" ry="0" width="158" height="158"/>
</clipPath>
<path style="stroke: none; stroke-width: 0; stroke-dasharray: none; stroke-linecap: butt; stroke-dashoffset: 0; stroke-linejoin: miter; stroke-miterlimit: 4; is-custom-font: none; font-file-url: none; fill: currentColor; fill-rule: nonzero; opacity: 1;" vector-effect="non-scaling-stroke" transform=" translate(-78.9999, -78.9998)" d="M 154.685 0.000367219 H 3.31409 C 1.48378 0.000367219 0 1.48415 0 3.31478 V 154.686 C 0 156.516 1.48378 158 3.31409 158 H 154.685 C 156.515 158 157.999 156.516 157.999 154.686 V 3.31478 C 158 3.26912 158 3.22347 157.999 3.17813 C 157.962 1.38523 156.478 -0.0373614 154.685 0.000367219 Z" stroke-linecap="round"/>
</g>
<g transform="matrix(0 -4.4927 0.2052 0 695.8901 498.8529)" id="155270" clip-path="url(#CLIPPATH_19)">
<clipPath id="CLIPPATH_19">
	<rect transform="matrix(1 0 0 1 0.0001 0.0002)" id="clip0_302_100" x="-79" y="-79" rx="0" ry="0" width="158" height="158"/>
</clipPath>
<path style="stroke: none; stroke-width: 0; stroke-dasharray: none; stroke-linecap: butt; stroke-dashoffset: 0; stroke-linejoin: miter; stroke-miterlimit: 4; is-custom-font: none; font-file-url: none; fill: currentColor; fill-rule: nonzero; opacity: 1;" vector-effect="non-scaling-stroke" transform=" translate(-78.9999, -78.9998)" d="M 154.685 0.000367219 H 3.31409 C 1.48378 0.000367219 0 1.48415 0 3.31478 V 154.686 C 0 156.516 1.48378 158 3.31409 158 H 154.685 C 156.515 158 157.999 156.516 157.999 154.686 V 3.31478 C 158 3.26912 158 3.22347 157.999 3.17813 C 157.962 1.38523 156.478 -0.0373614 154.685 0.000367219 Z" stroke-linecap="round"/>
</g>
<g transform="matrix(0.5691 0 0 0.5691 836.0155 201.9234)" id="138187">
<path style="stroke: none; stroke-width: 1; stroke-dasharray: none; stroke-linecap: butt; stroke-dashoffset: 0; stroke-linejoin: miter; stroke-miterlimit: 4; is-custom-font: none; font-file-url: none; fill: currentColor; fill-rule: nonzero; opacity: 1;" vector-effect="non-scaling-stroke" transform=" translate(-256, -255.95)" d="M 98.9 184.7 l 1.8 2.1 l 136 156.5 c 4.6 5.3 11.5 8.6 19.2 8.6 c 7.7 0 14.6 -3.4 19.2 -8.6 L 411 187.1 l 2.3 -2.6 c 1.7 -2.5 2.7 -5.5 2.7 -8.7 c 0 -8.7 -7.4 -15.8 -16.6 -15.8 v 0 H 112.6 v 0 c -9.2 0 -16.6 7.1 -16.6 15.8 C 96 179.1 97.1 182.2 98.9 184.7 z" stroke-linecap="round"/>
</g>
<g transform="matrix(-0.5691 0 0 -0.5691 833.8959 798.0766)" id="483332">
<path style="stroke: none; stroke-width: 1; stroke-dasharray: none; stroke-linecap: butt; stroke-dashoffset: 0; stroke-linejoin: miter; stroke-miterlimit: 4; is-custom-font: none; font-file-url: none; fill: currentColor; fill-rule: nonzero; opacity: 1;" vector-effect="non-scaling-stroke" transform=" translate(-256, -255.95)" d="M 98.9 184.7 l 1.8 2.1 l 136 156.5 c 4.6 5.3 11.5 8.6 19.2 8.6 c 7.7 0 14.6 -3.4 19.2 -8.6 L 411 187.1 l 2.3 -2.6 c 1.7 -2.5 2.7 -5.5 2.7 -8.7 c 0 -8.7 -7.4 -15.8 -16.6 -15.8 v 0 H 112.6 v 0 c -9.2 0 -16.6 7.1 -16.6 15.8 C 96 179.1 97.1 182.2 98.9 184.7 z" stroke-linecap="round"/>
</g>
</svg>
