<?xml version="1.0" encoding="utf-8"?>
<!-- Generator: Adobe Illustrator 16.0.0, SVG Export Plug-In . SVG Version: 6.00 Build 0)  -->
<!DOCTYPE svg PUBLIC "-//W3C//DTD SVG 1.1//EN" "http://www.w3.org/Graphics/SVG/1.1/DTD/svg11.dtd">
<svg version="1.1" id="Layer_1" xmlns="http://www.w3.org/2000/svg" xmlns:xlink="http://www.w3.org/1999/xlink" x="0px" y="0px"
	 width="78.681px" height="67.978px" viewBox="0 0 78.681 67.978" enable-background="new 0 0 78.681 67.978" xml:space="preserve">
<g>
	<path fill="#2CABE1" d="M7.405,0h63.872c2.037,0,3.889,0.833,5.23,2.175v0.004c1.341,1.342,2.174,3.191,2.174,5.227v45.86
		c0,2.037-0.833,3.89-2.174,5.231c-1.342,1.341-3.193,2.174-5.23,2.174H7.405c-2.037,0-3.889-0.833-5.23-2.174
		C0.833,57.155,0,55.303,0,53.266V7.405C0,5.37,0.833,3.521,2.175,2.179V2.175C3.516,0.833,5.368,0,7.405,0L7.405,0z M71.277,2.126
		H7.405c-1.451,0-2.771,0.595-3.728,1.552L3.676,3.676c-0.956,0.957-1.55,2.277-1.55,3.729v45.86c0,1.451,0.595,2.771,1.552,3.729
		s2.277,1.551,3.728,1.551h63.872c1.45,0,2.771-0.594,3.727-1.551c0.957-0.957,1.553-2.277,1.553-3.729V7.405
		c0-1.452-0.594-2.772-1.551-3.729l-0.002,0.002C74.047,2.721,72.727,2.126,71.277,2.126L71.277,2.126z"/>
	<polygon fill-rule="evenodd" clip-rule="evenodd" fill="#2CABE1" points="23.784,59.608 54.898,59.608 54.898,65.074 
		23.784,65.074 23.784,59.608 	"/>
	<path fill="#2CABE1" d="M8.874,67.978c-1.174,0-2.126-0.951-2.126-2.126c0-1.174,0.952-2.126,2.126-2.126h60.935
		c1.174,0,2.127,0.952,2.127,2.126c0,1.175-0.953,2.126-2.127,2.126H8.874L8.874,67.978z"/>
	<path fill-rule="evenodd" clip-rule="evenodd" fill="#2CABE1" d="M26.909,38.688v6.99h15.535l0,0h0.003h0.003h0.003h0.004h0.003
		h0.003l0.155-0.001h0.003h0.009h0.003h0.004h0.003h0.003h0.002h0.003h0.003h0.003h0.003c0.053-0.001,0.105-0.002,0.16-0.003h0.002
		h0.004h0.002h0.004h0.003h0.003h0.004h0.002h0.003c0.063-0.002,0.128-0.004,0.192-0.006h0.006c0.062-0.002,0.123-0.005,0.185-0.007
		l0.013-0.001c0.059-0.003,0.118-0.006,0.178-0.009l0.006-0.001l0.068-0.003l0.139-0.009h0.006c0.059-0.005,0.119-0.009,0.179-0.014
		l0.062-0.005l0.128-0.012l0.075-0.007l0.111-0.011l0.081-0.008l0.115-0.013l0.054-0.006l0.137-0.017l0.066-0.009l0.111-0.015
		l0.082-0.012l0.113-0.017l0.063-0.009l0.117-0.02l0.08-0.013l0.109-0.018l0.063-0.012l0.121-0.021l0.071-0.014l0.112-0.021
		l0.068-0.014l0.108-0.022l0.079-0.018l0.106-0.022l0.073-0.017l0.1-0.023l0.082-0.02l0.113-0.028l0.055-0.014l0.131-0.033
		l0.053-0.015l0.104-0.028l0.082-0.022l0.11-0.032l0.054-0.016l0.135-0.04l0.043-0.013l0.151-0.048l0.018-0.006l0.125-0.04
		l0.066-0.022l0.083-0.028l0.09-0.031l0.114-0.041l0.05-0.017l0.155-0.058l0.016-0.006c0.229-0.087,0.456-0.179,0.68-0.276
		l0.006-0.003c0.053-0.022,0.105-0.046,0.158-0.07l0.011-0.005l0.036-0.017l0.128-0.059l0.039-0.019
		c0.042-0.02,0.085-0.04,0.128-0.061l0.049-0.024l0.112-0.054l0.059-0.03l0.11-0.056l0.041-0.021l0.12-0.063l0.055-0.029
		l0.104-0.057l0.066-0.036l0.092-0.051l0.068-0.039l0.097-0.056l0.063-0.036l0.093-0.054l0.068-0.042l0.092-0.055l0.066-0.041
		l0.094-0.059l0.063-0.039l0.088-0.057l0.075-0.049l0.083-0.054l0.07-0.047l0.082-0.056l0.07-0.048l0.1-0.068l0.043-0.031
		l0.104-0.073l0.06-0.043l0.088-0.064l0.064-0.046l0.088-0.066l0.063-0.047l0.09-0.069l0.063-0.048l0.097-0.075l0.046-0.037
		l0.097-0.078l0.058-0.046l0.09-0.074l0.057-0.047l0.095-0.08L52.568,42l0.113-0.098l0.029-0.025l0.087-0.077l0.07-0.062
		l0.004-0.004c0.042-0.038,0.085-0.077,0.128-0.115l0.014-0.013l0.132-0.122l0.009-0.009l0.136-0.127l0.005-0.004l0.139-0.135
		c3.056-2.979,4.584-6.591,4.584-10.836l-0.001-0.048v-0.028c0-4.245-1.528-7.857-4.583-10.837
		c-2.961-2.886-6.49-4.373-10.591-4.463h-0.003l-0.002-0.001h-0.004h-0.003l-0.169-0.003h-0.003h-0.007H42.65h-0.004h-0.003h-0.001
		h-0.003h-0.003h-0.004H42.63h-0.01h-0.003l-0.155-0.001h-0.003h-0.003h-0.004H42.45h-0.003h-0.003l0,0H26.909v8.462
		c-1.474,0.293-2.781,0.995-3.921,2.106c-1.548,1.51-2.322,3.34-2.322,5.491v0.015v0.024c0,2.15,0.774,3.981,2.322,5.49l0.071,0.068
		l0.002,0.002l0.068,0.064l0.004,0.005l0.067,0.062l0.007,0.006c0.021,0.021,0.043,0.04,0.064,0.06l0.002,0.001l0.036,0.032
		l0.044,0.038l0.015,0.013l0.058,0.05l0.025,0.021l0.048,0.041l0.029,0.024l0.045,0.036l0.029,0.024l0.05,0.04l0.023,0.018
		l0.048,0.038l0.032,0.025l0.045,0.034l0.031,0.024l0.045,0.032l0.032,0.024l0.044,0.032l0.03,0.021l0.053,0.038l0.022,0.016
		l0.05,0.034l0.035,0.024l0.042,0.028l0.036,0.023l0.042,0.028l0.038,0.023l0.044,0.029l0.032,0.02l0.048,0.029l0.033,0.021
		l0.046,0.027l0.035,0.021l0.047,0.027l0.032,0.018l0.049,0.028l0.034,0.02l0.047,0.026l0.033,0.019l0.053,0.028l0.028,0.015
		l0.061,0.032l0.021,0.011l0.056,0.028l0.03,0.015l0.057,0.028l0.025,0.012c0.021,0.011,0.043,0.021,0.064,0.03l0.02,0.01
		l0.065,0.03l0.018,0.008l0.005,0.003c0.027,0.012,0.054,0.023,0.081,0.035l0.002,0.002c0.114,0.05,0.229,0.097,0.345,0.14
		l0.008,0.003l0.079,0.029l0.025,0.009l0.058,0.021l0.045,0.016l0.042,0.015l0.033,0.011l0.063,0.021l0.009,0.003l0.077,0.024
		l0.021,0.007l0.068,0.02l0.028,0.009l0.056,0.016l0.042,0.012l0.053,0.015l0.027,0.007l0.065,0.018l0.028,0.007l0.057,0.014
		l0.042,0.01l0.05,0.012l0.038,0.009l0.054,0.012l0.04,0.009l0.055,0.011L26.909,38.688L26.909,38.688z M29.904,31.681h-4.004
		c0.005,0.466,0.1,0.875,0.281,1.23s0.425,0.622,0.727,0.801c0.302,0.182,0.637,0.271,1,0.271c0.246,0,0.468-0.028,0.67-0.087
		c0.205-0.057,0.399-0.146,0.588-0.269c0.192-0.123,0.366-0.254,0.525-0.395c0.161-0.141,0.368-0.33,0.624-0.57
		c0.105-0.09,0.253-0.136,0.448-0.136c0.21,0,0.381,0.059,0.512,0.174c0.128,0.112,0.194,0.276,0.194,0.486
		c0,0.185-0.074,0.399-0.217,0.647c-0.146,0.246-0.363,0.483-0.658,0.709c-0.292,0.228-0.658,0.417-1.1,0.565
		c-0.443,0.15-0.952,0.226-1.525,0.226c-1.315,0-2.336-0.377-3.065-1.126c-0.729-0.75-1.093-1.767-1.093-3.051
		c0-0.604,0.09-1.167,0.269-1.684s0.443-0.959,0.785-1.33c0.346-0.369,0.771-0.653,1.274-0.85c0.504-0.197,1.064-0.298,1.679-0.298
		c0.801,0,1.487,0.169,2.058,0.507c0.573,0.338,1,0.773,1.287,1.311c0.284,0.534,0.427,1.08,0.427,1.635
		c0,0.515-0.148,0.85-0.443,1.004C30.854,31.604,30.439,31.681,29.904,31.681L29.904,31.681z M25.899,30.514h3.71
		c-0.049-0.699-0.238-1.221-0.565-1.568c-0.328-0.346-0.758-0.52-1.292-0.52c-0.512,0-0.929,0.176-1.256,0.526
		C26.168,29.306,25.968,29.825,25.899,30.514L25.899,30.514z M33.968,31.021v7.755h2.46h5.412l0,0h0.002h0.001h0.001h0.002h0.002
		h0.002h0.078h0.002h0.004h0.002h0.002h0.002l0,0h0.002h0.002h0.001h0.002h0.001c0.027-0.001,0.055-0.001,0.081-0.001l0.001-0.001
		h0.002h0.002h0.001h0.002h0.001h0.002h0.001h0.002c0.032-0.001,0.064-0.001,0.097-0.002h0.004c0.031-0.002,0.062-0.003,0.094-0.004
		l0.006-0.001c0.029-0.001,0.061-0.003,0.09-0.004l0.004-0.001l0.034-0.002l0.069-0.004h0.004c0.029-0.002,0.061-0.004,0.09-0.007
		l0.031-0.003l0.065-0.005l0.038-0.004l0.057-0.005l0.041-0.004l0.058-0.007l0.027-0.004l0.069-0.008l0.033-0.005l0.057-0.007
		l0.043-0.006l0.057-0.009l0.031-0.005l0.059-0.009l0.041-0.007l0.056-0.009l0.032-0.006l0.061-0.012l0.037-0.007l0.057-0.011
		l0.034-0.007l0.056-0.011l0.039-0.009l0.055-0.013l0.037-0.008l0.05-0.012l0.042-0.01l0.058-0.015l0.028-0.007l0.064-0.017
		l0.027-0.008l0.053-0.014l0.042-0.012l0.056-0.017l0.028-0.008l0.067-0.021l0.022-0.006l0.075-0.024l0.01-0.003l0.063-0.021
		l0.034-0.011l0.041-0.015l0.047-0.016l0.057-0.021l0.025-0.01l0.079-0.029l0.008-0.002c0.116-0.044,0.231-0.091,0.345-0.141
		l0.003-0.001c0.026-0.012,0.054-0.023,0.08-0.035l0.006-0.003l0.018-0.008l0.065-0.03l0.02-0.009
		c0.021-0.011,0.043-0.021,0.064-0.031l0.025-0.012l0.057-0.028l0.029-0.015l0.057-0.029l0.02-0.01l0.062-0.032l0.028-0.015
		l0.053-0.029l0.033-0.018l0.047-0.026l0.034-0.02l0.05-0.028l0.031-0.019l0.047-0.027l0.035-0.021l0.046-0.027l0.034-0.021
		l0.047-0.029l0.031-0.021l0.045-0.028l0.038-0.024l0.042-0.027l0.035-0.023l0.043-0.028l0.035-0.025l0.049-0.034l0.023-0.016
		l0.053-0.037l0.031-0.022l0.043-0.031l0.033-0.023l0.044-0.034l0.032-0.023l0.045-0.035l0.032-0.024l0.048-0.038l0.023-0.019
		l0.051-0.039l0.029-0.024l0.045-0.037l0.029-0.024l0.047-0.04l0.026-0.021l0.058-0.05l0.015-0.013l0.044-0.039l0.035-0.031
		l0.002-0.002c0.022-0.02,0.044-0.038,0.065-0.059l0.007-0.006l0.066-0.062l0.005-0.005l0.069-0.064l0.002-0.003l0.07-0.068
		c1.549-1.509,2.322-3.339,2.322-5.49v-0.024v-0.015c0-2.15-0.773-3.98-2.322-5.49c-1.5-1.462-3.289-2.216-5.367-2.262l0,0h-0.002
		h-0.002h-0.001l-0.086-0.002h-0.001h-0.004h-0.001h-0.002h-0.001H41.94h-0.001h-0.002h-0.002h-0.002h-0.004h-0.002h-0.078h-0.002
		h-0.002h-0.002h-0.001h-0.001h-0.002l0,0h-7.872v0.07v7.684v0.035V31.021L33.968,31.021z"/>
</g>
</svg>
