<?xml version="1.0" encoding="utf-8"?>
<!-- Generator: Adobe Illustrator 16.0.0, SVG Export Plug-In . SVG Version: 6.00 Build 0)  -->
<!DOCTYPE svg PUBLIC "-//W3C//DTD SVG 1.1//EN" "http://www.w3.org/Graphics/SVG/1.1/DTD/svg11.dtd">
<svg version="1.1" id="Layer_1" xmlns="http://www.w3.org/2000/svg" xmlns:xlink="http://www.w3.org/1999/xlink" x="0px" y="0px"
	 width="68.605px" height="68.605px" viewBox="0 0 68.605 68.605" enable-background="new 0 0 68.605 68.605" xml:space="preserve">
<g>
	<path fill="#2CABE1" d="M21.375,11.377c0.96-0.547,1.949-1.029,2.962-1.448c1.017-0.421,2.059-0.776,3.118-1.065V3.806
		c0-1.044,0.428-1.994,1.114-2.681c0.688-0.688,1.637-1.114,2.682-1.114h6.374c1.045,0,1.994,0.427,2.682,1.114
		c0.688,0.687,1.113,1.637,1.113,2.681v5.058c1.061,0.289,2.102,0.645,3.119,1.065c1.012,0.419,2.002,0.901,2.961,1.448l3.572-3.572
		l0.002-0.001h0.004c0.738-0.738,1.709-1.108,2.678-1.108s1.941,0.37,2.68,1.108h0.004v0.001l4.508,4.507
		c0.738,0.739,1.107,1.712,1.107,2.684s-0.369,1.944-1.107,2.684l-3.572,3.572c0.547,0.96,1.029,1.949,1.449,2.961
		c0.42,1.018,0.775,2.06,1.064,3.119h5.057c1.045,0,1.994,0.427,2.682,1.114c0.688,0.687,1.113,1.637,1.113,2.681v6.375
		c0,1.044-0.426,1.993-1.113,2.681s-1.637,1.114-2.682,1.114h-5.057c-0.289,1.06-0.645,2.102-1.064,3.118
		c-0.42,1.013-0.902,2.002-1.449,2.962l3.572,3.572c0.738,0.739,1.107,1.712,1.107,2.684s-0.369,1.944-1.107,2.684l-4.508,4.507
		c-0.738,0.739-1.711,1.108-2.684,1.108c-0.971,0-1.943-0.369-2.684-1.108L47.5,57.25c-0.959,0.547-1.947,1.029-2.961,1.449
		c-1.018,0.42-2.059,0.775-3.119,1.065v5.057c0,1.044-0.426,1.993-1.113,2.681s-1.637,1.114-2.682,1.114h-6.374
		c-1.045,0-1.994-0.427-2.682-1.114c-0.687-0.688-1.114-1.637-1.114-2.681v-5.057c-1.06-0.29-2.102-0.646-3.118-1.065
		c-1.013-0.42-2.003-0.902-2.962-1.449l-3.572,3.572c-0.739,0.739-1.712,1.108-2.684,1.108s-1.944-0.369-2.684-1.108l-4.507-4.507
		c-0.739-0.739-1.108-1.712-1.108-2.684s0.369-1.944,1.108-2.684l3.572-3.572c-0.547-0.96-1.029-1.949-1.448-2.962
		c-0.421-1.017-0.776-2.059-1.065-3.118H3.931c-1.045,0-1.994-0.427-2.682-1.114c-0.687-0.688-1.114-1.637-1.114-2.681v-6.375
		c0-1.044,0.428-1.994,1.114-2.681c0.688-0.688,1.637-1.114,2.682-1.114h5.057c0.289-1.06,0.645-2.102,1.065-3.119
		c0.419-1.012,0.902-2.001,1.448-2.961l-3.572-3.572c-0.739-0.739-1.108-1.712-1.108-2.684s0.369-1.944,1.108-2.684l4.507-4.507
		l0.001-0.001h0.004c0.739-0.738,1.71-1.108,2.679-1.108s1.94,0.37,2.679,1.108h0.004l0.001,0.001L21.375,11.377L21.375,11.377z
		 M25.143,11.889c-1.158,0.479-2.291,1.055-3.386,1.727l-0.713,0.437l-0.59-0.591L16.3,9.308l-0.001-0.001l0.002-0.002
		c-0.322-0.322-0.751-0.483-1.182-0.483c-0.43,0-0.859,0.161-1.182,0.483l0.002,0.002l-0.001,0.001l-4.507,4.507
		c-0.323,0.323-0.485,0.752-0.485,1.181s0.162,0.856,0.485,1.181l4.153,4.153l0.591,0.591l-0.437,0.713
		c-0.672,1.095-1.248,2.228-1.727,3.385c-0.49,1.186-0.883,2.396-1.176,3.621l-0.195,0.818H9.808H3.931
		c-0.458,0-0.876,0.188-1.179,0.491s-0.491,0.72-0.491,1.178v6.375c0,0.458,0.188,0.875,0.491,1.178s0.721,0.491,1.179,0.491h5.877
		h0.834l0.195,0.818c0.293,1.224,0.686,2.436,1.176,3.62c0.479,1.158,1.055,2.291,1.727,3.386l0.437,0.713l-0.591,0.591
		l-4.153,4.153c-0.323,0.324-0.485,0.752-0.485,1.181s0.162,0.856,0.485,1.181l4.507,4.507c0.323,0.324,0.752,0.485,1.181,0.485
		s0.857-0.161,1.181-0.485l4.153-4.153l0.591-0.591l0.713,0.438c1.095,0.671,2.228,1.247,3.386,1.727
		c1.185,0.489,2.396,0.882,3.621,1.175l0.817,0.195v0.835v5.877c0,0.458,0.188,0.875,0.491,1.178s0.721,0.491,1.179,0.491h6.374
		c0.459,0,0.875-0.188,1.178-0.491s0.492-0.72,0.492-1.178v-5.877v-0.835l0.818-0.195c1.225-0.293,2.436-0.686,3.621-1.175
		c1.156-0.479,2.289-1.056,3.385-1.727l0.713-0.438l0.59,0.591l4.154,4.153c0.324,0.324,0.752,0.485,1.18,0.485
		c0.43,0,0.857-0.161,1.182-0.485l4.508-4.507c0.322-0.324,0.484-0.752,0.484-1.181s-0.162-0.856-0.484-1.181l-4.154-4.153
		l-0.592-0.591l0.438-0.713c0.672-1.095,1.248-2.228,1.727-3.386c0.49-1.185,0.883-2.396,1.176-3.62l0.195-0.818h0.834h5.877
		c0.459,0,0.875-0.188,1.178-0.491s0.492-0.72,0.492-1.178v-6.375c0-0.458-0.189-0.875-0.492-1.178s-0.719-0.491-1.178-0.491h-5.877
		h-0.834l-0.195-0.818c-0.293-1.225-0.686-2.436-1.176-3.621c-0.479-1.157-1.055-2.29-1.727-3.385l-0.438-0.713l0.592-0.591
		l4.154-4.153c0.322-0.324,0.484-0.752,0.484-1.181s-0.162-0.857-0.484-1.181l-4.508-4.507l-0.002-0.001l0.002-0.002
		c-0.322-0.322-0.75-0.483-1.182-0.483c-0.43,0-0.859,0.161-1.182,0.483l0.002,0.002v0.001l-4.154,4.153l-0.59,0.591l-0.713-0.437
		c-1.096-0.672-2.229-1.248-3.385-1.727c-1.186-0.49-2.396-0.883-3.621-1.176l-0.818-0.195V9.684V3.806
		c0-0.458-0.189-0.875-0.492-1.178s-0.719-0.491-1.178-0.491h-6.374c-0.458,0-0.876,0.188-1.179,0.491s-0.491,0.72-0.491,1.178
		v5.878v0.834l-0.817,0.195C27.539,11.006,26.327,11.398,25.143,11.889L25.143,11.889z"/>
	<path fill="#2CABE1" d="M34.437,17.94c4.521,0,8.615,1.833,11.578,4.796s4.795,7.057,4.795,11.577s-1.832,8.614-4.795,11.577
		s-7.057,4.795-11.578,4.795c-4.52,0-8.614-1.832-11.577-4.795c-2.962-2.963-4.796-7.057-4.796-11.577s1.833-8.614,4.796-11.577
		S29.917,17.94,34.437,17.94L34.437,17.94z M44.511,24.239c-2.578-2.578-6.139-4.173-10.074-4.173
		c-3.934,0-7.496,1.595-10.074,4.173s-4.173,6.14-4.173,10.074s1.596,7.496,4.173,10.074c2.578,2.577,6.141,4.172,10.074,4.172
		c3.936,0,7.496-1.595,10.074-4.172c2.578-2.578,4.174-6.14,4.174-10.074S47.089,26.817,44.511,24.239L44.511,24.239z"/>
	<path fill-rule="evenodd" clip-rule="evenodd" fill="#2CABE1" d="M34.437,19.004c8.455,0,15.311,6.854,15.311,15.31
		s-6.855,15.31-15.311,15.31c-8.455,0-15.309-6.854-15.309-15.31S25.982,19.004,34.437,19.004L34.437,19.004z M37.455,24.752
		c0.234-0.537,0.859-0.782,1.395-0.549c0.537,0.234,0.783,0.859,0.549,1.396l-7.977,18.276c-0.234,0.536-0.859,0.781-1.396,0.548
		s-0.782-0.858-0.548-1.396L37.455,24.752L37.455,24.752z M28.141,40.673c0.344,0.474,0.238,1.138-0.236,1.481
		s-1.139,0.238-1.482-0.236l-5.059-6.981c-0.28-0.388-0.262-0.899,0.012-1.263l5.047-6.965c0.344-0.475,1.008-0.581,1.482-0.236
		c0.475,0.344,0.58,1.007,0.236,1.481l-4.607,6.359L28.141,40.673L28.141,40.673z M42.617,42.201
		c-0.344,0.475-1.008,0.581-1.482,0.237c-0.473-0.345-0.58-1.008-0.236-1.482l4.607-6.359l-4.607-6.358
		c-0.344-0.475-0.236-1.139,0.236-1.482c0.475-0.344,1.139-0.238,1.482,0.236l5.047,6.966c0.273,0.362,0.293,0.875,0.012,1.262
		L42.617,42.201L42.617,42.201z"/>
</g>
</svg>
