<?xml version="1.0" encoding="utf-8"?>
<!-- Generator: Adobe Illustrator 24.1.0, SVG Export Plug-In . SVG Version: 6.00 Build 0)  -->
<svg version="1.1" id="Layer_1" xmlns="http://www.w3.org/2000/svg" xmlns:xlink="http://www.w3.org/1999/xlink" x="0px" y="0px"
	 viewBox="0 0 502.02 150.61" style="enable-background:new 0 0 502.02 150.61;" xml:space="preserve">
<style type="text/css">
	.st0{fill:#FFFFFF;}
	.st1{fill:#00AEEF;}
</style>
<path class="st0" d="M215,37.82v43.91c0,22.99-11.17,32.96-28.69,32.96c-10.51,0-19.71-5.69-24.2-15l10.51-4.82
	c2.52,5.04,8.1,8.32,13.69,8.32c9.85,0,15.99-5.69,15.99-20.26v-0.77c-3.61,5.26-10.73,7.88-16.97,7.88
	c-13.47,0-25.18-10.4-25.18-26.72c0-16.42,11.61-26.61,25.07-26.61c6.57,0,13.47,2.52,17.08,7.77v-6.68H215z M202.08,63.23
	c0-8.98-7.45-14.67-14.78-14.67c-7.88,0-14.34,6.13-14.34,14.67s6.46,14.89,14.34,14.89C195.07,78.12,202.08,72.21,202.08,63.23z"/>
<path class="st0" d="M223.1,63.23c0-16.21,12.59-26.5,27.15-26.5c14.56,0,27.26,10.29,27.26,26.5c0,16.21-12.7,26.83-27.26,26.83
	C235.7,90.05,223.1,79.43,223.1,63.23z M264.71,63.23c0-8.76-6.57-14.67-14.45-14.67c-7.88,0-14.34,5.91-14.34,14.67
	c0,8.98,6.46,15,14.34,15C258.14,78.23,264.71,72.21,264.71,63.23z"/>
<path class="st0" d="M332.16,37.82l-21.57,51.13h-11.61l-21.35-51.13h13.69l13.58,35.04l13.47-35.04H332.16z"/>
<path class="st1" d="M387.24,37.82v43.91c0,22.99-11.17,32.96-28.69,32.96c-10.51,0-19.71-5.69-24.2-15l10.51-4.82
	c2.52,5.04,8.1,8.32,13.69,8.32c9.85,0,15.99-5.69,15.99-20.26v-0.77c-3.61,5.26-10.73,7.88-16.97,7.88
	c-13.47,0-25.18-10.4-25.18-26.72c0-16.42,11.61-26.61,25.07-26.61c6.57,0,13.47,2.52,17.08,7.77v-6.68H387.24z M374.32,63.23
	c0-8.98-7.45-14.67-14.78-14.67c-7.88,0-14.34,6.13-14.34,14.67s6.46,14.89,14.34,14.89C367.31,78.12,374.32,72.21,374.32,63.23z"/>
<path class="st1" d="M434.21,38.48l-2.52,12.04c-2.96-1.53-5.58-1.86-7.45-1.86c-8.32,0-12.92,8.1-12.92,22.45v17.85h-12.81V37.82
	h12.7v10.95c2.74-8.54,8.32-12.04,14.67-12.04C428.96,36.73,432.24,37.39,434.21,38.48z"/>
<g>
	<path class="st0" d="M445.38,83.58c0,2.66-1.89,5.38-5.81,5.38h-7.93v-18.9h7.35c3.29,0,5.38,1.98,5.38,4.85
		c0,1.48-0.55,3.26-2.47,3.95C444.2,79.33,445.38,81.5,445.38,83.58z M434.98,73.05v4.64h3.87c1.4,0,2.17-0.93,2.17-2.3
		c0-1.32-0.71-2.33-2.17-2.33H434.98z M442,83.25c0-1.34-0.88-2.74-2.88-2.74h-4.14v5.46h4.06C440.99,85.97,442,84.68,442,83.25z"/>
	<path class="st0" d="M460.38,85.97v2.99H448.5v-18.9h11.6v2.99h-8.28v5.1h7.24v3.05h-7.24v4.77H460.38z"/>
	<path class="st0" d="M475.9,73.05h-5.4v15.91h-3.35V73.05h-5.4v-2.99h14.15V73.05z"/>
	<path class="st0" d="M486.87,84.32h-7.41l-1.65,4.63h-3.57l7.1-18.9h3.62l7.08,18.9h-3.54L486.87,84.32z M485.85,81.41l-2.69-7.62
		l-2.69,7.62H485.85z"/>
</g>
<g>
	<path class="st0" d="M116.95,56.22c0.12,0,0.22-0.02,0.33-0.05c0.2-0.05,0.38-0.12,0.51-0.25c0.2-0.2,0.35-0.5,0.35-0.8
		c0-0.3-0.15-0.6-0.35-0.8c-0.2-0.2-0.49-0.35-0.84-0.35c-0.3,0-0.6,0.15-0.8,0.35c-0.2,0.2-0.35,0.5-0.35,0.8
		c0,0.3,0.15,0.6,0.35,0.8c0.13,0.12,0.29,0.2,0.47,0.24C116.73,56.2,116.84,56.22,116.95,56.22z M91.82,127.34
		c-0.3,0-0.54,0.1-0.74,0.3c-0.15,0.2-0.3,0.45-0.3,0.69c0,0.3,0.15,0.55,0.3,0.75c0.13,0.1,0.29,0.16,0.46,0.2
		c0.09,0.03,0.19,0.05,0.29,0.05c0.11,0,0.22-0.02,0.32-0.05c0.08-0.03,0.15-0.07,0.22-0.11c0.01,0,0.02-0.01,0.02-0.01
		c0.06-0.04,0.12-0.07,0.18-0.13c0.2-0.15,0.3-0.39,0.3-0.69c0-0.25-0.1-0.5-0.3-0.69C92.37,127.44,92.12,127.34,91.82,127.34z
		 M124.21,105.93c-0.06-0.02-0.13-0.03-0.19-0.04c-0.02,0-0.33,0.01-0.43,0.05c-0.18,0.04-0.35,0.12-0.48,0.24
		c-0.2,0.2-0.35,0.5-0.35,0.8c0,0.29,0.15,0.59,0.35,0.79c0.2,0.2,0.49,0.35,0.79,0.35c0.35,0,0.65-0.15,0.85-0.35
		c0.2-0.2,0.35-0.5,0.35-0.79c0-0.3-0.15-0.6-0.35-0.8C124.61,106.04,124.42,105.97,124.21,105.93z M58.3,128.63
		c0-0.3-0.15-0.6-0.35-0.8c-0.2-0.2-0.5-0.3-0.8-0.3s-0.6,0.1-0.8,0.3c-0.2,0.2-0.35,0.5-0.35,0.8c0,0.3,0.15,0.6,0.35,0.79
		c0.2,0.2,0.5,0.35,0.8,0.35s0.6-0.15,0.8-0.35C58.15,129.23,58.3,128.93,58.3,128.63z M129.91,75.04h-0.05
		c-0.29,0-0.59,0.15-0.8,0.35c-0.19,0.2-0.35,0.49-0.35,0.79c0,0.3,0.16,0.6,0.35,0.8c0.2,0.2,0.5,0.35,0.8,0.35h0.05
		c0.3,0,0.6-0.15,0.8-0.35c0.2-0.2,0.35-0.49,0.35-0.8c0-0.3-0.15-0.6-0.35-0.79C130.51,75.19,130.21,75.09,129.91,75.04z
		 M98.23,28.8c-0.76-0.25-1.51-0.54-2.26-0.83c-0.04-0.04-0.08-0.1-0.12-0.16c-0.15-0.64-0.35-1.29-0.6-1.94
		c-0.25-0.69-0.54-1.39-0.94-2.08c-0.1-0.2-0.4-0.25-0.6-0.15c-0.2,0.1-0.3,0.4-0.15,0.6c0.35,0.65,0.65,1.29,0.9,1.94
		c0.15,0.44,0.28,0.9,0.38,1.35c-0.96-0.4-1.92-0.82-2.89-1.28c-0.09-0.55-0.15-1.11-0.33-1.66c-0.15-0.6-0.4-1.19-0.8-1.79
		c-0.15-0.2-0.44-0.25-0.64-0.1c-0.2,0.15-0.2,0.45-0.1,0.65c0.35,0.45,0.55,0.94,0.7,1.49c0.09,0.32,0.15,0.64,0.21,0.96
		c-0.22-0.1-0.44-0.2-0.65-0.31c-0.86-0.43-1.72-0.89-2.58-1.36c0-0.29,0.05-0.48,0.05-0.73c0.1-0.5,0.2-0.94-0.2-1.59
		c-0.1-0.2-0.35-0.25-0.6-0.15c-0.2,0.15-0.25,0.4-0.15,0.59c0.24,0.4,0.15,0.65,0.1,0.99c-0.02,0.13-0.04,0.27-0.05,0.41
		c-1.45-0.81-2.91-1.66-4.41-2.54c-0.2-0.1-0.5-0.05-0.6,0.15c-0.15,0.2-0.05,0.49,0.15,0.59c1.36,0.83,2.7,1.62,4.03,2.37
		c-0.05,0.02-0.1,0.05-0.16,0.07c-0.45,0.25-0.84,0.45-1.49,0.45c-0.25,0-0.45,0.25-0.45,0.44c0,0.25,0.2,0.45,0.45,0.45
		c0.85-0.05,1.34-0.24,1.89-0.54c0.23-0.1,0.47-0.21,0.73-0.33c0.97,0.53,1.94,1.04,2.89,1.52c0.14,0.08,0.29,0.14,0.43,0.2
		c-0.54,0.2-1.12,0.32-1.72,0.45c-0.2,0.05-0.4,0.1-0.65,0.15c-0.2,0.05-0.35,0.24-0.3,0.49c0.05,0.25,0.25,0.4,0.49,0.35l0.6-0.15
		c0.91-0.17,1.77-0.36,2.6-0.8c0.77,0.36,1.54,0.71,2.32,1.04c-0.11,0.03-0.24,0.07-0.35,0.1c-0.64,0.2-1.24,0.3-1.88,0.4
		c-0.25,0.05-0.4,0.25-0.4,0.5c0.05,0.25,0.3,0.4,0.5,0.4c0.69-0.1,1.34-0.25,1.98-0.45c0.46-0.1,0.93-0.25,1.41-0.43
		c0.98,0.4,1.96,0.78,2.96,1.13c0.25,0.1,0.5-0.05,0.54-0.25C98.58,29.15,98.43,28.9,98.23,28.8z M25.89,107.33
		c-0.1-0.03-0.21-0.06-0.32-0.06c-0.11,0-0.22,0.02-0.32,0.06c-0.18,0.05-0.35,0.12-0.47,0.24c-0.25,0.2-0.35,0.5-0.35,0.8
		c0,0.3,0.1,0.6,0.35,0.8c0.2,0.2,0.49,0.35,0.79,0.35c0.3,0,0.6-0.15,0.8-0.35c0.25-0.2,0.35-0.5,0.35-0.8c0-0.3-0.1-0.6-0.35-0.8
		C26.24,107.45,26.07,107.38,25.89,107.33z M115.43,44.03c0.01-0.13,0.04-0.27,0.08-0.43c0.05-0.2,0.1-0.35,0.15-0.55
		c0.15-0.94,0.25-1.94,0.25-2.98c0-0.25-0.2-0.44-0.45-0.44c-0.25,0-0.44,0.2-0.44,0.44c0,0.98-0.1,1.91-0.25,2.79
		c-0.39-0.68-0.8-1.35-1.21-2.01c0.03-0.07,0.11-0.53,0.17-0.68c0.15-0.84,0.2-1.79,0.15-2.78c0-0.2-0.2-0.4-0.44-0.4
		c-0.25,0-0.45,0.25-0.4,0.45c0.04,0.81-0.03,1.63-0.16,2.33c-0.47-0.72-0.96-1.43-1.46-2.15c0.15-0.45,0.24-0.95,0.29-1.47
		c0.05-0.6,0.1-1.24,0.05-1.83c0-0.25-0.2-0.45-0.44-0.45c-0.25,0-0.4,0.2-0.4,0.45c0,0.6,0,1.19-0.1,1.74
		c-0.02,0.2-0.05,0.39-0.08,0.58c-0.3-0.42-0.62-0.84-0.96-1.28c-0.5-0.69-1.04-1.34-1.59-1.98c-0.15-0.2-0.45-0.2-0.65-0.05
		c-0.15,0.15-0.2,0.4-0.05,0.6c0.54,0.64,1.1,1.34,1.59,1.99c0.29,0.37,0.57,0.76,0.86,1.14c-0.61-0.12-1.21-0.29-1.75-0.79
		c-0.2-0.15-0.45-0.15-0.65,0.05c-0.15,0.15-0.15,0.45,0.05,0.6c0.89,0.8,1.79,0.95,2.73,1.15c0.11,0,0.25,0.02,0.39,0.06
		c0.56,0.8,1.1,1.61,1.62,2.42c-0.24-0.03-0.47-0.08-0.66-0.15c-0.5-0.1-0.9-0.3-1.34-0.45c-0.2-0.15-0.45-0.05-0.55,0.2
		c-0.15,0.2-0.05,0.49,0.2,0.6c0.44,0.2,0.94,0.4,1.44,0.55c0.47,0.09,0.95,0.16,1.46,0.16c0.44,0.71,0.87,1.43,1.28,2.15
		c-0.26-0.05-0.51-0.12-0.75-0.22c-0.54-0.15-1.1-0.4-1.59-0.69c-0.25-0.1-0.49-0.05-0.6,0.2c-0.15,0.2-0.05,0.45,0.15,0.6
		c0.6,0.29,1.14,0.54,1.74,0.74c0.51,0.17,1.03,0.26,1.57,0.31c0.75,1.38,1.47,2.76,2.11,4.16c0.1,0.2,0.35,0.3,0.55,0.2
		c0.25-0.1,0.35-0.35,0.25-0.6C116.9,46.84,116.2,45.43,115.43,44.03z M101.86,27.41c0.35,0,0.65-0.1,0.84-0.3
		c0.2-0.2,0.35-0.5,0.35-0.8c0-0.35-0.15-0.6-0.35-0.8c-0.2-0.2-0.49-0.35-0.84-0.35c-0.3,0-0.6,0.15-0.8,0.35
		c-0.2,0.2-0.35,0.44-0.35,0.8c0,0.3,0.15,0.6,0.35,0.8C101.26,27.31,101.56,27.41,101.86,27.41z M121,50.21
		c0.1,0.03,0.21,0.05,0.32,0.05c0.12,0,0.23-0.02,0.33-0.05c0.2-0.05,0.38-0.12,0.51-0.25c0.2-0.19,0.35-0.49,0.35-0.79
		c0-0.3-0.15-0.6-0.35-0.8c-0.2-0.2-0.5-0.35-0.85-0.35c-0.29,0-0.6,0.15-0.8,0.35c-0.2,0.2-0.35,0.49-0.35,0.8
		c0,0.3,0.15,0.6,0.35,0.79C120.65,50.09,120.82,50.16,121,50.21z M44.44,30.2c0.35,0,0.6-0.1,0.85-0.3
		c0.13-0.13,0.2-0.31,0.25-0.51c0.02-0.09,0.05-0.19,0.05-0.29c0-0.35-0.1-0.6-0.35-0.79c-0.2-0.2-0.45-0.35-0.8-0.35
		c-0.3,0-0.6,0.15-0.79,0.35c-0.2,0.19-0.35,0.44-0.35,0.79c0,0.3,0.15,0.6,0.35,0.79C43.85,30.09,44.14,30.2,44.44,30.2z
		 M17.03,79.31c0.3,0,0.59-0.15,0.79-0.35l-0.02-0.03c0.2-0.2,0.32-0.47,0.32-0.77h0.05c0-0.29-0.1-0.6-0.35-0.8
		c-0.12-0.12-0.29-0.2-0.47-0.24c-0.1-0.03-0.21-0.05-0.32-0.05c-0.12,0-0.22,0.02-0.32,0.05c-0.18,0.04-0.35,0.12-0.48,0.24
		c-0.25,0.2-0.35,0.5-0.35,0.8c0,0.3,0.1,0.6,0.35,0.8C16.43,79.17,16.73,79.31,17.03,79.31z M25.07,52.25c0.3,0,0.54-0.1,0.75-0.3
		c0.15-0.2,0.3-0.44,0.3-0.69c0-0.3-0.15-0.54-0.3-0.74c-0.2-0.15-0.45-0.3-0.75-0.3c-0.29,0-0.54,0.15-0.74,0.3
		c-0.2,0.2-0.3,0.45-0.3,0.74c0,0.25,0.1,0.49,0.3,0.69C24.52,52.15,24.78,52.25,25.07,52.25z M46.43,36.55
		c0.11,0,0.21-0.02,0.31-0.05c0.19-0.04,0.37-0.11,0.53-0.24c0.13-0.13,0.2-0.31,0.24-0.5c0.03-0.09,0.05-0.19,0.05-0.29
		c0-0.3-0.1-0.6-0.35-0.8c-0.2-0.2-0.45-0.35-0.8-0.35c-0.3,0-0.6,0.15-0.8,0.35c-0.2,0.2-0.35,0.5-0.35,0.8s0.15,0.6,0.35,0.8
		c0.13,0.13,0.29,0.2,0.48,0.24C46.21,36.53,46.32,36.55,46.43,36.55z M48.06,121.14l-2.57-4.07c-0.15-0.25-0.4-0.3-0.6-0.15
		c-0.2,0.1-0.3,0.4-0.15,0.6l1.83,2.96c-0.88-0.4-1.76-0.8-2.63-1.21c-0.34-0.62-0.77-1.28-1.19-1.9c-0.45-0.69-0.85-1.39-1.19-2.03
		c-0.15-0.2-0.4-0.3-0.6-0.2c-0.25,0.15-0.3,0.4-0.2,0.6v0.05l0.02-0.01c0.34,0.68,0.78,1.36,1.22,2.04
		c0.17,0.26,0.34,0.52,0.5,0.77c-0.92-0.45-1.83-0.92-2.74-1.39c-0.29-0.44-0.64-0.94-1.08-1.62c-0.4-0.54-0.75-1.14-1.09-1.58
		c-0.1-0.25-0.4-0.3-0.6-0.15c-0.2,0.15-0.24,0.4-0.15,0.6c0.4,0.55,0.75,1.1,1.09,1.64c0.05,0.08,0.11,0.18,0.16,0.26
		c-1.8-0.95-3.58-1.94-5.33-2.99c-0.2-0.1-0.5-0.05-0.6,0.15c-0.15,0.2-0.05,0.5,0.15,0.6c1.85,1.09,3.72,2.14,5.6,3.14
		c-0.16,0.02-0.32,0.03-0.48,0.04c-0.69,0.05-1.34,0.1-1.99,0.2c-0.25,0-0.4,0.25-0.4,0.5c0.05,0.25,0.3,0.4,0.55,0.35
		c0.6-0.1,1.24-0.15,1.89-0.2c0.58-0.05,1.2-0.09,1.78-0.17c0.89,0.46,1.78,0.92,2.67,1.36c-0.31,0.02-0.62,0.04-0.93,0.06
		c-0.9,0.05-1.79,0.1-2.58,0.2c-0.25,0-0.4,0.25-0.4,0.5c0.05,0.24,0.25,0.4,0.49,0.34c0.79-0.1,1.69-0.15,2.53-0.2
		c0.83-0.04,1.65-0.1,2.39-0.18c0.97,0.45,1.94,0.9,2.91,1.34L43,122.18c-0.25,0.05-0.4,0.3-0.3,0.5c0.05,0.24,0.3,0.4,0.5,0.35
		l4.45-1.1c0.71,0.32,1.43,0.63,2.15,0.94c-1.13,0.46-3.22,0.75-3.37,0.75c-0.25,0.05-0.4,0.3-0.35,0.54c0,0.2,0.25,0.4,0.49,0.35
		c0.1,0,2.72-0.4,4.34-1.18c0.54,0.22,1.07,0.45,1.62,0.68c0.2,0.1,0.44,0,0.54-0.25c0.1-0.25,0-0.5-0.25-0.6
		C51.24,122.52,49.64,121.84,48.06,121.14z M133.59,77.77c0-0.29-0.35-0.5-0.59-0.4c-2.16,1.01-4.04,2.2-5.65,3.53
		c-0.15-1.36-0.37-2.71-0.73-4.06c3.18-4.37,4.58-9.07,4.34-14.07c-0.25-5.11-2.08-10.48-5.46-16.14c-0.2-0.3-0.65-0.3-0.79,0.04
		l-3.08,7.16c-0.27,0.73-0.49,1.45-0.68,2.17c-0.61-1.56-1.6-4.23-1.6-4.86c0-0.29,0.05-0.59,0.05-0.89
		c0.05-2.39,0.05-4.32-1.04-9.88l-0.05-0.05c-1.54-4.52-6.06-8.29-9.84-10.63c-0.69-0.5-1.39-0.89-2.03-1.24
		c-0.65-0.35-1.24-0.65-1.69-0.84c-0.3-0.15-0.64,0.05-0.64,0.35c-0.08,1.32-0.03,2.58,0.12,3.78c-0.16-0.11-0.31-0.21-0.47-0.3
		c-0.33-0.25-0.67-0.54-1.18-0.85c-0.01-0.01-0.01-0.01-0.02-0.02c-0.08-0.05-1.77-1.56-2.63-2.51c-0.73-0.86-1.43-1.76-1.82-2.57
		c-0.09-0.17-0.14-0.36-0.22-0.5l0.01-0.01c-0.03-0.03-0.05-0.05-0.07-0.08c0,0-0.01,0-0.01-0.01c0,0,0,0,0,0
		c-1.06-1.11-2.09-2.13-3.49-3.09c-1.44-0.99-3.18-1.84-5.56-2.58c0,0-2.68-0.54-5.52-0.74c-2.48-0.2-4.96-0.4-7.05-1.19l0,0
		c-0.07-0.02-0.13-0.04-0.17-0.03c-0.24,0.05-0.35,0.11-0.39,0.22c-0.04,0.11-0.07,0.1-0.03,0.31c0.28,1.57,0.9,2.92,1.75,4.18
		c-1.68,0.86-3.14,1.79-4.38,2.73c-1.39,1.09-2.48,2.19-3.42,3.38c-0.2,0.25-0.05,0.64,0.3,0.69c2.38,0.45,4.72,0.65,7.1,0.54
		c2.26-0.09,4.53-0.42,6.95-0.92c0.09,0.06,1.29,0.82,1.84,1.12c2.67,1.41,5.66,2.15,8.78,2.14v0.01c0,0,2.79-0.16,3.88-0.26
		c1.09-0.1,3.29-0.26,3.32-0.27c0.05,0.02,2.21,1.49,2.69,1.77c0.91,5.12,3.52,8.96,5.32,11.06c0.45,0.55,0.84,0.94,1.14,1.24
		c0.29,0.3,0.49,0.5,0.6,0.55c1.14,0.9,2.28,1.94,3.47,3.18c1.18,1.23,2.31,2.65,3.54,4.12l0,0c0.35,0.69,0.69,1.44,1.04,2.23
		c0.39,0.79,0.73,1.57,1.07,2.21c-0.23,1.07-0.41,2.13-0.53,3.16c-0.2,1.7-0.23,3.37-0.15,4.99c-0.43-0.48-0.86-0.97-1.29-1.46
		c-0.94-1.05-1.94-2.14-2.83-3.23c-0.25-0.25-0.65-0.2-0.8,0.1c-1.54,4.47-1.84,8.34-1.24,11.72c0.6,3.38,2.14,6.31,4.22,8.79
		c0,0,1.64,1.39,2.48,2.08c0.84,0.7,1.72,1.4,2.56,2.14c-0.64,1-1.2,2.04-1.67,3.13c-0.4,0.9-0.74,1.89-1.04,2.88
		c-0.15,0.61-0.29,1.21-0.41,1.82c-0.27-0.56-0.57-1.12-0.93-1.66c-0.59-1.05-1.34-1.99-2.23-2.98c-0.2-0.25-0.65-0.15-0.74,0.15
		c-0.65,2.23-1.44,4.32-2.39,6.31c-0.15,0.4-0.35,0.74-0.55,1.14c-0.14,0.34-0.54,1.04-0.54,1.04c-1.79,2.53-2.98,4.96-3.77,7.2
		c-0.8,2.28-1.09,4.47-1.05,6.5c-0.27,0.1-0.53,0.2-0.79,0.3c-4.37,1.84-7.85,4.57-10.53,8.25c-0.94,1.49-1.94,2.68-3.18,3.52
		c-1.05,0.65-2.23,1.08-3.62,1.28c2.61-2.86,4.39-6.42,5.61-10.32c0.1-0.35-0.24-0.7-0.6-0.54c-1.14,0.49-2.28,0.84-3.48,1.14
		c-1.24,0.24-2.43,0.4-3.73,0.5H87.3l0.07,0.3l0.01,0.12l-0.07-0.43c-2.93,0.45-5.76,1.24-8.25,2.53c-1.37,0.71-2.65,1.59-3.82,2.64
		c-0.91-0.98-2.29-1.77-4.08-2.39c-1.94-0.69-7.25-1.49-7.25-1.49c-1.54-0.1-3.08-0.25-4.62-0.5c-1.54-0.2-3.08-0.5-4.62-0.89
		c-0.35-0.05-0.64,0.3-0.49,0.64c1.44,2.93,3.73,5.17,6.46,7.05c1.01,0.68,2.08,1.31,3.2,1.9c-0.31-0.09-0.6-0.17-0.92-0.26
		c-2.51-0.74-5.02-1.58-7.49-2.46c-4.44-4.03-8.93-7.08-13.52-8.96c-0.33-0.14-0.66-0.25-0.99-0.38c0.03-2.02-0.16-4.05-0.7-6.17
		c-0.6-2.19-1.59-4.47-3.18-6.8c0,0-1.84-2.39-2.68-3.73c-0.85-1.39-1.64-2.88-2.28-4.57c-0.15-0.3-0.65-0.35-0.8-0.05
		c-0.75,1.33-1.29,2.75-1.62,4.28c-1.17-3.04-2.9-5.88-5.19-8.51c3.87-3.6,6.57-7.49,7.95-11.57c1.44-4.18,1.54-8.6,0.3-13.26
		c-0.05-0.3-0.4-0.4-0.6-0.3c-1.09,0.5-2.09,1.19-3.03,2.03c-0.7,0.63-1.37,1.36-1.99,2.19c-0.07-1.04-0.2-2.1-0.34-3.17
		c-0.1-0.7-0.25-2.04-0.25-2.04c-0.22-0.85-0.44-1.64-0.65-2.38c0.44-0.59,0.67-1.05,0.85-1.49c0.2-0.45,0.9-1.65,0.92-1.71
		c3.91-2.48,7.53-6.15,10.15-10.16c0.5-0.79,0.99-1.59,1.44-2.39c0.45-0.84,0.84-1.64,1.19-2.43c0,0,1.31-4.3,1.61-6.1
		c0.67-0.38,1.34-0.72,2.01-1c0.69-0.35,1.43-0.69,2.16-1.13c1.07,0.07,2.06,0.03,3.1-0.01c1.04-0.05,2.04-0.1,3.13-0.05
		c2.33,0.1,4.57-0.1,6.65-0.7c2.09-0.54,4.02-1.49,5.81-2.98c1.74-1.54,3.13-3.08,4.17-4.67c0.99-1.64,1.64-3.38,1.79-5.37
		c0.05-0.3-0.3-0.55-0.6-0.45c-2.73,1.09-5.66,1.74-8.59,2.38c-0.99,0.2-2.04,0.45-3.08,0.7l0,0.01c-3.55,0.7-6.12,2.13-8.15,3.96
		c-2.01,1.86-3.49,4.06-4.76,6.46c-0.67,0.37-1.33,0.71-2.04,1.04c-0.47,0.2-0.95,0.43-1.44,0.68c0.07-0.47,0.14-0.95,0.2-1.42
		c0.1-0.8,0.25-1.69,0.35-2.49c0.1-0.35-0.3-0.6-0.6-0.44c-3.33,1.44-5.21,3.03-7.45,4.91c-0.65,0.55-2.25,1.88-2.25,1.88l0.01,0.01
		c-5.5,5.26-5.61,12.88-5.66,18.27v1.22c-0.51,0.64-0.71,1.15-0.94,1.61c-0.08,0.24-0.18,0.48-0.33,0.75
		c-0.27-0.88-0.54-1.7-0.81-2.49c-0.65-1.69-1.29-3.23-2.14-4.87c-0.15-0.29-0.6-0.35-0.75-0.05c-1.79,2.88-2.63,5.27-3.58,8
		c-0.35,0.89-1.09,2.93-1.09,2.93c-1.99,7.55,1.39,14.8,3.72,19.81c0.12,0.32,0.27,0.63,0.35,0.79v1.3c0,0.23,0,0.44-0.02,0.9
		c-0.51-0.45-1.03-0.89-1.56-1.3c-0.85-0.65-1.74-1.29-2.68-1.94c-0.3-0.2-0.65,0-0.7,0.35c-0.25,5.06,0.2,9.53,1.44,13.26
		c1.29,3.72,3.42,6.71,6.51,8.84c2.43,1.69,4.47,3.57,6.11,5.66c0.3,0.45,0.6,0.84,0.9,1.29c0.05,0.08,0.11,0.17,0.16,0.26
		c0.05,0.14,0.09,0.28,0.14,0.42c-1.32-0.05-2.64-0.02-3.99,0.11c-0.35,0-0.54,0.45-0.3,0.75c1.14,1.19,2.23,2.53,3.38,4.02
		c1.14,1.49,3.38,4.77,3.38,4.77c2.58,3.03,5.66,4.77,9.09,5.56c3.39,0.74,7.12,0.6,11.05-0.08l12.4,3.38
		c-2.48,1.33-5.45,2.37-8.9,3.16c-0.15,0.05-0.3,0.3-0.3,0.45c0,0.35,0,0.74,0.15,1.09c0.1,0.39,0.35,0.79,0.75,1.19
		c0.05,0.05,0.3,0.15,0.35,0.15c1.64-0.3,3.23-0.65,4.82-1.14c1.64-0.45,4.92-1.79,4.92-1.79c0.89-0.5,2.19-0.55,3.77-0.6
		c0.8-0.05,1.64-0.1,2.64-0.2c0.71-0.08,1.4-0.18,2.07-0.3c0.05,0.05,4.78,1.54,7.17,2.04c2.33,0.54,4.72,0.89,7.2,0.99
		c0.1,0,0.29-0.11,0.35-0.2c0.4-0.54,0.6-1.14,0.65-1.69c0.05-0.6-0.05-1.14-0.35-1.74c-0.05-0.1-0.25-0.2-0.35-0.24
		c-1.44-0.15-2.93-0.3-4.42-0.55c-1.25-0.2-2.46-0.46-3.67-0.77c1.73-0.86,3.26-1.9,4.61-3.1c0.75,0,1.37-0.05,1.99-0.1
		c0.67-0.05,1.34-0.1,2.02-0.15c4.01,0.74,7.77,0.79,11.24-0.05c3.48-0.85,6.65-2.53,9.54-5.17c2.73-2.53,4.82-4.72,6.26-6.6
		c1.49-1.89,2.33-3.42,2.73-4.72c0.05-0.3-0.2-0.6-0.54-0.55c-0.82,0.18-1.64,0.31-2.45,0.43c0.65-1.05,1.2-2.16,1.63-3.32
		c2.13-0.84,4.21-1.84,6.24-4.07c1.99-2.18,5.54-10.33,5.86-11.32c0.32-1,0.94-6.16,1.09-9.34c0.05-0.64,0.05-1.24,0.05-1.84
		C133.64,78.82,133.64,78.27,133.59,77.77z M76.87,28.41c-2.04,0.09-4.07-0.08-6.14-0.42c0.78-0.9,1.67-1.75,2.76-2.6
		c1.23-0.91,2.68-1.82,4.37-2.69c0.07,0.08,1.12,1.32,1.63,1.85c-1.95,0.47-5.5,1.83-5.5,1.83c-0.25,0.1-0.35,0.35-0.25,0.6
		c0.05,0.2,0.35,0.35,0.55,0.25c0,0,4.51-1.75,5.95-1.92c0.71,0.7,2.58,2.31,2.7,2.4C80.86,28.1,78.85,28.36,76.87,28.41z
		 M98.33,30.49c-1.14,0.1-2.28,0.2-3.28,0.25c-3.23,0.1-6.21-0.6-8.89-2.04c-0.55-0.25-5.3-3.16-7.45-6.3
		c-0.06-0.08-0.25-0.29-0.57-0.77c-0.32-0.5-1.09-1.32-1.54-3.29c2.04,0.64,4.29,0.86,6.53,1.03c1.84,0.15,3.47,0.16,5.36,0.7
		c1.89,0.53,3.98,1.54,5.32,2.48c1.31,0.87,2.34,1.89,3.36,2.96c0.36,0.98,1.18,2.13,2.1,3.15c0.54,0.61,1.12,1.17,1.62,1.65
		C100.02,30.38,99.16,30.45,98.33,30.49z M115.56,48.32c-1.18-1.23-3.58-3.28-3.58-3.28c-0.05-0.05-1.19-1.14-1.64-1.64
		c-2.12-2.55-5.57-7.75-5.39-14.71c0.33,0.16,0.67,0.34,1.06,0.56c0.6,0.29,1.29,0.69,1.99,1.14c3.61,2.27,7.95,5.93,9.46,10.18
		l-0.03,0.01c1.14,5.46,1.09,7.35,1.05,9.68v0.89c0,0.16,0.05,0.42,0.13,0.74C117.6,50.6,116.58,49.38,115.56,48.32z M51,25.87
		c1.94-1.74,4.42-3.08,7.79-3.77c1.04-0.25,2.04-0.44,3.08-0.69c2.73-0.59,5.42-1.19,8.02-2.13c-0.25,1.51-0.75,2.92-1.57,4.21
		c-0.99,1.54-2.34,3.03-4.02,4.52c-1.64,1.34-3.48,2.24-5.46,2.78c-1.99,0.55-4.12,0.74-6.36,0.69c-1.14-0.1-2.18-0.05-3.23,0
		c-0.82,0.04-1.65,0.08-2.49,0.04C47.95,29.42,49.25,27.49,51,25.87z M27.7,54.13c0.05-5.31,0.1-12.81,5.56-17.83
		c0.75-0.6,1.39-1.14,2.04-1.64c2.01-1.74,3.74-3.18,6.48-4.48c-0.08,0.6-0.15,1.15-0.22,1.7c-0.35,2.53-0.7,5.01-1.99,8.39
		c-0.3,0.8-0.7,1.54-1.14,2.33c-0.4,0.8-0.89,1.59-1.39,2.33c-2.45,3.72-5.75,7.16-9.34,9.53C27.7,54.37,27.7,54.25,27.7,54.13z
		 M61.13,122.27c-2.37-1.61-4.37-3.51-5.73-5.9c1.26,0.29,2.51,0.54,3.79,0.74c1.52,0.24,3.04,0.39,4.62,0.49v0
		c2.78,0.3,5.17,0.75,7.05,1.39c1.66,0.58,2.92,1.33,3.73,2.21c-0.64,0.65-1.25,1.35-1.81,2.13c-0.9-0.39-1.8-0.76-2.7-1.12
		c-0.32-0.63-0.85-1.32-1.46-1.93c-0.1-0.15-0.73-0.86-0.83-0.86c-0.19-0.12-0.42-0.07-0.61,0.07c-0.13,0.17-0.1,0.42,0.01,0.58
		l0,0.01c0,0,1.25,1.3,1.45,1.55c-0.73-0.29-1.46-0.58-2.19-0.88c-0.53-1.09-1.15-1.9-1.75-2.35c-0.15-0.1-0.3-0.2-0.45-0.25
		c-0.15-0.1-0.3-0.15-0.45-0.15c-0.25-0.05-0.45,0.15-0.5,0.4c-0.05,0.2,0.5,0.49,0.6,0.54c0.1,0.05,0.92,0.78,1.25,1.28
		c-1.83-0.75-3.71-1.52-5.72-2.32c-0.24-0.1-0.49,0-0.6,0.24c-0.1,0.2,0.05,0.5,0.25,0.55c1.81,0.75,3.75,1.55,5.75,2.35
		c-0.13,0.01-0.25,0.02-0.39,0.03c-0.54,0.05-1.14,0-1.78-0.05c-0.25,0-0.45,0.15-0.45,0.4c-0.05,0.25,0.15,0.45,0.4,0.5
		c0.65,0.05,1.29,0.05,1.89,0.05c0.63-0.05,1.26-0.15,1.8-0.34c0.8,0.32,1.62,0.65,2.44,0.97c-0.29,0.1-0.6,0.19-0.91,0.26
		c-0.65,0.1-1.34,0.2-1.99,0.25c-0.25,0-0.44,0.2-0.4,0.45c0,0.25,0.2,0.45,0.45,0.45c0.7-0.05,1.44-0.15,2.14-0.3
		c0.64-0.14,1.24-0.37,1.84-0.63c0.81,0.34,1.63,0.67,2.45,1c-0.53,0.95-1.21,1.82-2.01,2.62c-0.41-0.11-0.82-0.22-1.23-0.33
		C66.19,125.2,63.49,123.89,61.13,122.27z M27.16,67.84c0.02-0.02,0.03-0.03,0.05-0.05c0.75-1.19,1.59-2.14,2.43-2.93
		c0.75-0.67,1.54-1.19,2.36-1.64c1.04,4.31,0.91,8.35-0.38,12.22c-1.38,3.98-3.97,7.72-7.74,11.22c-0.25-0.28-0.52-0.55-0.78-0.83
		c0.68-1.11,1.35-2.29,2-3.53c0.01,0,0.01,0,0.01,0c0.54-0.35,0.54-0.35,0.6-0.35c0.65-0.45,1.34-0.85,1.99-1.24
		c0.2-0.15,0.25-0.4,0.15-0.6c-0.15-0.19-0.4-0.3-0.6-0.15c-0.5,0.3-0.94,0.57-1.38,0.84c0.45-0.9,0.88-1.83,1.31-2.8
		c0.44-0.34,0.87-0.63,1.26-0.87c0.45-0.2,0.84-0.4,1.24-0.49c0.25-0.05,0.4-0.3,0.35-0.5c-0.05-0.25-0.3-0.4-0.55-0.35
		c-0.49,0.15-0.94,0.3-1.44,0.6c-0.07,0.03-0.15,0.09-0.22,0.13c0.29-0.68,0.57-1.39,0.84-2.1c0-0.01,0.02-0.01,0.02-0.02
		c0.25-0.29,0.54-0.54,0.94-0.84c0.45-0.25,0.89-0.5,1.44-0.74c0.25-0.1,0.3-0.4,0.2-0.6c-0.1-0.25-0.35-0.3-0.55-0.2
		c-0.56,0.24-1.04,0.51-1.47,0.8c0.24-0.71,0.47-1.42,0.69-2.12c0.03-0.02,0.06-0.04,0.09-0.08c0.25-0.3,0.5-0.59,0.75-0.8
		c0.3-0.25,0.54-0.45,0.89-0.64c0.2-0.1,0.25-0.35,0.15-0.6c-0.1-0.2-0.35-0.25-0.6-0.15c-0.24,0.14-0.48,0.31-0.71,0.48
		c0.14-0.46,0.28-0.92,0.41-1.37c0.05-0.25-0.1-0.49-0.35-0.54c-0.2-0.1-0.45,0.05-0.55,0.3c-0.25,1.04-0.55,2.04-0.84,2.98
		c-0.35,0.99-0.65,1.94-0.99,2.88c-1.71,4.68-3.7,8.69-5.75,12.03c-0.12-0.12-0.24-0.24-0.36-0.36c-0.03-0.03,0-2.18,0.05-3.02
		c0.73-1.23,1.41-2.78,2.09-4.33c0.44-1.03,1.39-3.03,1.39-3.03C26.81,72.14,27.17,69.99,27.16,67.84z M18.01,61.48L18.01,61.48
		c0.41-0.99,0.76-1.98,1.06-2.88c0.86-2.45,1.64-4.61,3.1-7.12c0.67,1.34,1.21,2.65,1.72,4.04c0.6,1.69,1.19,3.58,1.79,5.86h0.01
		c0.05,0.67,0.15,1.31,0.24,1.94C26.36,67,26.76,70.37,24.87,74c0,0-0.99,2.09-1.44,3.13c-0.57,1.3-1.13,2.55-1.7,3.62
		C21.72,80.72,16.1,68.71,18.01,61.48z M24.72,102.51c-2.93-1.99-4.92-4.82-6.16-8.39c-1.13-3.43-1.58-7.48-1.42-12.11
		c0.67,0.47,1.33,0.95,1.96,1.43c0.84,0.65,1.64,1.34,2.39,1.99c3.77,3.58,6.35,7.55,7.8,11.92c0.01,0.08,0.05,0.14,0.1,0.19
		c-0.09,0.88-0.14,1.79-0.1,2.73c0.07,2.33,0.52,4.86,1.29,7.59C28.98,105.9,27.04,104.1,24.72,102.51z M30.19,100.22
		c-0.09-2.78,0.37-5.24,1.42-7.42c0.6,1.38,1.27,2.64,2.01,3.8c0.84,1.39,1.79,2.63,2.73,3.77c1.49,2.24,2.43,4.42,3.03,6.51
		c0.5,1.97,0.66,3.81,0.64,5.64c-0.81-0.28-1.62-0.52-2.43-0.72c-0.15-0.32-0.28-0.64-0.42-0.96c0.19-0.37-0.03,0.11,0.02,0.01
		c0.5-1.19,0.99-2.44,1.44-3.53c0.1-0.25-0.05-0.5-0.25-0.6c-0.25-0.05-0.5,0.05-0.6,0.25c-0.38,0.98-0.72,1.87-1.09,2.74
		c-0.35-0.86-0.68-1.73-1-2.6c0.2-0.43,0.4-0.84,0.6-1.28c0.3-0.6,0.54-1.24,0.8-1.79c0.1-0.2,0-0.5-0.2-0.55
		c-0.25-0.09-0.5,0-0.6,0.2c-0.25,0.6-0.55,1.19-0.79,1.79c-0.07,0.16-0.15,0.31-0.22,0.47c-0.09-0.27-0.19-0.54-0.28-0.82
		c-0.16-0.48-0.31-0.95-0.45-1.42c0.05-0.05,0.09-0.11,0.1-0.16c0.05-0.4,0.15-0.8,0.29-1.25c0.2-0.4,0.4-0.79,0.7-1.19
		c0.15-0.15,0.15-0.45-0.05-0.6c-0.2-0.15-0.44-0.15-0.59,0.05c-0.4,0.45-0.65,0.95-0.85,1.44c-0.03,0.06-0.04,0.12-0.06,0.18
		c-0.37-1.27-0.7-2.54-0.98-3.81c-0.05-0.25-0.3-0.4-0.5-0.3c-0.25,0.05-0.4,0.25-0.35,0.49c0.29,1.36,0.65,2.72,1.04,4.06
		c-0.51-0.28-1.04-0.63-1.58-1.08c-0.2-0.15-0.45-0.1-0.6,0.1c-0.2,0.15-0.15,0.44,0.05,0.6c0.65,0.54,1.39,1.04,2.08,1.34
		c0.14,0.04,0.27,0.09,0.37,0.14c0.17,0.55,0.35,1.1,0.53,1.65c0.12,0.35,0.24,0.71,0.36,1.06c-0.19-0.1-0.38-0.18-0.56-0.27
		c-0.55-0.3-1.04-0.55-1.59-0.75c-0.25-0.1-0.5,0-0.59,0.2c-0.05,0.25,0.05,0.5,0.24,0.6c0.55,0.2,1.04,0.45,1.54,0.7
		c0.42,0.23,0.85,0.47,1.36,0.66c0.48,1.32,1.01,2.63,1.6,3.94c-1.26-0.27-2.52-0.46-3.8-0.57c-0.17-0.31-0.35-0.61-0.54-0.93
		C30.96,106.38,30.28,103.13,30.19,100.22z M54.13,125.11c-3.87,0.75-7.55,0.89-10.83,0.1c-3.25-0.74-6.17-2.37-8.59-5.21h0.01
		c-1.14-1.64-2.24-3.28-3.38-4.77c-0.95-1.23-1.89-2.39-2.84-3.43c4.5-0.28,8.83,0.47,13.07,2.24c4.52,1.89,8.99,4.87,13.36,8.89
		c0.05,0,5.22,1.84,7.75,2.59c1.98,0.58,3.96,1.13,5.94,1.65c0.27,0.12,0.54,0.22,0.82,0.33c-0.56,0.46-1.16,0.89-1.81,1.29
		L54.13,125.11z M86.91,130.87c1.36,0.24,2.81,0.42,4.22,0.57c0.16,0.36,0.2,0.69,0.2,1.02c-0.04,0.36-0.18,0.7-0.37,1.08
		c-2.31-0.11-4.57-0.45-6.83-0.93c-1.92-0.42-3.84-0.94-5.75-1.54c1.38-0.34,2.66-0.76,3.86-1.27c0.05,0.07,0.12,0.14,0.2,0.18
		C83.93,130.32,85.41,130.62,86.91,130.87z M87.7,125.2c-3.13,2.98-7.4,5.02-13.07,5.66c-0.89,0.1-1.79,0.1-2.58,0.15
		c-1.69,0.05-3.03,0.15-4.17,0.75l0.01,0.01c-1.58,0.64-3.15,1.23-4.73,1.68c-1.47,0.42-2.97,0.8-4.48,1.05
		c-0.17-0.23-0.31-0.46-0.34-0.65c-0.06-0.18-0.09-0.33-0.12-0.49c3.66-0.88,6.81-2.04,9.36-3.53c2.5-1.46,4.4-3.28,5.61-5.5
		c0.12-0.04,0.22-0.13,0.25-0.26c0.03-0.06,0.03-0.14,0.03-0.21c1.67-2.25,3.7-3.94,6.03-5.15c2.38-1.24,5.07-1.98,7.95-2.43l0,0
		c1.32-0.05,2.55-0.2,3.77-0.5c0.98-0.22,1.89-0.52,2.79-0.86C92.66,118.92,90.66,122.47,87.7,125.2z M120.88,60.74
		c0.24-2.14,0.74-4.32,1.58-6.61l2.68-6.28c3.04,5.23,4.73,10.24,4.92,14.92c0.23,4.64-0.99,8.96-3.75,13.02
		c-0.13-0.4-0.26-0.8-0.42-1.19c-0.89-2.38-2.28-4.75-4.4-7.08l0.03-0.02c-0.22-0.25-0.44-0.5-0.66-0.75
		C120.63,64.81,120.64,62.82,120.88,60.74z M120.97,82.94c-0.78-0.64-1.57-1.28-2.35-1.96c-2.03-2.38-3.46-5.15-4.06-8.37
		c-0.51-3.08-0.27-6.57,1-10.53c0.76,0.9,1.56,1.79,2.38,2.69c0.71,0.78,1.4,1.57,2.08,2.36c0.04,0.08,0.1,0.14,0.16,0.18
		c0.21,0.25,0.42,0.49,0.64,0.73v0.05c2.03,2.23,3.38,4.52,4.27,6.86c0.81,2.2,1.25,4.44,1.41,6.68c-0.44,0.39-0.85,0.81-1.24,1.22
		c-0.69-1.1-1.36-2.2-2-3.3c0.25-0.65,0.44-1.72,0.53-3.02c0-0.35,0.1-1.88,0.1-1.93c0-0.25-0.2-0.45-0.45-0.45
		c-0.24,0-0.44,0.2-0.44,0.45c0,0-0.05,1.59-0.1,1.84c-0.06,0.79-0.15,1.48-0.26,2.02c-0.56-0.99-1.88-3.48-2.01-3.74
		c0.16-0.43,0.3-1.04,0.39-1.76c0.15-0.84,0.25-1.84,0.29-2.78c0-0.2-0.15-0.45-0.4-0.45c-0.25,0-0.45,0.15-0.5,0.4
		c-0.05,0.94-0.15,1.89-0.25,2.73c-0.05,0.23-0.09,0.46-0.13,0.66c-0.95-1.98-1.83-3.96-2.65-5.98c-0.1-0.25-0.35-0.35-0.59-0.25
		c-0.2,0.1-0.3,0.35-0.2,0.55c0.84,2.1,1.74,4.16,2.74,6.21c-0.31-0.13-0.62-0.29-0.96-0.49c-0.6-0.35-1.24-0.85-1.88-1.34
		c-0.2-0.15-0.45-0.15-0.6,0.05c-0.15,0.2-0.15,0.45,0.05,0.6c0.64,0.54,1.34,1.04,1.99,1.49c0.65,0.37,1.31,0.65,1.96,0.81
		c0.12,0.24,1.33,2.59,1.84,3.5c-0.36-0.17-2.57-1.39-3.31-1.93c-0.2-0.1-0.45-0.05-0.6,0.15c-0.15,0.2-0.1,0.45,0.1,0.6
		c0.8,0.54,3.77,2.16,4.54,2.49c0.69,1.19,1.42,2.37,2.18,3.55c-0.41,0.48-0.8,0.97-1.16,1.48
		C122.68,84.33,121.83,83.62,120.97,82.94z M120.65,109.8c-0.4,1.06-1.17,2.32-2.31,3.79c-1.44,1.79-3.43,3.93-6.16,6.46
		c-2.73,2.53-5.81,4.17-9.14,4.96c-3.38,0.8-7,0.75-10.93,0c0,0,0.94-0.53,1.49-0.89c1.39-0.94,2.49-2.23,3.48-3.77l-0.03-0.02
		c2.58-3.51,5.95-6.14,10.16-7.87c0.8-0.35,1.64-0.65,2.53-0.95c0.85-0.24,1.79-0.5,2.73-0.69
		C112.48,110.8,118.2,110.25,120.65,109.8z M117.7,109.26c-0.03,0.04-0.05,0.09-0.06,0.13c-1.26,0.16-2.51,0.28-3.75,0.37
		c0.17-0.38,0.34-0.77,0.49-1.15c0.25-0.65,0.8-2.15,0.82-2.23c0.52-0.18,1.06-0.53,1.56-0.95c0.6-0.5,1.19-1.09,1.79-1.74
		c0.15-0.15,0.15-0.44-0.05-0.6c-0.15-0.2-0.45-0.15-0.6,0c-0.54,0.65-1.14,1.19-1.69,1.64c-0.22,0.2-0.44,0.37-0.67,0.5
		c0.32-1.1,0.58-2.23,0.8-3.38c0.32-0.16,0.69-0.41,1.05-0.7c0.45-0.4,0.9-0.84,1.39-1.39c0.15-0.2,0.15-0.44-0.05-0.65
		c-0.15-0.15-0.45-0.15-0.6,0.05c-0.49,0.5-0.95,0.95-1.34,1.29c-0.08,0.08-0.16,0.15-0.24,0.22c0.29-1.7,0.5-3.45,0.63-5.24
		c0-0.25-0.15-0.45-0.39-0.45c-0.25-0.05-0.45,0.15-0.5,0.4c-0.12,1.79-0.32,3.55-0.62,5.27c-0.13-0.14-0.25-0.29-0.37-0.45
		c-0.25-0.45-0.49-0.94-0.74-1.49c-0.05-0.25-0.3-0.35-0.54-0.3c-0.25,0.1-0.35,0.35-0.25,0.6c0.25,0.65,0.5,1.19,0.85,1.69
		c0.24,0.4,0.55,0.72,0.87,0.99c-0.23,1.15-0.5,2.28-0.82,3.38c-0.1-0.15-0.21-0.31-0.3-0.5c-0.3-0.55-0.6-1.24-0.94-2.19
		c-0.1-0.2-0.35-0.35-0.6-0.25c-0.2,0.1-0.35,0.35-0.25,0.54c0.35,0.99,0.7,1.69,0.99,2.29c0.25,0.51,0.51,0.86,0.76,1.18
		c-0.02,0.07-0.81,2.25-0.83,2.31c-0.37-0.5-0.72-1.01-1.02-1.5c-0.05-0.15-0.3-0.65-0.35-0.8c-0.1-0.2-0.35-0.3-0.54-0.25
		c-0.25,0.1-0.35,0.35-0.25,0.6c0.05,0.1,0.3,0.69,0.4,0.84c0.37,0.69,0.83,1.34,1.37,2.01c-0.08,0.16-0.15,0.31-0.22,0.46
		c-0.03,0-4.01,1.02-4.32,1.12c-0.01-1.85,0.29-3.8,1-5.88c0.74-2.19,1.94-4.52,3.68-7c0,0,0.99-1.94,1.14-2.33
		c0.83-1.76,1.55-3.68,2.18-5.65c0.63,0.73,1.17,1.48,1.64,2.27c0.6,0.94,1.1,1.93,1.44,2.88
		C121.47,100.22,120.38,105.24,117.7,109.26z M132.75,81.15c-0.15,3.13-0.7,6.8-1.14,9.23c0,0-3.68,8.8-5.61,10.88
		c-1.71,1.83-3.45,2.79-5.24,3.56c0.89-3.05,0.91-6.38-0.26-9.69c0.01-0.03,0.39-2.12,0.63-3.11c0.3-0.94,0.6-1.89,0.99-2.78
		c1.14-2.62,2.78-4.95,4.99-6.97c0.15-0.03,0.26-0.12,0.3-0.26c1.52-1.34,3.3-2.53,5.36-3.56c0.01,0.29,0.03,0.59,0.03,0.91
		C132.79,79.91,132.75,80.51,132.75,81.15z M22.29,76.43c0.1-1.1,0.13-2.31,0.11-3.58c0.81-0.61,1.32-1.57,1.83-2.58
		c0,0,0.5-1,0.74-1.39c0.15-0.2,0.1-0.5-0.1-0.65c-0.2-0.1-0.49-0.05-0.6,0.15c-0.35,0.45-0.6,0.99-0.84,1.49
		c-0.33,0.66-0.66,1.29-1.06,1.79c-0.04-1.18-0.1-2.42-0.17-3.68c0.76-0.42,1.17-1.15,1.59-1.88c0.25-0.4,0.45-0.85,0.74-1.19
		c0.15-0.15,0.15-0.45-0.05-0.6c-0.2-0.15-0.44-0.15-0.6,0.05c-0.35,0.4-0.6,0.84-0.84,1.29c-0.28,0.49-0.54,0.96-0.9,1.29
		c-0.07-1.05-0.13-2.12-0.18-3.18c0.73-0.6,1.43-2.63,1.68-3.02c0.15-0.2,0.1-0.44-0.05-0.6c-0.2-0.15-0.5-0.1-0.64,0.1
		c-0.35,0.45-0.87,2-1.04,2.28c-0.08-2.23-0.07-4.41,0.14-6.4c0.05-0.25-0.15-0.5-0.4-0.5c-0.25-0.05-0.45,0.15-0.5,0.4
		c-0.19,1.88-0.2,3.89-0.14,5.96c-0.14-0.21-0.75-1.29-0.86-1.44c-0.1-0.2-0.35-0.3-0.59-0.2c-0.2,0.15-0.3,0.4-0.2,0.6
		c0.1,0.16,1.27,2.02,1.7,2.49c0.05,1.06,0.1,2.12,0.16,3.18c-0.7-0.61-1.71-2.14-1.71-2.14c-0.1-0.2-0.35-0.29-0.6-0.2
		c-0.2,0.05-0.35,0.35-0.25,0.54c0.49,1.22,1.69,2.25,2.63,2.99c0.08,1.32,0.15,2.61,0.19,3.84c-0.32-0.34-0.67-0.75-0.97-1.17
		c-0.5-0.65-0.85-1.64-1.05-1.79c-0.2-0.15-0.65,0.1-0.65,0.15c-0.2,0.35,0.3,1.24,0.99,2.19c0.56,0.74,1.25,1.53,1.7,1.87
		c0.01,1.22-0.01,2.38-0.11,3.44c0,0.25,0.15,0.45,0.4,0.5C22.04,76.83,22.24,76.68,22.29,76.43z M27.12,99.82
		c0.14-0.72,0.19-1.45,0.14-2.12c0-0.74-0.05-1.44-0.15-2.19c0-0.25-0.25-0.4-0.49-0.4c-0.2,0.05-0.4,0.25-0.35,0.5
		c0.05,0.7,0.1,1.39,0.15,2.09c0,0.23-0.01,0.46-0.02,0.68c-0.4-0.76-0.81-1.52-1.22-2.27c0.02-1.37-0.25-3.2-0.4-4.52v-0.05
		c-0.05-0.25-0.3-0.4-0.5-0.4c-0.25,0.05-0.44,0.25-0.4,0.5v0.05c0.11,0.78,0.24,1.71,0.32,2.6c-0.04-0.07-0.08-0.15-0.12-0.22
		c-0.31-0.59-0.65-1.19-0.97-1.78c0.01-0.04-0.12-1.45-0.22-2.14c-0.05-0.75-0.15-1.44-0.2-2.14c0-0.25-0.2-0.45-0.45-0.45
		c-0.25,0-0.45,0.25-0.45,0.45v0.05c0.05,0.7,0.15,1.44,0.25,2.19c0,0.03,0,0.06,0.01,0.09c-0.82-1.48-1.65-2.97-2.49-4.46
		c-0.15-0.25-0.4-0.3-0.59-0.2c-0.25,0.15-0.3,0.39-0.2,0.59c0.96,1.69,1.9,3.36,2.82,5.02c-0.16-0.07-0.33-0.14-0.49-0.2
		c-0.64-0.25-1.29-0.5-1.88-0.7c-0.2-0.1-0.44,0-0.55,0.25c-0.1,0.25,0.05,0.5,0.25,0.55c0.6,0.2,1.24,0.5,1.88,0.75
		c0.5,0.21,0.98,0.39,1.47,0.58c0.35,0.65,0.72,1.31,1.07,1.95c0.17,0.32,0.34,0.65,0.52,0.97c-0.29-0.13-0.57-0.27-0.86-0.43
		c-0.75-0.39-1.44-0.74-2.09-0.94c-0.25-0.1-0.5,0.05-0.6,0.25c-0.05,0.25,0.1,0.5,0.29,0.55c0.6,0.2,1.29,0.54,1.99,0.89
		c0.62,0.38,1.28,0.71,1.91,0.91c0.4,0.77,0.8,1.53,1.2,2.29c-0.02-0.01-0.05-0.02-0.07-0.03c-0.99-0.4-1.99-0.95-3.03-1.64
		c-0.2-0.15-0.5-0.1-0.6,0.1c-0.15,0.2-0.1,0.44,0.1,0.59c1.09,0.75,2.14,1.35,3.23,1.79c0.2,0.05,0.4,0.15,0.6,0.2
		c0.12,0.05,0.23,0.1,0.35,0.13c0.4,0.79,0.81,1.57,1.19,2.35c0.1,0.25,0.35,0.3,0.6,0.2c0.2-0.1,0.3-0.35,0.2-0.59
		C27.89,101.32,27.5,100.57,27.12,99.82z M29.94,55.13c-0.25,0.2-0.35,0.5-0.35,0.8s0.1,0.6,0.35,0.8c0.13,0.12,0.29,0.19,0.48,0.24
		c0.1,0.03,0.21,0.06,0.32,0.06c0.12,0,0.22-0.02,0.33-0.06c0.18-0.05,0.35-0.12,0.47-0.24c0.25-0.2,0.35-0.5,0.35-0.8
		s-0.1-0.6-0.35-0.8c-0.2-0.2-0.5-0.35-0.8-0.35C30.44,54.78,30.14,54.93,29.94,55.13z M90.53,117.16c-1.92,1.3-3.83,2.56-5.75,3.77
		c0.05-0.28,0.11-0.56,0.19-0.84c0.15-0.5,0.35-1.04,0.64-1.59c0.15-0.2,0.05-0.45-0.15-0.59c-0.2-0.1-0.49-0.05-0.6,0.2
		c-0.35,0.6-0.6,1.19-0.74,1.79c-0.18,0.55-0.27,1.09-0.29,1.64c-0.73,0.46-1.45,0.91-2.18,1.35c0.09-0.53,0.29-1.17,0.59-1.89
		c0.05-0.2,0.15-0.4,0.29-0.65c0.1-0.25,0.2-0.5,0.35-0.69c0.1-0.25,0-0.5-0.2-0.6c-0.2-0.15-0.49-0.05-0.6,0.15v0.05
		c-0.15,0.25-0.25,0.5-0.35,0.69c-0.1,0.2-0.2,0.45-0.35,0.69c-0.43,1.08-0.67,2.04-0.65,2.79c-0.86,0.51-1.72,1.02-2.57,1.52
		c0.01-0.39,0.06-0.83,0.19-1.33c0.25-0.84,0.65-1.79,1.3-2.93c0.1-0.2,0-0.45-0.2-0.6c-0.2-0.1-0.45-0.05-0.6,0.2
		c-0.65,1.19-1.1,2.19-1.34,3.08c-0.22,0.78-0.28,1.48-0.22,2.08c-0.6,0.35-1.19,0.68-1.78,1.01c0.09-0.49,0.18-0.99,0.31-1.5
		c0.2-0.74,0.5-1.49,0.8-2.28c0.1-0.2,0-0.45-0.2-0.55c-0.25-0.1-0.5,0-0.6,0.2c-0.35,0.84-0.64,1.64-0.84,2.43
		c-0.18,0.73-0.31,1.46-0.42,2.23c-1.13,0.62-2.25,1.22-3.36,1.8c-0.25,0.1-0.3,0.34-0.2,0.59c0.1,0.2,0.35,0.3,0.59,0.15
		c1.16-0.59,2.33-1.21,3.49-1.84c0.72,0.17,1.45,0.31,2.22,0.4c0.8,0.15,1.64,0.2,2.48,0.15c0.25,0,0.45-0.2,0.45-0.44
		c0-0.2-0.2-0.4-0.45-0.4c-0.8,0-1.59-0.05-2.38-0.15c-0.39-0.05-0.78-0.11-1.17-0.19c0.54-0.3,1.08-0.61,1.62-0.92
		c0.7,0.17,1.46,0.26,2.23,0.31c0.8,0.05,1.64,0,2.53-0.05c0.25-0.05,0.4-0.25,0.4-0.5c0-0.25-0.25-0.4-0.44-0.4
		c-0.85,0.1-1.69,0.1-2.49,0.05c-0.36,0-0.73-0.02-1.09-0.07c0.74-0.44,1.49-0.88,2.23-1.34c0.71,0.17,1.49,0.22,2.24,0.26
		c0.85,0.05,1.64,0,2.43,0c0.25,0,0.45-0.2,0.45-0.44c0-0.25-0.2-0.44-0.45-0.44c-0.79,0.05-1.59,0.05-2.38,0
		c-0.4,0-0.78-0.03-1.15-0.07c0.68-0.42,1.37-0.84,2.05-1.27l3.37,0.1c0.25,0,0.45-0.2,0.45-0.45c0-0.25-0.2-0.44-0.4-0.44
		l-2.07-0.06c1.74-1.12,3.49-2.27,5.25-3.47c0.2-0.15,0.25-0.4,0.1-0.6C91.03,117.06,90.73,117.01,90.53,117.16z M122.52,64.96
		c-0.15-0.2-0.45-0.2-0.65-0.1c-0.2,0.15-0.2,0.45-0.04,0.64c0.49,0.7,1.09,1.34,1.63,1.89c0.54,0.54,1.12,0.99,1.74,1.39l0.1,2.53
		c0,0.25,0.2,0.45,0.45,0.4c0.25,0,0.44-0.2,0.4-0.45l-0.1-2.51c0.12-0.11,0.24-0.21,0.34-0.32c0.15-0.15,0.3-0.3,0.5-0.5
		c0.75-0.89,1.54-2.03,2.23-3.37c0.1-0.25,0.05-0.5-0.2-0.6c-0.2-0.15-0.44-0.05-0.54,0.15c-0.69,1.34-2.32,3.41-2.38,3.48
		l-0.15-3.83c0.51-0.48,0.99-1.09,1.38-1.75c0.45-0.75,0.85-1.59,1.19-2.43c0.1-0.25-0.05-0.5-0.25-0.6c-0.25-0.1-0.5,0.05-0.6,0.25
		c-0.29,0.85-0.69,1.64-1.09,2.33c-0.21,0.36-0.44,0.68-0.69,0.97l-0.11-2.99c0.95-0.91,1.37-2.3,1.79-3.74v-0.05
		c0.05-0.2-0.05-0.45-0.3-0.54c-0.25-0.05-0.49,0.1-0.54,0.29v0.05c-0.28,0.95-0.57,1.9-1,2.65l-0.19-4.88
		c-0.05-0.25-0.25-0.45-0.49-0.45c-0.25,0-0.4,0.2-0.4,0.45l0.22,5.4c-0.03-0.01-1.27-0.88-1.86-1.52c-0.15-0.2-0.45-0.2-0.65-0.05
		c-0.15,0.2-0.15,0.45,0,0.65c0.65,0.7,1.34,1.29,1.99,1.64c0.15,0.1,0.51,0.29,0.57,0.3l0.13,3.28c-0.09-0.03-0.18-0.07-0.25-0.1
		c-0.7-0.35-1.39-0.99-2.09-1.83c-0.15-0.16-0.45-0.2-0.6-0.05c-0.2,0.15-0.25,0.45-0.1,0.64c0.8,0.9,1.54,1.64,2.39,2.04
		c0.15,0.05,0.29,0.15,0.49,0.2c0.07,0.02,0.13,0.04,0.2,0.06l0.15,3.68c-0.36-0.28-0.71-0.59-1.04-0.92
		C123.51,66.25,123.01,65.61,122.52,64.96z M130.51,86.96c-0.69,0.65-2.32,1.7-2.33,1.71c0.75-1.74,1.52-3.53,2.33-5.43
		c0.05-0.2-0.05-0.45-0.25-0.54c-0.24-0.1-0.5,0-0.59,0.2c-0.7,1.64-1.44,3.37-2.2,5.16c-0.19-0.74-0.32-1.51-0.38-2.28
		c0-0.2-0.05-1.44-0.05-1.49c0-0.25-0.2-0.45-0.45-0.45c-0.2,0-0.4,0.2-0.4,0.45c0,0.05,0,1.29,0.05,1.54
		c0.09,1.18,0.28,2.37,0.7,3.48c-0.45,1.04-0.9,2.1-1.36,3.16c-0.48-0.81-0.83-1.67-1.03-2.52c-0.05-0.2-0.1-0.45-0.15-0.64
		c0-0.2-0.05-0.45-0.05-0.65c0-0.25-0.25-0.45-0.5-0.45c-0.2,0-0.4,0.24-0.4,0.45v0.05c0,0.25,0.05,0.49,0.1,0.74
		c0,0.2,0.05,0.45,0.1,0.7c0.28,1.12,0.79,2.24,1.51,3.27c-0.24,0.55-1.14,2.63-1.35,3.12c-0.17-0.52-0.33-1.03-0.45-1.53
		c-0.2-0.84-0.35-1.74-0.5-2.58c0-0.25-0.24-0.4-0.49-0.4c-0.2,0.05-0.4,0.25-0.35,0.5c0.1,0.89,0.3,1.79,0.5,2.68
		c0.18,0.86,0.46,1.68,0.8,2.47c-0.35,0.82-0.69,1.63-1.05,2.45c-0.1,0.25,0,0.5,0.25,0.6c0.2,0.1,0.45,0,0.54-0.25
		c0.35-0.8,0.7-1.6,1.05-2.39c0.61-0.33,1.22-0.66,1.88-1.08c0.7-0.45,1.39-0.9,2.13-1.49c0.2-0.1,0.25-0.4,0.1-0.59
		c-0.15-0.2-0.4-0.25-0.6-0.1c-0.75,0.54-1.44,1.04-2.09,1.44c-0.3,0.17-0.59,0.34-0.87,0.5c0.19-0.45,1.07-2.5,1.32-3.07
		c0.67-0.28,1.35-0.61,1.98-1.06c0.74-0.5,1.49-1.04,2.24-1.79c0.2-0.15,0.2-0.45,0-0.64c-0.15-0.15-0.45-0.15-0.6,0
		c-0.74,0.69-1.44,1.24-2.08,1.69c-0.34,0.22-0.67,0.41-1,0.58c0.38-0.88,0.77-1.76,1.15-2.65c0.13-0.04,0.74-0.32,0.94-0.42
		c0.84-0.45,1.74-1.09,2.48-1.79c0.2-0.15,0.2-0.45,0.05-0.6C131.01,86.82,130.71,86.82,130.51,86.96z M50.45,30.2
		c0.89-0.32,1.78-0.65,2.67-1c0.58,0.2,1.15,0.38,1.71,0.55c0.65,0.15,1.29,0.3,1.94,0.4c0.25,0,0.5-0.15,0.5-0.4
		c0.05-0.25-0.1-0.45-0.35-0.49c-0.65-0.1-1.29-0.2-1.89-0.35c-0.21-0.07-0.42-0.14-0.64-0.21c0.82-0.34,1.64-0.69,2.45-1.06
		c0.88,0.49,1.8,0.69,2.76,0.87c0.2,0.05,0.4,0.1,0.6,0.15c0.2,0.05,0.45-0.1,0.5-0.35c0.05-0.25-0.1-0.5-0.35-0.55
		c-0.2-0.05-0.4-0.05-0.6-0.1c-0.65-0.14-1.28-0.26-1.88-0.49c0.18-0.09,0.36-0.16,0.54-0.25c0.62-0.31,1.25-0.62,1.86-0.95
		c1.17,0.3,3.6,0.35,3.65,0.35c0.25,0.05,0.45-0.15,0.45-0.4c0-0.25-0.2-0.45-0.4-0.45c-0.1,0-1.7-0.07-2.45-0.17
		c1.58-0.85,3.16-1.75,4.78-2.71c0.2-0.15,0.3-0.4,0.15-0.65c-0.1-0.2-0.4-0.25-0.6-0.15c-1.74,1.06-3.45,2.02-5.14,2.91
		c0.1-0.33,0.23-0.68,0.37-1.03c0.1-0.1,0.15-0.25,0.2-0.35c0.05-0.1,0.1-0.25,0.2-0.35c0.1-0.2,0.05-0.5-0.15-0.6
		c-0.25-0.15-0.5-0.05-0.6,0.15c0,0-0.95,2.11-1.06,2.72c-0.56,0.29-1.11,0.58-1.67,0.86c-0.21,0.1-0.41,0.19-0.62,0.29
		c0.05-0.29,0.1-0.57,0.18-0.84c0.15-0.54,0.35-1.04,0.7-1.49c0.15-0.2,0.1-0.5-0.1-0.65c-0.2-0.15-0.5-0.1-0.65,0.1
		c-0.4,0.6-0.64,1.19-0.79,1.79c-0.12,0.51-0.21,1.02-0.26,1.52c-0.96,0.44-1.92,0.85-2.89,1.25c0.1-0.39,0.21-0.78,0.37-1.18
		c0.2-0.6,0.49-1.24,0.89-1.94c0.1-0.2,0.05-0.45-0.2-0.6c-0.2-0.1-0.45-0.05-0.6,0.2c-0.4,0.69-0.7,1.38-0.94,2.03
		c-0.24,0.66-0.38,1.27-0.52,1.88c-0.8,0.31-1.6,0.62-2.41,0.9c-0.25,0.05-0.35,0.3-0.25,0.55C49.95,30.2,50.2,30.29,50.45,30.2z
		 M34.76,47.08c0.2-0.15,0.25-0.4,0.15-0.6c-0.1-0.24-0.4-0.29-0.6-0.2c-0.45,0.25-0.85,0.5-1.19,0.75
		c-0.37,0.26-0.7,0.46-1.08,0.59c0.45-0.81,0.92-1.7,1.4-2.65c0.88,0.06,1.64-0.42,2.41-0.87c0.4-0.25,0.74-0.5,1.09-0.6
		c0.25-0.1,0.35-0.35,0.3-0.55c-0.1-0.24-0.35-0.35-0.55-0.29c-0.45,0.15-0.89,0.4-1.29,0.69c-0.5,0.29-1,0.59-1.5,0.71
		c0-0.01,0-0.01,0.01-0.02c0.37-0.73,0.75-1.48,1.15-2.24c1.15-0.1,2.87-1.28,3.17-1.48c0.2-0.1,0.25-0.4,0.1-0.6
		c-0.1-0.2-0.4-0.25-0.6-0.15c-0.3,0.2-1.59,1.11-2.16,1.25c1.23-2.32,4.14-6.96,4.19-6.96c0.1-0.2,0.05-0.49-0.15-0.6
		c-0.22-0.14-0.44-0.06-0.59,0.1c-1.46,2.08-2.76,4.31-3.94,6.49c-0.1-0.5-0.24-2.37-0.24-2.47c0.05-0.25-0.1-0.5-0.35-0.54
		c-0.25,0-0.45,0.15-0.5,0.4c-0.05,0.15,0.27,3.11,0.44,3.82c-0.42,0.79-0.82,1.57-1.2,2.33c-0.05-0.1-0.09-0.19-0.13-0.28
		c-0.35-0.75-0.75-1.49-0.55-2.19c0.05-0.25-0.1-0.5-0.35-0.55c-0.2-0.05-0.45,0.1-0.5,0.35c-0.3,0.99,0.15,1.88,0.6,2.78
		c0.15,0.31,0.3,0.61,0.4,0.9c-0.54,1.05-1.05,2.04-1.54,2.93c-0.16-0.55-0.3-1.27-0.4-1.89c0-0.2-0.05-0.4-0.05-0.55
		c0-0.15-0.05-0.24-0.05-0.4v-0.05c0-0.25-0.2-0.45-0.45-0.45c-0.25,0-0.45,0.2-0.4,0.45V45c0.05,0.2,0.05,0.4,0.1,0.54
		c0.14,0.96,0.43,2.19,0.67,2.81c-0.36,0.62-0.72,1.18-1.07,1.66c-0.15,0.15-0.1,0.45,0.1,0.6c0.2,0.15,0.5,0.1,0.6-0.1
		c0.39-0.53,0.8-1.16,1.21-1.85c0.92-0.08,1.47-0.44,2.17-0.88C33.91,47.53,34.26,47.33,34.76,47.08z M111.29,114.28
		c0.15-0.65,0.44-1.24,0.74-1.84c0.15-0.2,0.05-0.45-0.15-0.6c-0.2-0.1-0.5-0.05-0.6,0.2c-0.35,0.64-0.65,1.29-0.85,1.98
		c-0.17,0.58-0.31,1.19-0.34,1.81c-1,0.62-2.01,1.24-3.03,1.83c0.08-0.8,0.22-1.59,0.44-2.35c0.05-0.25,0.3-0.99,0.4-1.24
		c0.1-0.25-0.05-0.5-0.25-0.55c-0.24-0.1-0.49,0-0.6,0.25c-0.04,0.2-0.34,1.09-0.4,1.29c-0.28,1.05-0.43,2.09-0.53,3.13
		c-1.12,0.62-2.25,1.22-3.39,1.81c0.03-0.5,0.11-1,0.25-1.51c0.25-0.7,0.6-1.44,1.1-2.14c0.15-0.2,0.1-0.49-0.1-0.6
		c-0.2-0.15-0.45-0.1-0.6,0.1c-0.55,0.79-0.94,1.59-1.25,2.38c-0.22,0.71-0.32,1.46-0.3,2.22c-1.84,0.92-3.72,1.79-5.66,2.6
		c-0.2,0.1-0.3,0.35-0.2,0.54c0.05,0.25,0.35,0.35,0.55,0.25c0.72-0.29,1.42-0.61,2.12-0.91c0.04,0.03,0.07,0.05,0.11,0.07
		c0.64,0.3,1.29,0.45,1.99,0.55c0.64,0.05,1.34,0.05,1.98-0.05c0.25-0.05,0.45-0.25,0.4-0.5c-0.05-0.25-0.25-0.4-0.49-0.4
		c-0.6,0.1-1.24,0.1-1.84,0.05c-0.34-0.03-0.69-0.12-1.05-0.22c0.89-0.41,1.77-0.84,2.64-1.27c0.71,0.21,1.35,0.35,1.94,0.39
		c0.7,0.1,1.29,0.15,1.89,0.1c0.25,0,0.44-0.2,0.44-0.44c-0.05-0.25-0.24-0.45-0.49-0.45c-0.55,0.05-1.1,0.05-1.69-0.05
		c-0.29-0.04-0.58-0.1-0.87-0.16c1.06-0.56,2.12-1.11,3.16-1.7c0.5,0.14,0.99,0.24,1.49,0.32c0.6,0.05,1.19,0.1,1.79,0.1
		c0.25,0.05,0.45-0.15,0.45-0.4c0-0.25-0.2-0.45-0.45-0.45c-0.6,0-2.01-0.2-2.17-0.23c0.93-0.55,1.84-1.11,2.74-1.67
		c0.48,0.13,0.93,0.21,1.42,0.21c0.49,0.05,1.04,0.05,1.59,0c0.24,0,0.4-0.25,0.4-0.49c-0.05-0.2-0.25-0.4-0.5-0.35
		c-0.5,0.05-1.68-0.04-1.8-0.06c1.55-0.99,3.07-2,4.58-3.03c0.2-0.15,0.25-0.44,0.1-0.64c-0.15-0.2-0.44-0.25-0.64-0.1
		c-1.53,1.07-3.1,2.13-4.7,3.15C111.11,114.92,111.18,114.6,111.29,114.28z M101.11,34.87c0.2-0.2,0.35-0.5,0.35-0.8
		c0-0.3-0.15-0.6-0.35-0.8c-0.2-0.2-0.5-0.35-0.85-0.35c-0.3,0-0.6,0.15-0.8,0.35c-0.2,0.2-0.35,0.45-0.35,0.8
		c0,0.3,0.15,0.6,0.35,0.8c0.2,0.2,0.5,0.3,0.8,0.3C100.61,35.16,100.91,35.06,101.11,34.87z M43.46,95.16
		c0,6.17,2.8,9.32,8.53,9.63c4.77,0,9.71,0,14.6,0.35c3.17,0.22,5.87,1.66,8.11,4.36c1.85-2.46,4.41-3.85,8.29-4.36
		c4.63-0.35,9.35-0.35,13.92-0.35c5.53-0.4,8.23-3.3,8.23-8.88c0-0.24,0-0.49-0.02-0.74c0,0,0-49.65,0-50.84H43.46
		C43.46,45.5,43.46,95.16,43.46,95.16z M82.82,66.4h19.12v-1.88H83.07v-1.34h18.87v-1.89H83.07V59.9h18.87v-1.64H83.07v-1.39h18.87
		v-2.03H83.07v-1.39h18.87V51.2H83.07v-1.34h18.87v-1.99H82.82v-2.08h20.86v22.05H82.82V66.4z M82.77,102.15h12.72
		c2.14,0.15,5.12-1.14,5.12-2.14l-17.83-0.05v-1.19h18.57c0.05-0.2,0.35-1.19,0.35-2.03H82.77v-1.19l18.92-0.05v-2.08H82.77v-1.19
		h18.92l0.05-2.44H82.82v-1.19h18.92v-2.43H82.82v-1.29h18.92v-2.29H82.82v-2.24h20.86v16.59c-0.15,4.02-3.48,6.85-8.2,6.45H82.77
		V102.15z M66.15,103.39h-14.4c-1.29,0.05-2.73-0.5-3.58-1.24h15.99v-2.14H46.83c-0.5-0.4-0.8-0.9-0.9-1.24h18.23v-2.03H45.33
		c-0.15-0.35-0.19-0.9-0.19-1.24h19.02v-2.08H45.14v-1.19h19.02v-2.44H45.14v-1.19h19.02v-2.43H45.14v-1.29h19.02v-2.29H45.14v-2.24
		h21.01V103.39z M45.13,66.4h19.12v-1.88H45.38v-1.34h18.87v-1.89H45.38V59.9h18.87v-1.64H45.38v-1.39h18.87v-2.03H45.38v-1.39
		h18.87V51.2H45.38v-1.34h18.87v-1.99H45.13v-2.08H66v22.05H45.13V66.4z M40.98,44.48c0,0.76,0,50.63,0,50.63
		c0.48,8.4,4.91,12.31,13.62,11.95l12.07,0.35l0.1,0.03c3.72,1.03,6.32,3.08,8,6.23c1.8-3.5,4.51-5.65,8.25-6.26
		c0,0,12.86-0.35,12.87-0.35c6.85-0.1,10.16-3.23,10.43-9.82c0,0,0-0.37,0-1c-0.12,6.01-3.23,9.32-9.33,9.75c0,0-0.02-0.3-0.04-0.61
		c0,0.3,0,0.61,0,0.61c-4.76,0-9.26,0-13.82,0.34c-3.86,0.51-6.23,1.84-7.91,4.44l-0.47,0.7l-0.65-0.82c0,0-0.33-0.48-0.26-0.37
		c-1.97-2.42-4.44-3.75-7.32-3.95C61.65,106,56.74,106,51.96,106c-6.44-0.35-9.71-3.99-9.71-10.84v-51.7
		C41.83,43.79,41.26,44.25,40.98,44.48z"/>
</g>
</svg>
