<?xml version="1.0" encoding="utf-8"?>
<!-- Generator: Adobe Illustrator 16.0.0, SVG Export Plug-In . SVG Version: 6.00 Build 0)  -->
<!DOCTYPE svg PUBLIC "-//W3C//DTD SVG 1.1//EN" "http://www.w3.org/Graphics/SVG/1.1/DTD/svg11.dtd">
<svg version="1.1" id="Layer_1" xmlns="http://www.w3.org/2000/svg" xmlns:xlink="http://www.w3.org/1999/xlink" x="0px" y="0px"
	 width="64.947px" height="66.597px" viewBox="0 0 64.947 66.597" enable-background="new 0 0 64.947 66.597" xml:space="preserve">
<g>
	<path fill="#2CABE1" d="M36.72,15.071c0,0.993-0.35,1.85-1.049,2.565c-0.697,0.717-1.545,1.077-2.537,1.077
		c-1.031,0-1.906-0.351-2.623-1.049s-1.076-1.563-1.076-2.594c0-0.993,0.351-1.85,1.049-2.566s1.545-1.076,2.539-1.076
		c1.066,0,1.949,0.341,2.648,1.021S36.72,14.004,36.72,15.071L36.72,15.071z M35.009,40.543c-2.539,4.783-5.5,7.175-8.885,7.175
		c-1.141,0-2.042-0.368-2.704-1.104c-0.662-0.736-0.993-1.692-0.993-2.87c0.147-1.178,0.386-2.373,0.717-3.587l2.87-10.21
		c0.479-1.693,0.718-2.87,0.718-3.532c0-0.993-0.92-1.49-2.76-1.49l-0.056-1.38c3.532-0.331,7.102-0.883,10.707-1.655l-5.408,20.31
		c0,0.92,0.313,1.379,0.938,1.379c1.104,0,2.354-1.25,3.752-3.752L35.009,40.543L35.009,40.543z"/>
	<path fill="#2CABE1" d="M29.573,0c8.167,0,15.559,3.311,20.913,8.662c5.352,5.352,8.662,12.745,8.662,20.911
		c0,4.518-1.014,8.799-2.826,12.63l-2.131-0.479c1.813-3.662,2.83-7.787,2.83-12.15c0-7.579-3.072-14.441-8.039-19.408
		S37.154,2.126,29.573,2.126c-7.579,0-14.441,3.072-19.408,8.039S2.126,21.994,2.126,29.573c0,7.58,3.072,14.441,8.039,19.408
		s11.829,8.039,19.408,8.039c4.493,0,8.733-1.079,12.477-2.993l0.396,2.178c-3.893,1.885-8.26,2.941-12.874,2.941
		c-8.165,0-15.56-3.311-20.911-8.662S0,37.739,0,29.573s3.311-15.56,8.662-20.911S21.408,0,29.573,0L29.573,0z"/>
	<path fill-rule="evenodd" clip-rule="evenodd" fill="#2CABE1" d="M48.208,64.136l-3.324-18.281l18.129,4.075
		C56.691,53.221,51.689,57.885,48.208,64.136L48.208,64.136z"/>
	<polygon fill-rule="evenodd" clip-rule="evenodd" fill="#2CABE1" points="49.869,55.078 53.894,51.216 64.947,62.734 
		60.923,66.597 49.869,55.078 	"/>
</g>
</svg>
