<?xml version="1.0" encoding="utf-8"?>
<!-- Generator: Adobe Illustrator 16.0.0, SVG Export Plug-In . SVG Version: 6.00 Build 0)  -->
<!DOCTYPE svg PUBLIC "-//W3C//DTD SVG 1.1//EN" "http://www.w3.org/Graphics/SVG/1.1/DTD/svg11.dtd">
<svg version="1.1" id="Layer_1" xmlns="http://www.w3.org/2000/svg" xmlns:xlink="http://www.w3.org/1999/xlink" x="0px" y="0px"
	 width="291.423px" height="50px" viewBox="0 0 291.423 50" enable-background="new 0 0 291.423 50" xml:space="preserve">
<g>
	<polygon fill-rule="evenodd" clip-rule="evenodd" fill="#FFFFFF" points="0,18.753 0,6.789 7.22,6.789 6.892,8.75 2.552,8.75 
		2.552,11.521 6.181,11.521 6.181,13.481 2.589,13.481 2.589,16.682 7.384,16.682 7.384,18.748 0,18.748 0,18.753 	"/>
	<path fill-rule="evenodd" clip-rule="evenodd" fill="#FFFFFF" d="M16.323,18.753l-1.477-4.837c-0.438-1.431-0.729-2.876-1.021-4.32
		c-0.311,1.444-0.657,2.89-1.094,4.32l-1.458,4.837H8.611l3.92-11.996h2.754l3.756,11.996H16.323L16.323,18.753z"/>
	<path fill-rule="evenodd" clip-rule="evenodd" fill="#FFFFFF" d="M27.559,18.753l-1.476-4.837c-0.439-1.431-0.73-2.876-1.023-4.32
		c-0.309,1.444-0.655,2.89-1.093,4.32l-1.457,4.837h-2.665l3.92-11.996h2.754l3.756,11.996H27.559L27.559,18.753z"/>
	<polygon fill-rule="evenodd" clip-rule="evenodd" fill="#FFFFFF" points="38.591,18.753 38.591,13.418 34.948,13.418 
		34.948,18.753 32.412,18.753 32.412,6.789 34.948,6.789 34.948,11.434 38.591,11.434 38.591,6.789 41.18,6.789 41.18,18.753 
		38.591,18.753 	"/>
	<path fill-rule="evenodd" clip-rule="evenodd" fill="#FFFFFF" d="M50.796,18.753l-2.168-4.581
		c-0.709-1.495-1.476-3.182-1.715-3.922c0.094,0.978,0.112,2.391,0.128,3.387l0.073,5.116h-2.462V6.789h2.826l2.425,4.782
		c0.637,1.275,1.132,2.532,1.385,3.392c-0.091-0.928-0.184-2.459-0.201-3.287l-0.052-4.887h2.424v11.964H50.796L50.796,18.753z"/>
	<polygon fill-rule="evenodd" clip-rule="evenodd" fill="#FFFFFF" points="56.926,18.753 56.926,6.789 59.589,6.789 59.589,18.753 
		56.926,18.753 	"/>
	<polygon fill-rule="evenodd" clip-rule="evenodd" fill="#FFFFFF" points="69.51,18.753 65.664,12.504 65.664,18.753 63.055,18.753 
		63.055,6.789 65.664,6.789 65.664,12.243 69.274,6.789 72.411,6.789 68.365,12.33 72.865,18.753 69.51,18.753 	"/>
	<polygon fill-rule="evenodd" clip-rule="evenodd" fill="#FFFFFF" points="80.873,18.753 80.873,13.418 77.229,13.418 
		77.229,18.753 74.691,18.753 74.691,6.789 77.229,6.789 77.229,11.434 80.873,11.434 80.873,6.789 83.461,6.789 83.461,18.753 
		80.873,18.753 	"/>
	<path fill-rule="evenodd" clip-rule="evenodd" fill="#FFFFFF" d="M96.578,12.385c-0.125-0.38-0.635-1.979-0.694-2.41
		c-0.054,0.43-0.604,1.994-0.747,2.41l-1.625,4.302h4.612L96.578,12.385L96.578,12.385z M100.57,18.753h-9.717v-1.829l3.921-10.167
		h2.262l3.918,10.31L100.57,18.753L100.57,18.753z"/>
	<polygon fill-rule="evenodd" clip-rule="evenodd" fill="#FFFFFF" points="109.6,18.753 109.6,13.418 105.955,13.418 
		105.955,18.753 103.419,18.753 103.419,6.789 105.955,6.789 105.955,11.434 109.6,11.434 109.6,6.789 112.191,6.789 
		112.191,18.753 109.6,18.753 	"/>
	<path fill-rule="evenodd" clip-rule="evenodd" fill="#FFFFFF" d="M125.889,18.753l-0.478-6.392
		c-0.051-0.754-0.087-1.357-0.087-1.993c-0.151,0.686-0.256,1.116-0.479,1.842l-2.007,6.542h-2.169l-1.804-6.281
		c-0.162-0.585-0.382-1.427-0.51-2.117c0,0.704-0.036,1.413-0.091,2.149l-0.437,6.249h-2.535l1.18-11.964h3.269l1.654,5.993
		c0.24,0.859,0.334,1.271,0.439,1.893c0.112-0.622,0.256-1.243,0.459-1.947l1.715-5.938h3.243l1.133,11.964H125.889L125.889,18.753
		L125.889,18.753z"/>
	<path fill-rule="evenodd" clip-rule="evenodd" fill="#FFFFFF" d="M138.617,10.007c-0.199-0.604-0.873-1.513-2.221-1.513
		c-0.855,0-1.605,0.412-1.97,1.051c-0.438,0.773-0.635,1.825-0.635,3.269c0,2.066,0.365,3.355,1.129,3.867
		c0.402,0.279,0.912,0.416,1.511,0.416c1.77,0,2.518-1.271,2.518-4.32C138.949,11.557,138.837,10.68,138.617,10.007L138.617,10.007z
		 M139.056,18.392c-0.766,0.394-1.477,0.549-2.533,0.549c-1.912,0-3.154-0.498-4.119-1.688c-0.969-1.17-1.457-2.684-1.457-4.438
		c0-2.583,1.035-4.645,2.861-5.596c0.744-0.375,1.676-0.581,2.623-0.581c3.371,0,5.451,2.322,5.451,6.071
		C141.882,15.411,140.898,17.445,139.056,18.392L139.056,18.392z"/>
	<polygon fill-rule="evenodd" clip-rule="evenodd" fill="#FFFFFF" points="151.261,18.753 147.412,12.504 147.412,18.753 
		144.802,18.753 144.802,6.789 147.412,6.789 147.412,12.243 151.023,6.789 154.156,6.789 150.109,12.33 154.613,18.753 
		151.261,18.753 	"/>
	<path fill-rule="evenodd" clip-rule="evenodd" fill="#FFFFFF" d="M160.619,8.732h-1.623v3.653h1.332
		c1.037,0,1.348-0.124,1.695-0.622c0.215-0.329,0.311-0.672,0.311-1.239C162.333,9.404,161.693,8.732,160.619,8.732L160.619,8.732z
		 M162.933,13.948c-0.586,0.261-1.135,0.397-2.537,0.397h-1.404v4.407h-2.551V6.789h3.338c2.148,0,2.807,0.206,3.52,0.585
		c1.184,0.617,1.82,1.724,1.82,3.1C165.119,12.056,164.318,13.331,162.933,13.948L162.933,13.948z"/>
	<path fill-rule="evenodd" clip-rule="evenodd" fill="#FFFFFF" d="M171.486,11.507c-0.127-0.553-0.512-2.117-0.512-2.117
		s-0.361,1.408-0.6,2.304c-0.236,0.864-0.402,1.431-0.672,2.222h2.475C172.177,13.916,171.761,12.659,171.486,11.507L171.486,11.507
		z M173.695,18.753l-0.896-2.844h-3.717l-0.896,2.844h-2.66l4.16-11.996h2.748l3.994,11.996H173.695L173.695,18.753z"/>
	<polygon fill-rule="evenodd" clip-rule="evenodd" fill="#FFFFFF" points="185,8.787 181.978,8.787 181.978,18.753 179.386,18.753 
		179.386,8.787 176.287,8.787 176.287,6.789 185.421,6.789 185,8.787 	"/>
	<polygon fill-rule="evenodd" clip-rule="evenodd" fill="#FFFFFF" points="187.25,18.753 187.25,6.789 189.91,6.789 189.91,18.753 
		187.25,18.753 	"/>
	<path fill-rule="evenodd" clip-rule="evenodd" fill="#FFFFFF" d="M197.916,11.507c-0.125-0.553-0.508-2.117-0.508-2.117
		s-0.365,1.408-0.604,2.304c-0.238,0.864-0.402,1.431-0.678,2.222h2.479C198.609,13.916,198.189,12.659,197.916,11.507
		L197.916,11.507z M200.123,18.753l-0.896-2.844h-3.711l-0.896,2.844h-2.666l4.156-11.996h2.758l3.99,11.996H200.123L200.123,18.753
		z"/>
	<polygon fill="#FFFFFF" points="9.632,27.371 5.67,34.667 5.67,39.773 4.146,39.773 4.146,34.822 0,27.371 1.92,27.371 
		4.892,33.24 7.833,27.371 9.632,27.371 	"/>
	<path fill="#FFFFFF" d="M18.489,39.787c-0.366,0.105-0.671,0.156-0.914,0.156c-0.447,0-0.804-0.16-1.068-0.477
		c-0.264-0.32-0.396-0.727-0.396-1.229c-0.03-0.193-0.045-1.016-0.045-2.469v-3.672h-3.643v7.676h-1.357v-7.676H10V30.74h8.489
		v1.357h-1.067v5.482c0,0.576,0.158,0.914,0.472,1h0.595V39.787L18.489,39.787z"/>
	<path fill="#FFFFFF" d="M27.848,35.23c0,1.416-0.321,2.559-0.961,3.418c-0.691,0.934-1.661,1.395-2.911,1.395
		c-1.25,0-2.22-0.461-2.911-1.395c-0.65-0.859-0.975-2.002-0.975-3.418c0-1.387,0.33-2.512,0.99-3.385
		c0.712-0.918,1.677-1.379,2.896-1.379c1.219,0,2.179,0.461,2.881,1.379C27.518,32.718,27.848,33.843,27.848,35.23L27.848,35.23z
		 M26.445,35.23c0-0.965-0.192-1.752-0.579-2.365c-0.437-0.703-1.067-1.055-1.89-1.055c-0.742,0-1.351,0.375-1.829,1.123
		c-0.437,0.668-0.656,1.436-0.656,2.297c0,0.863,0.22,1.635,0.656,2.313c0.478,0.771,1.087,1.156,1.829,1.156
		c0.813,0,1.443-0.361,1.89-1.088C26.252,36.976,26.445,36.185,26.445,35.23L26.445,35.23z"/>
	<path fill="#FFFFFF" d="M36.658,35.289c0,1.633-0.183,2.762-0.549,3.396c-0.49,0.836-1.432,1.258-2.827,1.258
		c-2.23,0-3.346-0.979-3.346-2.936c-0.031-0.443-0.045-0.941-0.045-1.494V30.74h1.356v4.525c0,1.098,0.102,1.885,0.308,2.346
		c0.297,0.695,0.876,1.037,1.735,1.037c1.342,0,2.012-0.836,2.012-2.518V30.74h1.356V35.289L36.658,35.289z"/>
	<path fill="#FFFFFF" d="M46.794,35.179c0,1.701-0.411,2.971-1.234,3.813c-0.691,0.703-1.52,1.051-2.484,1.051
		c-1.047,0-1.957-0.43-2.728-1.289v4.609h-1.311v-8.029c0-1.439,0.314-2.592,0.944-3.455c0.683-0.941,1.657-1.412,2.927-1.412
		c0.985,0,1.826,0.342,2.522,1.027c0.696,0.686,1.131,1.582,1.304,2.68C46.773,34.439,46.794,34.771,46.794,35.179L46.794,35.179z
		 M45.408,35.298c0-0.453-0.01-0.732-0.032-0.832c-0.06-0.797-0.311-1.436-0.756-1.926c-0.443-0.488-1.017-0.73-1.721-0.73
		c-0.815,0-1.448,0.355-1.895,1.074c-0.388,0.611-0.582,1.395-0.582,2.346c0,0.963,0.194,1.764,0.58,2.398
		c0.448,0.715,1.087,1.07,1.921,1.07c0.68,0,1.257-0.242,1.729-0.727c0.472-0.49,0.71-1.115,0.71-1.875
		C45.392,35.791,45.408,35.527,45.408,35.298L45.408,35.298z"/>
	<path fill="#FFFFFF" d="M55.863,30.74l-3.094,8.371v4.252h-1.356v-4.252l-2.026-5.275c-0.346-0.92-0.554-1.422-0.625-1.514
		c-0.204-0.283-0.458-0.426-0.763-0.426c-0.143,0-0.243,0-0.305,0v-1.197c0.162-0.078,0.38-0.129,0.656-0.164
		c0.528,0,0.956,0.215,1.28,0.645c0.223,0.297,0.465,0.777,0.719,1.449l1.774,4.57l2.339-6.459H55.863L55.863,30.74z"/>
	<path fill="#FFFFFF" d="M63.912,36.88c0,1.041-0.391,1.855-1.174,2.436c-0.671,0.484-1.498,0.727-2.484,0.727
		c-0.895,0-1.642-0.205-2.24-0.625c-0.711-0.5-1.066-1.221-1.066-2.164c0-0.512,0.137-0.959,0.411-1.344
		c0.202-0.283,0.537-0.59,1.006-0.918c-0.752-0.553-1.128-1.221-1.128-1.988c0-0.842,0.345-1.496,1.036-1.957
		c0.589-0.398,1.285-0.6,2.089-0.6c0.894,0,1.614,0.256,2.163,0.768c0.601,0.545,0.899,1.303,0.899,2.281h-1.221
		c-0.216-1.17-0.821-1.754-1.821-1.754c-0.438,0-0.826,0.104-1.161,0.311c-0.42,0.246-0.629,0.598-0.629,1.041
		c0,0.457,0.194,0.805,0.583,1.043c0.317,0.211,0.696,0.311,1.135,0.311h0.92v1.258h-0.828c-1.399,0-2.099,0.488-2.099,1.459
		c0,1.061,0.704,1.59,2.108,1.59c1.174,0,1.88-0.625,2.127-1.873H63.912L63.912,36.88z"/>
	<path fill="#FFFFFF" d="M68.835,26.57l-2.134,2.945h-0.915l1.54-2.945H68.835L68.835,26.57z M68.21,39.736
		c-0.396,0.139-0.742,0.207-1.036,0.207c-0.661,0-1.113-0.27-1.356-0.818c-0.173-0.375-0.261-0.975-0.261-1.807V30.74h1.358v6.309
		c0,0.49,0.045,0.846,0.139,1.074c0.142,0.33,0.412,0.48,0.801,0.457l0.355-0.014V39.736L68.21,39.736z"/>
	<path fill="#FFFFFF" d="M77.218,35.23c0,1.416-0.32,2.559-0.96,3.418c-0.691,0.934-1.66,1.395-2.911,1.395
		c-1.25,0-2.22-0.461-2.912-1.395c-0.649-0.859-0.975-2.002-0.975-3.418c0-1.387,0.33-2.512,0.992-3.385
		c0.709-0.918,1.675-1.379,2.895-1.379c1.219,0,2.18,0.461,2.882,1.379C76.888,32.718,77.218,33.843,77.218,35.23L77.218,35.23z
		 M75.816,35.23c0-0.965-0.193-1.752-0.578-2.365c-0.438-0.703-1.067-1.055-1.891-1.055c-0.741,0-1.352,0.375-1.83,1.123
		c-0.437,0.668-0.654,1.436-0.654,2.297c0,0.863,0.218,1.635,0.654,2.313c0.479,0.771,1.089,1.156,1.83,1.156
		c0.813,0,1.443-0.361,1.891-1.088C75.623,36.976,75.816,36.185,75.816,35.23L75.816,35.23z"/>
	<polygon fill="#FFFFFF" points="92.643,39.773 91.149,39.773 91.149,28.916 85.358,28.916 85.358,39.773 83.833,39.773 
		83.833,27.371 92.643,27.371 92.643,39.773 	"/>
	<path fill="#FFFFFF" d="M103.267,39.81c-0.374,0.086-0.608,0.133-0.7,0.133c-0.833,0-1.337-0.453-1.51-1.363
		c-0.589,0.979-1.457,1.463-2.605,1.463c-1.138,0-2.038-0.498-2.697-1.494c-0.591-0.887-0.885-1.984-0.885-3.301
		c0-1.34,0.289-2.445,0.866-3.318c0.65-0.975,1.552-1.463,2.707-1.463c1.084,0,1.947,0.498,2.585,1.498V30.74h1.356v6.99
		c0.01,0.604,0.258,0.904,0.744,0.904l0.139-0.035V39.81L103.267,39.81z M101.088,35.23c0-0.906-0.184-1.674-0.549-2.297
		c-0.427-0.734-1.026-1.105-1.799-1.105c-0.782,0-1.401,0.338-1.859,1.02c-0.406,0.627-0.609,1.385-0.609,2.281
		c0,0.996,0.188,1.814,0.563,2.451c0.448,0.758,1.093,1.137,1.936,1.137c0.794,0,1.393-0.379,1.799-1.137
		C100.916,36.953,101.088,36.171,101.088,35.23L101.088,35.23z"/>
	<path fill="#FFFFFF" d="M107.491,39.736c-0.396,0.139-0.742,0.207-1.037,0.207c-0.66,0-1.112-0.27-1.356-0.818
		c-0.172-0.375-0.259-0.975-0.259-1.807V30.74h1.357v6.309c0,0.49,0.046,0.846,0.139,1.074c0.143,0.33,0.411,0.48,0.801,0.457
		l0.355-0.014V39.736L107.491,39.736z"/>
	<path fill="#FFFFFF" d="M116.574,35.486c0,1.283-0.385,2.363-1.147,3.24c-0.769,0.879-1.729,1.316-2.876,1.316
		c-1.098,0-2.019-0.43-2.766-1.289c-0.746-0.863-1.12-1.916-1.12-3.154c0-1.303,0.357-2.373,1.074-3.199
		c0.718-0.832,1.659-1.244,2.827-1.244c-0.263-0.229-0.642-0.539-1.138-0.938c-0.071-0.055-0.734-0.563-1.986-1.527v-1.32h6.281
		v1.361h-4.225c1.2,0.883,1.957,1.455,2.272,1.715C115.641,32.025,116.574,33.707,116.574,35.486L116.574,35.486z M115.188,35.466
		c0-1.27-0.523-2.295-1.57-3.076c-0.053-0.014-0.153-0.023-0.304-0.037c-0.307-0.031-0.489-0.051-0.549-0.051
		c-0.823,0-1.481,0.303-1.975,0.902c-0.494,0.604-0.738,1.361-0.738,2.281c0,0.895,0.217,1.645,0.655,2.244
		c0.467,0.658,1.093,0.986,1.875,0.986c0.802,0,1.442-0.318,1.92-0.969C114.959,37.136,115.188,36.376,115.188,35.466
		L115.188,35.466z"/>
	<path fill="#FFFFFF" d="M124.898,36.88c0,1.041-0.393,1.855-1.175,2.436c-0.67,0.484-1.499,0.727-2.482,0.727
		c-0.896,0-1.644-0.205-2.242-0.625c-0.711-0.5-1.067-1.221-1.067-2.164c0-0.512,0.137-0.959,0.411-1.344
		c0.206-0.283,0.54-0.59,1.006-0.918c-0.75-0.553-1.127-1.221-1.127-1.988c0-0.842,0.346-1.496,1.036-1.957
		c0.589-0.398,1.286-0.6,2.089-0.6c0.894,0,1.616,0.256,2.162,0.768c0.602,0.545,0.9,1.303,0.9,2.281h-1.22
		c-0.218-1.17-0.823-1.754-1.824-1.754c-0.435,0-0.823,0.104-1.159,0.311c-0.418,0.246-0.629,0.598-0.629,1.041
		c0,0.457,0.194,0.805,0.583,1.043c0.317,0.211,0.697,0.311,1.136,0.311h0.919v1.258h-0.827c-1.398,0-2.099,0.488-2.099,1.459
		c0,1.061,0.704,1.59,2.107,1.59c1.176,0,1.879-0.625,2.126-1.873H124.898L124.898,36.88z"/>
	<path fill="#FFFFFF" d="M129.822,26.57l-2.135,2.945h-0.914l1.539-2.945H129.822L129.822,26.57z M129.195,39.736
		c-0.395,0.139-0.74,0.207-1.035,0.207c-0.66,0-1.113-0.27-1.357-0.818c-0.172-0.375-0.258-0.975-0.258-1.807V30.74h1.357v6.309
		c0,0.49,0.045,0.846,0.137,1.074c0.143,0.33,0.412,0.48,0.801,0.457l0.355-0.014V39.736L129.195,39.736z"/>
	<path fill="#FFFFFF" d="M138.859,39.81c-0.375,0.086-0.609,0.133-0.701,0.133c-0.832,0-1.338-0.453-1.508-1.363
		c-0.59,0.979-1.457,1.463-2.607,1.463c-1.137,0-2.035-0.498-2.699-1.494c-0.59-0.887-0.881-1.984-0.881-3.301
		c0-1.34,0.287-2.445,0.865-3.318c0.652-0.975,1.553-1.463,2.709-1.463c1.082,0,1.943,0.498,2.582,1.498V30.74h1.359v6.99
		c0.008,0.604,0.256,0.904,0.74,0.904l0.141-0.035V39.81L138.859,39.81z M136.679,35.23c0-0.906-0.184-1.674-0.549-2.297
		c-0.426-0.734-1.023-1.105-1.796-1.105c-0.783,0-1.404,0.338-1.861,1.02c-0.406,0.627-0.607,1.385-0.607,2.281
		c0,0.996,0.188,1.814,0.563,2.451c0.447,0.758,1.092,1.137,1.936,1.137c0.793,0,1.392-0.379,1.798-1.137
		C136.507,36.953,136.679,36.171,136.679,35.23L136.679,35.23z"/>
	<path fill="#FFFFFF" d="M147.347,34.14h-1.371c-0.15-1.553-0.832-2.33-2.043-2.33c-0.732,0-1.322,0.307-1.766,0.918
		c-0.404,0.58-0.611,1.289-0.611,2.127c0,1.316,0.48,2.23,1.436,2.742c0.59,0.191,1.477,0.48,2.664,0.863
		c0.965,0.33,1.449,0.975,1.449,1.926c0,0.703-0.232,1.695-0.703,2.977h-1.295c0.271-0.814,0.436-1.35,0.5-1.602
		c0.096-0.393,0.141-0.73,0.141-1c0-0.627-0.598-1.053-1.787-1.275c-0.307-0.061-0.768-0.143-1.391-0.256
		c-0.826-0.285-1.457-0.824-1.895-1.619c-0.398-0.727-0.596-1.592-0.596-2.602c0-1.279,0.367-2.359,1.098-3.232
		c0.732-0.873,1.664-1.311,2.801-1.311c1.047,0,1.871,0.318,2.469,0.959C147.05,32.07,147.347,32.97,147.347,34.14L147.347,34.14z"
		/>
	<polygon fill="#FFFFFF" points="160.445,39.773 158.794,39.773 155.974,35.06 154.863,36.23 154.863,39.773 153.505,39.773 
		153.505,30.74 154.863,30.74 154.863,34.31 158.261,30.74 160.039,30.74 156.943,34.041 160.445,39.773 	"/>
	<path fill="#FFFFFF" d="M169.814,39.81c-0.375,0.086-0.609,0.133-0.701,0.133c-0.832,0-1.334-0.453-1.508-1.363
		c-0.59,0.979-1.459,1.463-2.605,1.463c-1.139,0-2.039-0.498-2.697-1.494c-0.59-0.887-0.887-1.984-0.887-3.301
		c0-1.34,0.291-2.445,0.867-3.318c0.65-0.975,1.551-1.463,2.707-1.463c1.084,0,1.947,0.498,2.588,1.498V30.74h1.354v6.99
		c0.008,0.604,0.26,0.904,0.744,0.904l0.139-0.035V39.81L169.814,39.81z M167.636,35.23c0-0.906-0.182-1.674-0.549-2.297
		c-0.43-0.734-1.027-1.105-1.801-1.105c-0.781,0-1.398,0.338-1.859,1.02c-0.402,0.627-0.609,1.385-0.609,2.281
		c0,0.996,0.188,1.814,0.563,2.451c0.449,0.758,1.094,1.137,1.939,1.137c0.791,0,1.389-0.379,1.797-1.137
		C167.462,36.953,167.636,36.171,167.636,35.23L167.636,35.23z"/>
	<path fill="#FFFFFF" d="M174.037,39.736c-0.396,0.139-0.74,0.207-1.037,0.207c-0.658,0-1.111-0.27-1.354-0.818
		c-0.174-0.375-0.26-0.975-0.26-1.807V30.74h1.357v6.309c0,0.49,0.045,0.846,0.137,1.074c0.143,0.33,0.412,0.48,0.801,0.457
		l0.355-0.014V39.736L174.037,39.736z"/>
	<path fill="#FFFFFF" d="M190.316,33.566c0,1.9-0.447,3.451-1.338,4.645c-0.957,1.256-2.277,1.887-3.965,1.887
		c-1.686,0-2.998-0.631-3.936-1.887c-0.859-1.18-1.293-2.73-1.293-4.645c0-1.898,0.438-3.439,1.311-4.633
		c0.947-1.279,2.25-1.92,3.918-1.92c1.664,0,2.98,0.637,3.945,1.902C189.865,30.119,190.316,31.667,190.316,33.566L190.316,33.566z
		 M188.744,33.656c0-1.402-0.297-2.582-0.896-3.533c-0.68-1.084-1.627-1.633-2.834-1.633c-1.188,0-2.121,0.535-2.793,1.602
		c-0.584,0.936-0.883,2.098-0.883,3.479s0.299,2.541,0.883,3.482c0.672,1.076,1.605,1.615,2.793,1.615
		c1.176,0,2.113-0.521,2.803-1.564C188.437,36.162,188.744,35.015,188.744,33.656L188.744,33.656z M187.652,34.259h-5.199v-1.48
		h5.199V34.259L187.652,34.259z"/>
	<path fill="#FFFFFF" d="M200.164,35.179c0,1.701-0.41,2.971-1.234,3.813c-0.689,0.703-1.521,1.051-2.486,1.051
		c-1.047,0-1.957-0.43-2.725-1.289v4.609h-1.313v-8.029c0-1.439,0.316-2.592,0.941-3.455c0.682-0.941,1.66-1.412,2.932-1.412
		c0.982,0,1.824,0.342,2.518,1.027c0.701,0.686,1.135,1.582,1.309,2.68C200.142,34.439,200.164,34.771,200.164,35.179
		L200.164,35.179z M198.775,35.298c0-0.453-0.01-0.732-0.027-0.832c-0.064-0.797-0.316-1.436-0.76-1.926
		c-0.439-0.488-1.016-0.73-1.719-0.73c-0.814,0-1.449,0.355-1.896,1.074c-0.389,0.611-0.582,1.395-0.582,2.346
		c0,0.963,0.193,1.764,0.582,2.398c0.447,0.715,1.088,1.07,1.92,1.07c0.68,0,1.256-0.242,1.727-0.727
		c0.477-0.49,0.709-1.115,0.709-1.875C198.761,35.791,198.775,35.527,198.775,35.298L198.775,35.298z"/>
	<path fill="#FFFFFF" d="M209.125,43.363h-1.354v-9.139c0-0.773-0.096-1.336-0.293-1.684c-0.246-0.453-0.699-0.682-1.352-0.682
		c-0.729,0-1.313,0.262-1.752,0.773c-0.439,0.518-0.658,1.184-0.658,1.998v5.143h-1.357v-6.994c-0.01-0.6-0.307-0.9-0.883-0.9
		v-1.189c0.232-0.105,0.467-0.154,0.699-0.154c0.873,0,1.371,0.502,1.496,1.512c0.566-1.01,1.443-1.512,2.637-1.512
		c0.822,0,1.496,0.26,2.025,0.781c0.525,0.521,0.791,1.234,0.791,2.145V43.363L209.125,43.363z"/>
	<path fill="#FFFFFF" d="M219.917,32.097h-1.814c0.439,0.695,0.654,1.719,0.654,3.082c0,1.316-0.324,2.441-0.975,3.369
		c-0.699,0.996-1.623,1.494-2.775,1.494c-1.238,0-2.207-0.457-2.906-1.375c-0.654-0.873-0.979-2.012-0.979-3.42
		c0-1.395,0.328-2.529,0.992-3.402c0.699-0.918,1.664-1.379,2.893-1.379c0.307,0,0.77,0.045,1.391,0.137
		c0.617,0.092,1.078,0.137,1.385,0.137h2.135V32.097L219.917,32.097z M217.476,35.23c0-1.012-0.188-1.811-0.561-2.4
		c-0.426-0.678-1.08-1.02-1.953-1.02c-0.801,0-1.422,0.355-1.861,1.074c-0.383,0.621-0.576,1.402-0.576,2.346
		c0,0.963,0.193,1.76,0.576,2.381c0.449,0.727,1.084,1.088,1.906,1.088c0.732,0,1.34-0.385,1.816-1.156
		C217.261,36.851,217.476,36.08,217.476,35.23L217.476,35.23z"/>
	<polygon fill="#FFFFFF" points="228.244,39.773 226.593,39.773 223.773,35.06 222.662,36.23 222.662,39.773 221.304,39.773 
		221.304,30.74 222.662,30.74 222.662,34.31 226.062,30.74 227.835,30.74 224.742,34.041 228.244,39.773 	"/>
	<path fill="#FFFFFF" d="M235.951,36.88c0,1.041-0.389,1.855-1.17,2.436c-0.672,0.484-1.5,0.727-2.486,0.727
		c-0.893,0-1.643-0.205-2.24-0.625c-0.709-0.5-1.066-1.221-1.066-2.164c0-0.512,0.137-0.959,0.412-1.344
		c0.201-0.283,0.539-0.59,1.006-0.918c-0.754-0.553-1.129-1.221-1.129-1.988c0-0.842,0.348-1.496,1.037-1.957
		c0.59-0.398,1.285-0.6,2.09-0.6c0.891,0,1.613,0.256,2.162,0.768c0.6,0.545,0.9,1.303,0.9,2.281h-1.221
		c-0.219-1.17-0.822-1.754-1.824-1.754c-0.434,0-0.828,0.104-1.16,0.311c-0.422,0.246-0.627,0.598-0.627,1.041
		c0,0.457,0.191,0.805,0.58,1.043c0.32,0.211,0.695,0.311,1.139,0.311h0.918v1.258h-0.826c-1.404,0-2.104,0.488-2.104,1.459
		c0,1.061,0.705,1.59,2.111,1.59c1.172,0,1.881-0.625,2.127-1.873H235.951L235.951,36.88z"/>
	<path fill="#FFFFFF" d="M244.49,35.289c0,1.633-0.182,2.762-0.547,3.396c-0.494,0.836-1.436,1.258-2.83,1.258
		c-2.232,0-3.348-0.979-3.348-2.936c-0.027-0.443-0.045-0.941-0.045-1.494V30.74h1.357v4.525c0,1.098,0.102,1.885,0.307,2.346
		c0.297,0.695,0.877,1.037,1.736,1.037c1.34,0,2.012-0.836,2.012-2.518V30.74h1.357V35.289L244.49,35.289z"/>
	<path fill="#FFFFFF" d="M254.562,39.81c-0.375,0.086-0.604,0.133-0.682,0.133c-0.887,0-1.385-0.453-1.494-1.363
		c-0.6,0.91-1.303,1.363-2.104,1.363c-0.662,0-1.348-0.385-2.057-1.156v4.576h-1.313V30.74h1.357v4.801
		c0,2.07,0.65,3.107,1.947,3.107c1.006,0,1.633-0.396,1.875-1.197c0.156-0.498,0.229-1.197,0.229-2.098V30.74h1.357v6.99
		c0.01,0.604,0.252,0.904,0.713,0.904l0.17-0.035V39.81L254.562,39.81z"/>
	<path fill="#FFFFFF" d="M262.156,26.57l-2.135,2.945h-0.914l1.539-2.945H262.156L262.156,26.57z M264.246,39.81
		c-0.375,0.086-0.613,0.133-0.705,0.133c-0.832,0-1.334-0.453-1.508-1.363c-0.59,0.979-1.459,1.463-2.607,1.463
		c-1.137,0-2.037-0.498-2.697-1.494c-0.588-0.887-0.881-1.984-0.881-3.301c0-1.34,0.287-2.445,0.863-3.318
		c0.648-0.975,1.555-1.463,2.707-1.463c1.084,0,1.947,0.498,2.588,1.498V30.74h1.352v6.99c0.01,0.604,0.262,0.904,0.746,0.904
		l0.143-0.035V39.81L264.246,39.81z M262.064,35.23c0-0.906-0.184-1.674-0.549-2.297c-0.426-0.734-1.027-1.105-1.801-1.105
		c-0.781,0-1.398,0.338-1.855,1.02c-0.408,0.627-0.613,1.385-0.613,2.281c0,0.996,0.188,1.814,0.566,2.451
		c0.449,0.758,1.094,1.137,1.934,1.137c0.797,0,1.395-0.379,1.803-1.137C261.89,36.953,262.064,36.171,262.064,35.23L262.064,35.23z
		"/>
	<path fill="#FFFFFF" d="M271.619,32.097h-2.881v5.496c0,0.703,0.285,1.047,0.846,1.023h0.48v1.176
		c-0.383,0.1-0.713,0.15-0.986,0.15c-0.855,0-1.367-0.334-1.541-1.006c-0.102-0.408-0.15-1.08-0.15-2.012v-4.828h-2.854V30.74h7.086
		V32.097L271.619,32.097z"/>
	<path fill="#FFFFFF" d="M282.974,35.623c0,1.111-0.236,2.084-0.713,2.926c-0.563,0.986-1.316,1.48-2.271,1.48
		s-1.646-0.508-2.07-1.514c-0.408,1.006-1.094,1.514-2.059,1.514c-0.979,0-1.742-0.484-2.289-1.449
		c-0.477-0.826-0.715-1.811-0.715-2.957c0-1.623,0.59-3.25,1.766-4.883h1.555c-1.309,1.6-1.967,3.236-1.967,4.914
		c0,0.74,0.102,1.377,0.307,1.906c0.275,0.727,0.695,1.088,1.266,1.088c0.975,0,1.463-0.826,1.463-2.482v-3.4h1.359v3.4
		c0,1.656,0.451,2.482,1.361,2.482c0.58,0,1.02-0.365,1.316-1.105c0.225-0.566,0.338-1.217,0.338-1.957
		c0-0.896-0.191-1.77-0.57-2.619c-0.297-0.658-0.764-1.398-1.395-2.227h1.555C282.384,32.472,282.974,34.099,282.974,35.623
		L282.974,35.623z"/>
	<polygon fill="#FFFFFF" points="291.423,30.74 288.447,39.773 287.001,39.773 284.013,30.74 285.476,30.74 287.751,37.962 
		289.957,30.74 291.423,30.74 	"/>
</g>
</svg>
