<?xml version="1.0" encoding="utf-8"?>
<!-- Generator: Adobe Illustrator 16.0.0, SVG Export Plug-In . SVG Version: 6.00 Build 0)  -->
<!DOCTYPE svg PUBLIC "-//W3C//DTD SVG 1.1//EN" "http://www.w3.org/Graphics/SVG/1.1/DTD/svg11.dtd">
<svg version="1.1" id="Layer_1" xmlns="http://www.w3.org/2000/svg" xmlns:xlink="http://www.w3.org/1999/xlink" x="0px" y="0px"
	 width="74.432px" height="68.908px" viewBox="0 0 74.432 68.908" enable-background="new 0 0 74.432 68.908" xml:space="preserve">
<g>
	<path fill="#2CABE1" d="M4.737,1.063h64.958h1.063v1.063v43.863v1.063h-1.063H4.737H3.674v-1.063V2.126V1.063H4.737L4.737,1.063z
		 M68.632,3.189H5.8v41.737h62.832V3.189L68.632,3.189z"/>
	<path fill="#2CABE1" d="M36.153,47.441c0-0.587,0.476-1.063,1.063-1.063s1.063,0.476,1.063,1.063v20.403
		c0,0.587-0.477,1.063-1.063,1.063s-1.063-0.477-1.063-1.063V47.441L36.153,47.441z"/>
	<path fill="#2CABE1" d="M36.173,53.745c0.337-0.477,0.997-0.59,1.474-0.253c0.478,0.337,0.591,0.997,0.254,1.474l-9.553,13.489
		c-0.337,0.477-0.997,0.591-1.474,0.254c-0.478-0.338-0.591-0.998-0.254-1.475L36.173,53.745L36.173,53.745z"/>
	<path fill="#2CABE1" d="M36.531,54.966c-0.337-0.477-0.223-1.137,0.254-1.474s1.137-0.224,1.475,0.253l9.553,13.489
		c0.336,0.477,0.223,1.137-0.254,1.475c-0.477,0.337-1.137,0.223-1.475-0.254L36.531,54.966L36.531,54.966z"/>
	<path fill="#2CABE1" d="M2.126,4.252C0.952,4.252,0,3.3,0,2.126S0.952,0,2.126,0h70.181c1.174,0,2.125,0.952,2.125,2.126
		s-0.951,2.126-2.125,2.126H2.126L2.126,4.252z"/>
	<path fill="#2CABE1" d="M2.126,48.115C0.952,48.115,0,47.163,0,45.989s0.952-2.126,2.126-2.126h70.181
		c1.174,0,2.125,0.952,2.125,2.126s-0.951,2.126-2.125,2.126H2.126L2.126,48.115z"/>
	<path fill="#2CABE1" d="M19.482,15.965c-0.587,0-1.063-0.477-1.063-1.063s0.477-1.063,1.063-1.063H57.78
		c0.587,0,1.063,0.476,1.063,1.063s-0.477,1.063-1.063,1.063H19.482L19.482,15.965z"/>
	<path fill="#2CABE1" d="M19.482,24.809c-0.587,0-1.063-0.476-1.063-1.063c0-0.588,0.477-1.063,1.063-1.063H57.78
		c0.587,0,1.063,0.476,1.063,1.063c0,0.587-0.477,1.063-1.063,1.063H19.482L19.482,24.809z"/>
	<path fill="#2CABE1" d="M19.482,33.652c-0.587,0-1.063-0.476-1.063-1.063s0.477-1.063,1.063-1.063H57.78
		c0.587,0,1.063,0.477,1.063,1.063s-0.477,1.063-1.063,1.063H19.482L19.482,33.652z"/>
</g>
</svg>
