<?xml version="1.0" standalone="no"?>
<!DOCTYPE svg PUBLIC "-//W3C//DTD SVG 20010904//EN"
 "http://www.w3.org/TR/2001/REC-SVG-20010904/DTD/svg10.dtd">
<svg version="1.0" xmlns="http://www.w3.org/2000/svg"
 width="327.000000pt" height="204.000000pt" viewBox="0 0 327.000000 204.000000"
 preserveAspectRatio="xMidYMid meet">

<g transform="translate(0.000000,204.000000) scale(0.100000,-0.100000)"
fill="#000000" stroke="none">
<path d="M920 975 l0 -165 75 0 75 0 0 30 c0 28 -2 30 -41 30 l-40 0 3 38 c3
35 5 37 41 40 31 3 37 7 37 27 0 20 -6 24 -37 27 -36 3 -38 5 -41 41 l-3 37
40 0 c39 0 41 2 41 30 l0 30 -75 0 -75 0 0 -165z"/>
<path d="M1110 975 l0 -165 78 0 c47 0 85 5 95 13 26 18 33 98 13 138 -11 22
-13 36 -6 43 5 5 10 31 10 57 0 65 -21 79 -117 79 l-73 0 0 -165z m120 70 c0
-41 -2 -45 -25 -45 -23 0 -25 4 -25 45 0 41 2 45 25 45 23 0 25 -4 25 -45z m5
-140 c0 -36 -3 -40 -27 -43 -27 -3 -28 -2 -28 43 0 45 1 46 28 43 24 -3 27 -7
27 -43z"/>
<path d="M1372 1128 c-7 -7 -12 -41 -12 -84 0 -82 8 -93 70 -101 39 -5 40 -7
40 -44 0 -35 -3 -39 -25 -39 -20 0 -25 5 -25 25 0 21 -5 25 -30 25 -28 0 -30
-2 -30 -38 0 -53 13 -62 92 -62 81 0 88 8 88 99 0 76 -20 101 -81 101 l-40 0
3 38 c2 30 7 38 26 40 17 3 22 -2 22 -17 0 -17 6 -21 35 -21 30 0 35 3 35 23
0 12 -7 33 -16 45 -13 19 -24 22 -78 22 -35 0 -67 -5 -74 -12z"/>
<path d="M1590 975 l0 -165 35 0 35 0 0 165 0 165 -35 0 -35 0 0 -165z"/>
<path d="M1800 1135 c0 -2 11 -73 25 -157 14 -84 25 -156 25 -160 0 -4 18 -8
40 -8 44 0 40 -8 63 120 l13 75 13 -80 c18 -118 17 -115 62 -115 21 0 39 2 39
5 0 2 11 74 25 159 14 85 25 157 25 160 0 4 -15 6 -33 6 l-34 0 -13 -117 c-15
-129 -18 -127 -40 25 l-13 93 -31 -3 -31 -3 -17 -103 c-9 -57 -18 -108 -21
-115 -2 -7 -10 41 -17 106 l-12 117 -34 0 c-19 0 -34 -2 -34 -5z"/>
<path d="M2187 1122 c-14 -16 -17 -43 -17 -165 l0 -147 35 0 35 0 0 55 c0 52
1 55 25 55 24 0 25 -3 25 -55 l0 -55 35 0 35 0 0 149 c0 179 -1 181 -94 181
-48 0 -67 -4 -79 -18z m101 -90 c3 -61 2 -62 -23 -62 -24 0 -25 2 -25 58 0 63
5 74 30 70 11 -2 16 -19 18 -66z"/>
<path d="M2420 975 l0 -165 75 0 75 0 0 30 c0 28 -2 30 -40 30 l-40 0 0 135 0
135 -35 0 -35 0 0 -165z"/>
<path d="M2600 975 l0 -165 75 0 75 0 0 30 c0 28 -2 30 -40 30 l-40 0 0 135 0
135 -35 0 -35 0 0 -165z"/>
<path d="M2780 975 l0 -165 75 0 75 0 0 30 c0 28 -2 30 -40 30 l-40 0 0 40 c0
39 1 40 35 40 31 0 35 3 35 25 0 22 -4 25 -35 25 -34 0 -35 1 -35 40 l0 40 40
0 c38 0 40 2 40 30 l0 30 -75 0 -75 0 0 -165z"/>
<path d="M2950 1111 c0 -25 4 -30 28 -33 l27 -3 3 -132 3 -133 34 0 35 0 0
135 0 135 25 0 c21 0 25 5 25 30 l0 30 -90 0 -90 0 0 -29z"/>
<path d="M515 1022 l-150 -88 0 -68 0 -69 50 -27 50 -27 155 91 155 91 3 65 3
65 -46 28 c-25 15 -51 27 -58 27 -7 0 -79 -40 -162 -88z"/>
<path d="M1726 588 c-20 -29 -20 -58 0 -86 12 -18 24 -22 52 -20 34 3 37 6 40
36 3 29 1 32 -25 31 -17 -1 -21 -3 -10 -6 20 -5 23 -41 3 -49 -28 -11 -56 15
-56 50 0 39 13 52 55 59 28 4 27 4 -7 6 -28 1 -41 -4 -52 -21z"/>
<path d="M1852 560 c-1 -33 3 -61 10 -68 19 -19 66 -15 78 7 13 25 13 111 0
111 -5 0 -10 -24 -10 -54 0 -58 -15 -75 -50 -56 -14 7 -20 24 -23 63 l-3 52
-2 -55z"/>
<path d="M1980 545 c0 -37 4 -65 10 -65 6 0 10 24 10 52 l0 53 35 -53 c20 -28
40 -52 45 -52 6 0 10 29 10 65 0 74 -17 89 -22 19 l-3 -47 -33 47 c-18 25 -37
46 -43 46 -5 0 -9 -29 -9 -65z"/>
<path d="M2120 545 l0 -65 45 0 c25 0 45 5 45 10 0 6 -16 10 -35 10 -28 0 -35
4 -35 20 0 16 7 20 31 20 17 0 28 4 24 10 -3 6 -17 10 -31 10 -17 0 -24 5 -24
19 0 15 8 21 38 24 34 3 33 4 -10 5 l-48 2 0 -65z"/>
<path d="M2240 601 c22 -6 26 -14 31 -66 l6 -60 1 62 c2 59 3 62 30 66 15 2 0
4 -33 5 -39 0 -51 -2 -35 -7z"/>
</g>
</svg>
