<svg width="512" height="512" viewBox="0 0 512 512" fill="none" xmlns="http://www.w3.org/2000/svg">
<rect width="512" height="512" rx="256" fill="white"/>
<path fill-rule="evenodd" clip-rule="evenodd" d="M187.096 102.215C199.23 181.029 199.23 181.029 278.044 193.221C199.257 205.35 199.23 205.528 187.108 284.202C187.104 284.229 187.1 284.257 187.096 284.284C174.904 205.412 174.904 205.412 96.0903 193.221C174.904 181.029 174.904 181.029 187.096 102.215ZM193.221 329.469C331.318 308.09 331.318 308.09 352.697 169.935C373.498 304.565 374.018 308.032 501.773 327.851C508.418 305.027 512 280.933 512 256.029C512 114.58 397.42 0 255.971 0C114.58 0 0 114.58 0 256.029C0 397.42 114.58 512 255.971 512C371.245 512 468.664 435.902 500.79 331.202C373.961 350.848 373.441 354.893 352.697 488.887C331.318 350.79 331.318 350.79 193.221 329.469Z" fill="#1C4587"/>
</svg>
