<?xml version="1.0" standalone="no"?>
<!DOCTYPE svg PUBLIC "-//W3C//DTD SVG 20010904//EN"
 "http://www.w3.org/TR/2001/REC-SVG-20010904/DTD/svg10.dtd">
<svg version="1.0" xmlns="http://www.w3.org/2000/svg"
 width="512.000000pt" height="512.000000pt" viewBox="0 0 512.000000 512.000000"
 preserveAspectRatio="xMidYMid meet">
<metadata>
Created by potrace 1.14, written by Peter Selinger 2001-2017
</metadata>
<g transform="translate(0.000000,512.000000) scale(0.100000,-0.100000)"
fill="#000000" stroke="none">
<path d="M860 4087 l0 -584 -30 -7 c-17 -3 -33 -6 -38 -7 -73 -16 -213 -82
-308 -145 -254 -167 -422 -423 -472 -719 -13 -78 -7 -317 11 -401 38 -179 124
-344 254 -484 157 -167 368 -296 534 -325 18 -3 36 -8 41 -11 4 -3 8 -221 8
-485 l0 -479 1168 0 c947 0 1187 3 1272 14 466 63 851 250 1197 580 311 297
519 654 603 1034 18 78 20 129 20 492 l0 405 -29 115 c-38 151 -71 239 -141
385 -261 547 -807 992 -1395 1139 -55 13 -118 27 -140 30 -72 11 -99 16 -130
23 -16 4 -569 9 -1227 10 l-1198 4 0 -584z m2225 -560 c17 -4 39 -9 50 -11
178 -34 369 -127 494 -241 257 -236 373 -482 374 -800 1 -146 -7 -211 -43
-330 -95 -315 -364 -587 -687 -695 -168 -56 -218 -59 -857 -57 l-578 2 0 1045
c0 575 1 1056 1 1070 l1 26 608 -1 c334 -1 621 -5 637 -8z"/>
</g>
</svg>
