<svg width="512" height="512" viewBox="0 0 512 512" fill="none" xmlns="http://www.w3.org/2000/svg">
<rect width="512" height="512" rx="256" fill="white"/>
<path fill-rule="evenodd" clip-rule="evenodd" d="M190.286 109.335C201.858 184.5 201.858 184.5 277.023 196.127C201.884 207.695 201.858 207.865 190.298 282.896C190.294 282.922 190.29 282.948 190.286 282.974C178.658 207.754 178.658 207.754 103.494 196.127C178.658 184.5 178.658 184.5 190.286 109.335ZM196.127 326.068C327.831 305.678 327.831 305.678 348.22 173.919C368.059 302.317 368.554 305.623 490.394 324.525C496.732 302.758 500.148 279.778 500.148 256.028C500.148 121.128 390.872 11.8518 255.972 11.8518C121.128 11.8518 11.8518 121.128 11.8518 256.028C11.8518 390.872 121.128 500.148 255.972 500.148C365.909 500.148 458.818 427.573 489.458 327.721C368.499 346.457 368.003 350.314 348.22 478.106C327.831 346.402 327.831 346.402 196.127 326.068Z" fill="#1C4587"/>
</svg>
